<svg width="35" height="38" viewBox="0 0 35 38" fill="none" xmlns="http://www.w3.org/2000/svg">
<path d="M9.78275 29.946C8.5063 29.946 7.27955 29.5051 6.36611 28.7167C5.45258 27.9284 4.9231 26.8552 4.89204 25.726C4.8734 23.7523 5.44886 21.8106 6.56001 20.0986C7.66993 18.3866 9.27449 16.9671 11.2083 15.9853C11.5663 15.8039 12.0137 15.8369 12.3332 16.0678C13.8246 17.0563 15.6368 17.5907 17.4998 17.5907C19.3628 17.5907 21.1751 17.0563 22.6664 16.0678C22.9859 15.8369 23.4333 15.8039 23.7913 15.9853C27.6852 17.9788 30.0903 21.6513 30.1078 25.6317C30.2271 29.092 25.2619 31.2647 22.249 29.0205C20.8943 28.0759 19.2189 27.5636 17.4938 27.5647C15.7687 27.5658 14.0944 28.0825 12.7408 29.0292C11.9019 29.623 10.8579 29.9471 9.78275 29.946ZM11.6471 17.8105C8.6455 19.5588 6.85083 22.5341 6.88074 25.7128C6.92424 26.6617 7.55936 27.5106 8.52759 27.9174C9.49705 28.3242 10.6417 28.223 11.5006 27.6546C13.2071 26.4605 15.3188 25.8107 17.4939 25.8096C19.6689 25.8085 21.7807 26.455 23.4897 27.6447C24.3585 28.2341 25.5306 28.3352 26.5124 27.9064C27.4943 27.4787 28.117 26.5946 28.1195 25.627C28.1071 22.4801 26.3185 19.5476 23.3531 17.8103C21.6131 18.8175 19.5798 19.354 17.5002 19.354C15.4205 19.354 13.386 18.8177 11.6471 17.8105ZM17.5001 16.2789C15.6283 16.3085 13.8235 15.662 12.5049 14.4866C11.185 13.3123 10.4653 11.7114 10.5113 10.0567C10.5238 2.12338 24.0041 1.49905 24.5336 10.0567C24.5311 11.706 23.7891 13.2881 22.4704 14.4548C21.1529 15.6203 19.3644 16.2767 17.5001 16.2789ZM17.5001 5.59354C16.1552 5.56275 14.8564 6.02454 13.9106 6.86899C12.9635 7.71343 12.4527 8.86686 12.5 10.0565C12.4204 15.7092 22.2083 16.2128 22.545 10.0565C22.5425 8.87339 22.0105 7.73865 21.0647 6.90192C20.1201 6.06626 18.8374 5.59574 17.5001 5.59354Z" fill="black"/>
</svg>
