<svg width="104" height="76" viewBox="0 0 104 76" fill="none" xmlns="http://www.w3.org/2000/svg">
<path d="M68 3.00494V61.0119C68 63.3145 65.5138 64.7589 63.5139 63.6182C52.92 57.5761 42.7739 52.9935 33.079 49.8657L31.6234 49.4105C31.5967 51.6326 31.6607 53.8479 31.8151 56.0567C31.9429 57.8846 32.1017 59.278 32.3385 60.7066C32.5352 61.893 32.7194 62.801 33.2905 65.4716C34.3417 70.3871 30.5996 74.9397 25.282 75.8414C24.9192 75.903 24.5532 75.9467 24.1856 75.9724C18.8438 76.346 14.0534 72.89 13.7073 67.9393C13.6817 67.5738 13.682 67.207 13.708 66.8411C13.9019 64.1174 13.958 63.1922 13.9877 61.9899C14.0234 60.5423 13.9868 59.1404 13.859 57.3125C13.5975 53.5729 13.0765 49.851 12.2957 46.1457C12.2171 45.7724 12.2115 45.4006 12.2694 45.0454C9.14612 44.5896 5.98104 44.2415 2.77597 44.0015C1.2104 43.8842 0 42.5796 0 41.0095V23.0073C0 21.4123 1.24789 20.096 2.84051 20.0112C12.4732 19.4983 22.552 17.5473 33.079 14.1512C43.6322 10.7465 53.762 6.17119 63.4719 0.422996C65.4717 -0.760886 68 0.680756 68 3.00494ZM18.396 46.0535L18.5087 46.613C19.1584 50.0249 19.6037 53.452 19.8443 56.8939C19.9849 58.9038 20.0264 60.4938 19.9859 62.138C19.953 63.4674 19.8937 64.4457 19.6929 67.2672C19.6868 67.3521 19.6868 67.4367 19.6926 67.5207C19.789 68.8993 21.5141 70.1439 23.7671 69.9863C23.9388 69.9743 24.1098 69.9539 24.2789 69.9252C26.4516 69.5567 27.7029 68.0345 27.4232 66.7266C26.8316 63.96 26.6368 62.9999 26.4193 61.6881C26.1504 60.0655 25.9703 58.4852 25.8297 56.4753C25.6265 53.5683 25.5692 50.6513 25.6579 47.7246C23.2689 47.1101 20.85 46.5657 18.4058 46.0895L18.396 46.0535ZM80.9388 46.7205L81.1625 46.9309L92.2522 58.4657C93.4005 59.6602 93.3633 61.5595 92.169 62.708C91.0493 63.7848 89.3102 63.8193 88.1509 62.8352L87.9271 62.6248L76.8375 51.09C75.6891 49.8956 75.7264 47.9962 76.9207 46.8477C78.0404 45.771 79.7795 45.7364 80.9388 46.7205ZM62 8.16956C53.2955 12.9485 44.2684 16.8464 34.921 19.8621C28.819 21.8307 22.8453 23.3379 17.0001 24.3824L17.0029 39.728C23.1201 40.799 29.0931 42.2746 34.921 44.1548C43.6385 46.9672 52.6641 50.8891 62 55.9177V8.16956ZM11.0015 25.2976C9.32339 25.509 7.65622 25.6811 6 25.8139V38.2522C7.67768 38.4104 9.34513 38.5973 11.0023 38.8131L11.0015 25.2976ZM101 28.0079C102.657 28.0079 104 29.3512 104 31.0083C104 32.6654 102.657 34.0087 101 34.0087H85C83.3431 34.0087 82 32.6654 82 31.0083C82 29.3512 83.3431 28.0079 85 28.0079H101ZM92.169 0.842164C93.3633 1.99067 93.4005 3.89003 92.2522 5.0845L81.1625 16.6193C80.0141 17.8138 78.115 17.851 76.9207 16.7025C75.7264 15.554 75.6891 13.6546 76.8375 12.4602L87.9271 0.92538C89.0755 -0.269088 90.9746 -0.306346 92.169 0.842164Z" fill="black"/>
</svg>
