<svg width="469" height="93" viewBox="0 0 469 93" fill="none" xmlns="http://www.w3.org/2000/svg">
<path d="M385.712 20.7784C394.999 20.7784 401.606 15.8915 402.87 5.17236H393.744C392.8 8.95349 390.592 10.8441 385.721 10.8441C380.842 10.8441 378.322 8.95349 377.539 5.17236H368.412C369.659 15.8915 376.426 20.7784 385.712 20.7784Z" fill="black"/>
<path d="M198.33 64.3774V25.6655H186.844V82.097H198.811L221.943 42.734V82.097H233.429V25.6655H221.471L198.33 64.3774Z" fill="black"/>
<path d="M150.686 26.1381C141.586 26.1381 133.822 30.383 129.806 38.2662C130.376 25.4782 132.914 17.8713 147.694 15.8916L170.675 12.7347L169.731 0.125L145.806 3.43349C125.185 6.26933 119.362 22.1965 119.362 47.2553C119.362 69.1663 129.281 83.1939 147.694 83.1939C165.635 83.1939 175.394 69.3179 175.394 53.0876C175.394 36.8572 164.54 26.1381 150.686 26.1381ZM147.694 70.7447C137.303 70.7447 131.168 63.1824 131.168 51.8301V45.9979C133.368 41.5836 139.2 38.1146 147.694 38.1146C156.669 38.1146 163.587 42.3684 163.587 53.0876C163.587 63.8067 158.085 70.7447 147.694 70.7447Z" fill="black"/>
<path d="M457.433 25.6655V46.7827H435.084V25.6655H423.598V82.097H435.084V58.4471H457.433V82.097H468.928V25.6655H457.433Z" fill="black"/>
<path d="M374.066 64.3774V25.6655H362.571V82.097H374.538L397.67 42.734V82.097H409.156V25.6655H397.198L374.066 64.3774Z" fill="black"/>
<path d="M254.095 60.1861C252.84 66.4909 251.103 69.1752 247.64 69.1752C245.752 69.1752 244.336 69.0146 243.393 68.7025V81.7849C244.808 82.418 246.073 82.8907 249.055 82.8907C255.039 82.8907 259.286 79.4217 261.334 74.0621C262.589 70.7536 263.382 66.1788 264.014 60.3466C264.646 54.5144 265.118 46.7916 265.118 37.6509H280.388V82.1059H291.874V25.6655H255.52C255.52 42.6894 255.048 53.8812 254.095 60.1861Z" fill="black"/>
<path d="M346.09 66.8029L346.25 44.4193C346.41 30.2311 337.747 24.3989 325.157 24.3989C314.766 24.3989 305.328 30.0706 303.912 43.3135H314.926C315.558 38.1144 319.645 36.3755 325.157 36.3755C330.802 36.3755 334.586 38.1144 335.156 43.9199L321.07 49.6183C311.472 53.56 304.233 57.9743 304.233 67.2755C304.233 76.8888 309.584 83.0421 320.286 83.0421C327.677 83.0421 332.351 79.5642 336.091 72.7688C336.652 79.5642 341.148 82.5695 348.93 82.5695H352.082V71.6898H351.138C347.505 71.6898 346.09 70.2719 346.09 66.8029ZM324.525 71.2171C319.173 71.2171 315.238 69.7992 315.238 64.9123C315.238 60.6585 318.541 58.768 324.213 56.3958L335.183 51.8299L335.067 67.115C333.179 69.4871 329.404 71.2171 324.525 71.2171Z" fill="black"/>
<path d="M45.9147 91.9242C71.2692 91.9242 91.8231 71.3463 91.8231 45.9621C91.8231 20.5779 71.2692 0 45.9147 0C20.5602 0 0.00634766 20.5779 0.00634766 45.9621C0.00634766 71.3463 20.5602 91.9242 45.9147 91.9242Z" fill="#FFC800"/>
<path d="M65.6716 80.2063C50.0809 89.2132 33.1725 90.8273 22.3721 85.4321C36.1998 93.681 53.9541 94.3944 68.877 85.771C83.7999 77.1386 92.0627 61.3898 91.8401 45.2754C91.1099 57.3412 81.2623 71.1994 65.6716 80.2063Z" fill="black"/>
<path d="M51.737 3.37085C54.8979 8.84635 47.2583 19.1909 34.6683 26.4589C22.0782 33.7268 9.31896 35.1894 6.15809 29.7049C6.02453 29.4463 5.89988 29.161 5.81084 28.8667C4.99168 26.3162 5.97111 23.0166 8.33063 19.5387C8.7135 18.9947 9.10527 18.4597 9.50594 17.9335C13.0675 13.2874 17.5818 9.25657 22.9597 6.15319C28.3376 3.0409 34.0806 1.15033 39.877 0.383403C40.5537 0.285308 41.2126 0.213968 41.8537 0.169379C46.0385 -0.142742 49.3775 0.659856 51.1761 2.6396C51.3897 2.88038 51.5767 3.12116 51.737 3.37085Z" fill="black"/>
<path d="M71.2542 9.30136C76.7746 18.8701 65.6359 35.6444 46.3857 46.7737C27.1355 57.9031 7.0484 59.1694 1.5369 49.6006C0.619805 48.0044 0.130094 46.2297 0.032151 44.3213C-0.208253 50.751 0.895827 57.2877 3.46905 63.4945C3.85191 64.4219 4.2704 65.3405 4.71559 66.2501C4.7334 66.2858 4.76011 66.3303 4.77792 66.366C6.44294 69.2465 8.9004 71.5116 11.9633 73.1524C22.7637 78.94 41.0256 76.9514 58.1032 67.0794C75.1719 57.2075 86.0257 42.3773 86.4264 30.1243C86.5422 26.6642 85.8209 23.4092 84.1737 20.5288C83.5505 19.5924 82.9005 18.6739 82.2149 17.7999C78.1636 12.5563 73.124 8.38283 67.5235 5.4043C69.0817 6.42984 70.346 7.72291 71.2542 9.30136C71.2542 9.30136 71.2631 9.31027 71.2631 9.31919L71.2542 9.30136Z" fill="black"/>
<path d="M45.9235 91.9242C71.278 91.9242 91.8318 71.3463 91.8318 45.9621C91.8318 20.5779 71.278 0 45.9235 0C20.569 0 0.0151367 20.5779 0.0151367 45.9621C0.0151367 71.3463 20.569 91.9242 45.9235 91.9242Z" fill="url(#paint0_radial_504_143)"/>
<defs>
<radialGradient id="paint0_radial_504_143" cx="0" cy="0" r="1" gradientUnits="userSpaceOnUse" gradientTransform="translate(45.9192 45.9659) scale(45.9073 45.9789)">
<stop offset="0.5" stop-color="white" stop-opacity="0"/>
<stop offset="1" stop-color="white" stop-opacity="0.35"/>
</radialGradient>
</defs>
</svg>
