<svg width="31" height="28" viewBox="0 0 31 28" fill="none" xmlns="http://www.w3.org/2000/svg">
<path d="M19.8879 0H5.60024C4.99312 0 4.50119 0.385191 4.50119 0.860569V12.048H1.20403C0.596916 12.048 0.10498 12.4332 0.10498 12.9085V16.3508C0.10498 16.8262 0.596916 17.2114 1.20403 17.2114H4.50119V18.9325H1.20403C0.596916 18.9325 0.10498 19.3177 0.10498 19.7931V23.2354C0.10498 23.7107 0.596916 24.0959 1.20403 24.0959H4.50119V26.6776C4.50119 27.153 4.99312 27.5382 5.60024 27.5382H9.99644C10.6036 27.5382 11.0955 27.153 11.0955 26.6776V24.0959H25.3832C25.9903 24.0959 26.4822 23.7107 26.4822 23.2354V19.7931C26.4822 19.3177 25.9903 18.9325 25.3832 18.9325H11.0955V17.2114H19.8879C25.9481 17.2114 30.8784 13.3509 30.8784 8.60569C30.8784 3.86051 25.9481 0 19.8879 0ZM2.30308 15.4902V13.7691H4.50119V15.4902H2.30308ZM8.89739 25.8171H6.69929V24.0959H8.89739V25.8171ZM24.2841 20.6537V22.3748H2.30308V20.6537H24.2841ZM19.8879 15.4902H11.0955V13.7691H19.8879C23.524 13.7691 26.4822 11.4528 26.4822 8.60569C26.4822 5.75858 23.524 3.44228 19.8879 3.44228H9.99644C9.38933 3.44228 8.89739 3.82747 8.89739 4.30285V18.9325H6.69929V1.72114H19.8879C24.736 1.72114 28.6803 4.80955 28.6803 8.60569C28.6803 12.4018 24.736 15.4902 19.8879 15.4902ZM11.0955 12.048V5.16341H19.8879C22.312 5.16341 24.2841 6.70762 24.2841 8.60569C24.2841 10.5038 22.312 12.048 19.8879 12.048H11.0955Z" fill="white"/>
</svg>
