<svg width="74" height="55" viewBox="0 0 74 55" fill="none" xmlns="http://www.w3.org/2000/svg">
<path d="M36.9913 54.9999C37.5655 55.0013 38.1342 54.8522 38.6651 54.561C39.1959 54.2699 39.6784 53.8425 40.0849 53.3033L72.7734 9.84702C73.5694 8.75116 74.0098 7.28343 73.9998 5.75995C73.9899 4.23647 73.5303 2.77914 72.7202 1.70184C71.91 0.624538 70.8141 0.0134583 69.6684 0.00021965C68.5227 -0.013019 67.419 0.57264 66.5949 1.63106L37.0044 40.9735L7.40511 1.63106C6.58101 0.57264 5.47725 -0.013019 4.33157 0.00021965C3.18589 0.0134583 2.08996 0.624538 1.27981 1.70184C0.469661 2.77914 0.0101208 4.23647 0.00016518 5.75995C-0.00979046 7.28343 0.430634 8.75116 1.22658 9.84702L33.8845 53.3033C34.2926 53.8446 34.7772 54.2732 35.3104 54.5644C35.8436 54.8556 36.4149 55.0036 36.9913 54.9999Z" fill="#4146CE"/>
</svg>
