<svg width="371" height="328" viewBox="0 0 371 328" fill="none" xmlns="http://www.w3.org/2000/svg">
<g filter="url(#filter0_d_41_1272)">
<path d="M201.644 244.203C200.569 243.358 199.133 242.956 197.693 243.094C194.211 243.422 190.698 243.59 187.251 243.59C134.462 243.59 91.5174 206.097 91.5174 160.01C91.5174 113.923 134.462 76.4304 187.251 76.4304C190.698 76.4304 194.211 76.598 197.693 76.9264C199.129 77.0639 200.565 76.6583 201.644 75.817C202.719 74.9757 203.333 73.7724 203.333 72.5088V4.44444C203.333 1.99095 201.052 0 198.242 0H157.601C155.171 0 153.078 1.50159 152.606 3.58639L146.068 32.5323L113.174 44.4444L85.0907 28.0007C83.0713 26.8175 80.3762 27.0488 78.6562 28.5504L36.7019 65.1785C34.982 66.6801 34.7209 69.033 36.0723 70.796L54.9072 95.3142L41.2629 124.032L8.1079 129.74C5.72378 130.152 4 131.979 4 134.101V185.899C4 188.021 5.71994 189.848 8.1079 190.26L41.2629 195.968L54.9072 224.686L36.0723 249.204C34.7171 250.967 34.982 253.32 36.7019 254.822L78.6562 291.45C80.3762 292.951 83.0713 293.179 85.0907 291.999L113.174 275.556L146.068 287.468L152.606 316.414C153.078 318.495 155.171 320 157.601 320H198.242C201.052 320 203.333 318.009 203.333 315.556V247.511C203.333 246.248 202.719 245.048 201.644 244.203ZM193.151 311.108H161.786L155.532 283.412C155.201 281.954 154.061 280.737 152.487 280.168L114.556 266.432C112.982 265.862 111.185 266.016 109.769 266.844L82.8947 282.577L46.8604 251.118L64.8814 227.655C65.8296 226.419 66.0101 224.85 65.3536 223.476L49.6207 190.36C48.968 188.986 47.5744 187.991 45.9044 187.702L14.1814 182.242V137.751L45.9044 132.291C47.5744 132.003 48.968 131.007 49.6207 129.633L65.3536 96.5175C66.0062 95.1433 65.8296 93.5747 64.8814 92.3379L46.8604 68.8755L82.8947 37.4158L109.769 53.149C111.185 53.9769 112.982 54.1344 114.556 53.5613L152.487 39.8257C154.061 39.2559 155.201 38.0392 155.532 36.5812L161.786 8.88554H193.151V67.6823C191.178 67.5851 189.205 67.5381 187.251 67.5381C128.849 67.5381 81.336 109.02 81.336 160.007C81.336 210.994 128.849 252.475 187.251 252.475C189.205 252.475 191.174 252.428 193.151 252.331V311.108ZM366.574 149.036C366.854 147.843 367 146.606 367 145.343C367 138.827 363.088 133.099 357.214 129.841C360.6 126.583 362.666 122.259 362.666 117.523C362.666 107.404 353.237 99.1688 341.642 99.1688H297.135C299.538 81.6491 302.698 47.6018 285.652 32.4786C279.033 26.6063 270.226 24.1629 259.473 25.2187C253.165 25.8388 248.643 30.6486 249.172 36.1723C253.599 82.068 241.425 100.278 201.152 106.523C198.676 103.124 194.338 100.855 189.389 100.855H163.352C155.666 100.855 149.412 106.315 149.412 113.025V206.988C149.412 213.699 155.666 219.159 163.352 219.159H189.389C195.063 219.159 199.943 216.179 202.12 211.926C203.655 212.033 205.072 212.167 206.412 212.318C206.719 212.355 207.026 212.388 207.329 212.425C209.598 212.71 211.622 213.055 213.53 213.444C216.298 214.01 218.828 214.664 221.496 215.361C225.754 216.471 230.161 217.617 236.181 218.576C243.187 219.688 250.773 220.111 258.575 220.111C271.447 220.111 284.911 218.968 297.338 217.912C302.548 217.469 307.474 217.05 312.192 216.725H334.421C345.19 216.725 353.951 209.077 353.951 199.675C353.951 195.988 352.599 192.576 350.311 189.784C357.156 186.978 362.001 181.046 362.405 174.104C362.424 173.793 362.431 173.477 362.431 173.162C362.431 168.467 360.397 164.18 357.064 160.928C361.875 158.311 365.395 154.044 366.57 149.04L366.574 149.036ZM341.416 182.624H305.136C299.158 182.624 294.294 178.378 294.294 173.159C294.294 167.94 299.158 163.694 305.136 163.694H341.416C347.393 163.694 352.258 167.94 352.258 173.159C352.258 178.378 347.393 182.624 341.416 182.624ZM356.765 146.311C356.208 151.078 351.586 154.808 345.981 154.808H303.861C297.884 154.808 293.019 150.561 293.019 145.343C293.019 140.124 297.884 135.877 303.861 135.877H345.981C351.586 135.877 356.208 139.608 356.765 144.374C356.803 144.692 356.822 145.014 356.822 145.339C356.822 145.664 356.803 145.986 356.765 146.305V146.311ZM341.642 108.064C347.62 108.064 352.484 112.311 352.484 117.53C352.484 122.748 347.62 126.995 341.642 126.995H310.042C304.065 126.995 299.2 122.748 299.2 117.53C299.2 112.311 304.065 108.064 310.042 108.064H341.642ZM251.096 90.2329C259.254 77.9487 261.788 61.0458 259.315 35.4315C259.25 34.7511 259.83 34.1344 260.605 34.0573C268.199 33.3132 274.016 34.8383 278.388 38.7196C293.783 52.3781 288.159 90.5212 286.312 103.053C286.312 103.074 286.312 103.094 286.309 103.114C286.297 103.208 286.289 103.305 286.286 103.399C286.286 103.459 286.278 103.523 286.278 103.583C286.278 103.667 286.282 103.754 286.286 103.841C286.289 103.912 286.293 103.982 286.301 104.052C286.301 104.069 286.301 104.086 286.301 104.103C289.533 129.931 282.013 143.007 260.337 149.234C257.665 150.002 256.213 152.512 257.093 154.845C257.799 156.715 259.788 157.902 261.926 157.902C262.452 157.902 262.99 157.828 263.519 157.677C271.854 155.281 278.227 151.999 283.072 148.111C283.886 152.8 286.746 156.91 290.823 159.732C286.696 163.084 284.105 167.863 284.105 173.162C284.105 180.469 289.023 186.794 296.121 189.744C293.814 192.542 292.451 195.971 292.451 199.678C292.451 203.167 293.661 206.415 295.73 209.12C293.323 209.325 290.877 209.532 288.405 209.73C271.228 211.125 252.862 212.197 238.004 209.834C232.534 208.963 228.399 207.887 224.402 206.848C221.976 206.214 219.592 205.597 217.012 205.038C216.317 204.887 215.614 204.739 214.885 204.599C214.827 204.589 214.766 204.579 214.704 204.565C212.086 204.062 209.207 203.633 205.867 203.315C205.049 203.238 204.204 203.164 203.329 203.1V115.214C227.078 111.44 242.323 103.449 251.096 90.2329ZM193.148 206.992C193.148 208.802 191.462 210.273 189.389 210.273H163.352C161.279 210.273 159.593 208.802 159.593 206.992V113.028C159.593 111.218 161.279 109.747 163.352 109.747H189.389C191.462 109.747 193.148 111.218 193.148 113.028V206.992ZM334.421 207.836H311.985C306.829 207.836 302.637 204.176 302.637 199.675C302.637 195.173 306.829 191.513 311.985 191.513H334.421C339.577 191.513 343.769 195.173 343.769 199.675C343.769 204.176 339.577 207.836 334.421 207.836ZM267.508 233.296C240.127 233.296 217.853 252.743 217.853 276.648C217.853 300.553 240.127 320 267.508 320C294.889 320 317.164 300.553 317.164 276.648C317.164 252.743 294.889 233.296 267.508 233.296ZM267.508 311.111C245.74 311.111 228.034 295.653 228.034 276.648C228.034 257.644 245.74 242.185 267.508 242.185C289.276 242.185 306.982 257.644 306.982 276.648C306.982 295.653 289.276 311.111 267.508 311.111ZM289.276 261.679C291.265 263.415 291.265 266.228 289.276 267.964L262.187 291.614C261.227 292.452 259.93 292.914 258.586 292.914C258.363 292.914 258.145 292.901 257.922 292.877C256.352 292.696 254.97 291.889 254.179 290.692L244.93 276.705C243.525 274.58 244.358 271.862 246.792 270.635C249.226 269.408 252.34 270.136 253.745 272.261L259.676 281.233L282.074 261.679C284.063 259.943 287.288 259.943 289.276 261.679Z" fill="#4146CE"/>
</g>
<defs>
<filter id="filter0_d_41_1272" x="0" y="0" width="371" height="328" filterUnits="userSpaceOnUse" color-interpolation-filters="sRGB">
<feFlood flood-opacity="0" result="BackgroundImageFix"/>
<feColorMatrix in="SourceAlpha" type="matrix" values="0 0 0 0 0 0 0 0 0 0 0 0 0 0 0 0 0 0 127 0" result="hardAlpha"/>
<feOffset dy="4"/>
<feGaussianBlur stdDeviation="2"/>
<feComposite in2="hardAlpha" operator="out"/>
<feColorMatrix type="matrix" values="0 0 0 0 0 0 0 0 0 0 0 0 0 0 0 0 0 0 0.25 0"/>
<feBlend mode="normal" in2="BackgroundImageFix" result="effect1_dropShadow_41_1272"/>
<feBlend mode="normal" in="SourceGraphic" in2="effect1_dropShadow_41_1272" result="shape"/>
</filter>
</defs>
</svg>
