<svg width="383" height="364" viewBox="0 0 383 364" fill="none" xmlns="http://www.w3.org/2000/svg">
<path fill-rule="evenodd" clip-rule="evenodd" d="M204.846 25.5589H193.658C190.948 25.5589 188.438 23.9002 187.573 21.3251C180.957 1.38878 155.621 -6.38364 138.014 5.87533C132.628 9.61931 128.521 14.9431 126.41 21.1197C125.662 23.6788 123.185 25.5589 120.259 25.5589H110.932C105.496 25.5589 101.041 29.7927 101.041 34.9583V50.4396C101.041 55.5579 105.447 59.8232 110.932 59.8232H204.859C210.296 59.8232 214.751 55.5894 214.751 50.4396V34.9583C214.751 29.7927 210.296 25.5589 204.859 25.5589H204.846ZM157.883 14.6745C172.13 14.6745 179.312 31.1196 169.237 40.7086C159.146 50.2977 141.84 43.4732 141.84 29.9347C141.84 21.5148 149.022 14.6903 157.883 14.6903V14.6745ZM165.148 264.525C168.672 264.525 171.531 267.242 171.531 270.591C171.531 273.94 168.672 276.657 165.148 276.657H124.467C120.943 276.657 118.084 273.94 118.084 270.591C118.084 267.242 120.943 264.525 124.467 264.525H165.148ZM124.467 303.797C120.943 303.797 118.084 301.08 118.084 297.731C118.084 294.382 120.943 291.665 124.467 291.665H212.36C215.884 291.665 218.743 294.382 218.743 297.731C218.743 301.08 215.884 303.797 212.36 303.797H124.467ZM93.9447 292.754C93.9447 289.405 96.8041 286.688 100.328 286.688C103.853 286.688 106.712 289.405 106.712 292.754V296.072C106.712 305.866 98.3333 313.828 88.0264 313.828H62.99C52.6827 313.828 44.3042 305.85 44.3042 296.072V272.281C44.3042 262.487 52.6997 254.525 62.99 254.525H83.1722C86.6966 254.525 89.556 257.242 89.556 260.591C89.556 263.94 86.6966 266.657 83.1722 266.657H62.99C59.7316 266.657 57.0718 269.201 57.0718 272.281V296.072C57.0718 299.168 59.7483 301.696 62.99 301.696H88.0264C91.2848 301.696 93.9447 299.152 93.9447 296.072V292.754ZM81.626 294.318L104.269 272.818C106.762 270.464 106.779 266.626 104.302 264.272C101.825 261.902 97.7852 261.886 95.3079 264.24L77.154 281.475L74.0951 278.568C71.6014 276.215 67.5785 276.23 65.1012 278.6C62.6238 280.97 62.6408 284.792 65.1344 287.146L72.6818 294.318C75.1588 296.656 79.1818 296.672 81.6591 294.318L81.626 294.318ZM124.118 181.366L134.342 181.398C136.67 181.271 138.964 182.361 140.211 184.399L145.514 193.087L154.624 188.127C156.536 187.053 158.979 186.958 161.041 188.08L170.235 193.087L175.554 184.399C176.652 182.598 178.713 181.382 181.057 181.382L191.647 181.35L191.68 171.635C191.547 169.423 192.694 167.243 194.839 166.058L203.982 161.019L198.762 152.362C197.632 150.545 197.532 148.223 198.712 146.264L203.982 137.528L194.839 132.473C192.944 131.431 191.664 129.472 191.664 127.244L191.63 117.181L181.407 117.149C179.079 117.276 176.785 116.186 175.538 114.148L170.235 105.46L161.125 110.42C159.213 111.494 156.769 111.589 154.691 110.467L145.498 105.46L140.178 114.148C139.081 115.949 137.036 117.165 134.675 117.165L124.085 117.197L124.052 126.912C124.185 129.124 123.038 131.304 120.877 132.489L111.733 137.528L116.954 146.185C118.084 148.002 118.184 150.324 117.003 152.283L111.717 161.019L120.86 166.074C122.755 167.117 124.035 169.075 124.035 171.303L124.069 181.366H124.118ZM135.972 201.46L120.145 216.5L112.481 196.105C111.866 194.446 110.486 193.072 108.624 192.44L87.1619 185.158L102.989 170.118L111.384 174.81L111.401 182.993C111.417 188.822 116.305 193.451 122.423 193.451L131.034 193.482L135.972 201.46ZM204.381 174.81L212.776 170.118L228.603 185.158L207.141 192.44C205.395 193.025 203.949 194.336 203.284 196.105L195.62 216.5L179.793 201.461L184.731 193.483L193.342 193.451C199.427 193.435 204.347 188.775 204.347 182.993L204.381 174.81ZM150.382 94.1664L157.863 98.2579L165.344 94.1664C170.598 91.2913 177.33 93.0132 180.372 98.0052L184.711 105.098L193.323 105.13C199.457 105.146 204.328 109.806 204.328 115.603L204.361 123.786L211.826 127.909C217.079 130.816 218.891 137.214 215.865 142.19L211.576 149.299L215.2 155.302L244.742 183.374C248.001 186.47 246.837 191.857 242.381 193.373L214.269 202.899L204.311 229.423C202.715 233.894 196.996 234.968 193.721 231.856L164.147 203.753L157.879 200.325L151.595 203.753L122.02 231.856C118.761 234.952 113.092 233.847 111.496 229.597L101.472 202.884L73.559 193.421C68.8542 191.92 67.7072 186.47 70.9822 183.358L100.524 155.286L104.148 149.299L99.859 142.19C96.8333 137.198 98.6454 130.8 103.899 127.909L111.363 123.786L111.38 115.604C111.396 109.806 116.251 105.146 122.402 105.13L131.013 105.098L135.352 98.0055C138.411 92.9976 145.146 91.2911 150.382 94.1664ZM157.896 131.543C168.154 131.543 176.582 139.552 176.582 149.299C176.582 164.923 156.483 173.09 144.647 161.827C132.81 150.579 141.372 131.543 157.896 131.543ZM157.83 179.187C140.524 179.187 126.376 165.743 126.376 149.298C126.376 132.853 140.524 119.41 157.83 119.41C175.136 119.41 189.35 132.838 189.35 149.298C189.35 165.759 175.236 179.187 157.83 179.187ZM298.857 278.361L315.747 250.542V354.901C315.747 359.909 311.442 364 306.172 364L9.57571 363.968C4.30567 363.968 0 359.877 0 354.869V44.7208C0 39.713 4.30567 35.6216 9.57571 35.6216H88.2753V48.4964H23.2754C19.751 48.4964 16.8916 51.2136 16.8916 54.5626V340.952C16.8916 344.301 19.751 347.018 23.2754 347.018H292.51C296.035 347.018 298.894 344.301 298.894 340.952V278.332L298.857 278.361ZM276.73 282.531L245.908 265.612L243.963 300.383C243.896 301.457 245.126 302.057 246.007 301.52L276.73 282.531ZM29.6379 334.915H286.105V291.158L252.956 311.647C243.33 317.603 230.662 310.573 231.261 299.767L233.389 261.601C233.704 255.819 235.234 250.906 238.309 245.835L286.09 167.165V60.6584H224.763C220.873 67.4986 213.309 71.9852 204.813 71.9852H110.886C102.391 71.9852 94.8272 67.4986 90.9535 60.6584H29.6264V334.915H29.6379ZM361.928 150.385L323.708 129.407L249.328 251.851C249.079 252.277 248.829 252.688 248.613 253.099L286.75 274.03L287.531 272.83L361.924 150.353L361.928 150.385ZM330.075 118.933L343.608 96.6746C346.118 92.5674 351.837 91.272 355.66 93.3887L378.502 105.932C382.791 108.286 384.271 113.594 381.811 117.638L368.278 139.896L330.058 118.917L330.075 118.933ZM315.695 118.443L315.762 44.7634C315.762 39.7555 311.456 35.6641 306.186 35.6641H227.486V48.539H292.486C296.011 48.539 298.87 51.2562 298.87 54.6052V146.168L315.711 118.46L315.695 118.443ZM212.341 264.57H184.961C181.436 264.57 178.577 267.287 178.577 270.636C178.577 273.985 181.436 276.702 184.961 276.702H212.341C215.866 276.702 218.725 273.985 218.725 270.636C218.725 267.287 215.866 264.57 212.341 264.57Z" fill="#4146CE"/>
</svg>
