<svg width="331" height="360" viewBox="0 0 331 360" fill="none" xmlns="http://www.w3.org/2000/svg">
<path d="M165.5 0C74.2386 0 0 80.7429 0 180C0 279.257 74.2386 360 165.5 360C256.761 360 331 279.257 331 180C331 80.7429 256.761 0 165.5 0ZM165.5 64.2857C169.992 64.2857 174.366 64.5429 178.74 65.1857C185.242 66.0857 189.852 72.5143 189.025 79.5857C188.197 86.5286 182.405 91.5429 175.903 90.6429C172.475 90.2571 169.046 90 165.5 90C119.869 90 82.75 130.371 82.75 180C82.75 200.7 89.0154 220.114 100.955 236.186C104.974 241.843 104.147 249.814 99.0636 254.314C96.9357 256.243 94.335 257.143 91.7343 257.143C88.3061 257.143 84.8779 255.471 82.5136 252.386C67.3821 231.943 59.1071 206.229 59.1071 180C59.1071 116.229 106.866 64.2857 165.5 64.2857ZM150.014 200.314C140.557 191.957 139.138 176.786 146.822 166.5C147.768 165.343 148.832 164.057 150.014 163.157L228.035 93.7286C233.119 89.2286 240.684 90.1286 244.822 95.6571C248.368 100.414 248.25 107.229 244.822 111.986L180.986 196.843C173.302 207.129 159.471 208.671 150.014 200.314ZM239.266 257.143C236.665 257.143 234.064 256.243 231.936 254.314C226.853 249.814 226.026 241.843 230.045 236.186C241.985 220.114 248.25 200.7 248.25 180C248.25 176.143 248.014 172.414 247.541 168.686C246.831 161.743 251.324 155.314 257.825 154.414C264.445 153.514 270.238 158.529 271.065 165.6C271.538 170.229 271.893 175.114 271.893 180C271.893 206.229 263.618 231.943 248.486 252.386C246.24 255.471 242.694 257.143 239.266 257.143Z" fill="#4146CE"/>
</svg>
