<svg width="347" height="367" viewBox="0 0 347 367" fill="none" xmlns="http://www.w3.org/2000/svg">
<path d="M340.843 46.3185L176.101 0.345271C174.408 -0.11509 172.594 -0.11509 170.901 0.345271L6.1584 46.3185C2.49743 47.3466 0 50.3851 0 53.8224V143.868C0 241.817 68.4641 331.276 170.352 366.478C171.362 366.831 172.439 367 173.5 367C174.561 367 175.638 366.816 176.648 366.478C278.54 331.277 347 241.817 347 143.868V53.8224C347 50.3851 344.504 47.347 340.843 46.3185ZM329.484 143.867C329.484 234.34 266.941 317.083 173.501 350.701C80.0605 317.08 17.5174 234.356 17.5174 143.867V59.6081L173.501 16.09L329.484 59.6081V143.867ZM170.899 33.2608L41.1928 69.4595C37.5318 70.4877 35.0344 73.5261 35.0344 76.9634V143.867C35.0344 224.551 87.947 298.482 169.839 332.195C171.002 332.671 172.234 332.916 173.5 332.916C174.748 332.916 175.997 332.671 177.16 332.195C259.07 298.482 311.965 224.567 311.965 143.867V76.9634C311.965 73.5261 309.467 70.488 305.806 69.4595L176.1 33.2608C174.406 32.8004 172.593 32.8004 170.899 33.2608ZM294.448 82.7499V143.883C294.448 216.726 247.746 283.554 175.038 315.668V304.068C175.038 303.3 174.354 302.687 173.498 302.687C172.643 302.687 171.959 303.3 171.959 304.068V315.668C99.2376 283.567 52.5482 216.722 52.5482 143.883V82.7499L171.959 49.4203V63.998C171.959 64.7652 172.643 65.379 173.498 65.379C174.354 65.379 175.038 64.7652 175.038 63.998V49.4203L294.448 82.7499ZM175.038 102.56V87.5837C175.038 86.8164 174.354 86.2026 173.498 86.2026C172.643 86.2026 171.959 86.8164 171.959 87.5837V102.56H158.392C138.77 102.56 122.809 116.893 122.809 134.493V154.166C113.11 158.677 106.403 167.669 106.403 178.12V215.899C106.403 230.83 119.952 242.983 136.597 242.983H210.4C227.046 242.983 240.577 230.829 240.577 215.899V178.12C240.577 167.669 233.871 158.677 224.188 154.166V134.478C224.188 116.877 208.21 102.545 188.605 102.545H175.039L175.038 102.56ZM223.076 215.901C223.076 222.162 217.396 227.271 210.417 227.271H136.614C129.634 227.271 123.938 222.177 123.938 215.901V178.121C123.938 171.86 129.618 166.751 136.614 166.751H210.417C217.397 166.751 223.076 171.845 223.076 178.121V215.901ZM206.687 134.494V151.036H140.347V134.494C140.347 125.548 148.456 118.274 158.413 118.274H188.607C198.563 118.274 206.672 125.548 206.672 134.494H206.687ZM189.717 193.175C189.717 198.301 186.74 202.781 182.258 205.375V209.886C182.258 214.229 178.341 217.743 173.499 217.743C168.658 217.743 164.74 214.229 164.74 209.886V205.375C160.276 202.781 157.282 198.285 157.282 193.175C157.282 185.165 164.553 178.628 173.499 178.628C182.43 178.628 189.717 185.15 189.717 193.175ZM175.039 264.789V280.502C175.039 281.269 174.354 281.883 173.499 281.883C172.644 281.883 171.959 281.269 171.959 280.502V264.789C171.959 264.021 172.644 263.408 173.499 263.408C174.354 263.408 175.039 264.021 175.039 264.789Z" fill="#4146CE"/>
</svg>
