<svg width="289" height="103" viewBox="0 0 289 103" fill="none" xmlns="http://www.w3.org/2000/svg">
<path d="M98.8951 72.1676C101.111 72.1676 102.219 72.7697 102.219 73.974C102.219 74.8358 101.83 75.4988 101.053 75.9628C100.288 76.4269 98.9015 76.6589 96.8927 76.6589H90.322C90.3868 75.3993 90.4192 73.8912 90.4192 72.1344C90.4192 70.3777 90.3868 68.8695 90.322 67.6099H94.3461V67.6265H96.8733C98.0915 67.6265 99.0441 67.7149 99.731 67.8917C100.431 68.0574 100.923 68.3005 101.208 68.6209C101.494 68.9413 101.636 69.3501 101.636 69.8473C101.636 70.9633 100.722 71.7367 98.8951 72.1676ZM94.3461 69.897V71.0572H95.8235C96.4197 71.0572 96.8409 71.013 97.0871 70.9246C97.3334 70.8251 97.4565 70.6539 97.4565 70.4108C97.4565 70.223 97.3269 70.0904 97.0677 70.0131C96.8215 69.9357 96.4067 69.897 95.8235 69.897H94.3461ZM95.8235 74.3718C96.5623 74.3718 97.0677 74.3276 97.3399 74.2392C97.612 74.1398 97.7481 73.9685 97.7481 73.7254C97.7481 73.5155 97.6055 73.3608 97.3204 73.2614C97.0353 73.162 96.5363 73.1122 95.8235 73.1122H94.3461V74.3718H95.8235ZM107.52 72.1344C107.545 72.6979 107.753 73.1509 108.141 73.4934C108.543 73.8359 109.133 74.0072 109.91 74.0072C110.338 74.0072 110.72 73.9409 111.057 73.8083C111.394 73.6647 111.705 73.4547 111.99 73.1785C113.092 73.5431 114.382 73.858 115.859 74.1232C115.431 74.974 114.706 75.6369 113.682 76.112C112.671 76.5871 111.355 76.8246 109.735 76.8246C107.571 76.8246 105.971 76.3937 104.934 75.5319C103.897 74.6701 103.379 73.5376 103.379 72.1344C103.379 70.7312 103.897 69.5987 104.934 68.7369C105.971 67.8751 107.571 67.4442 109.735 67.4442C111.355 67.4442 112.671 67.6818 113.682 68.1569C114.706 68.632 115.431 69.2949 115.859 70.1456C114.706 70.3556 113.416 70.6705 111.99 71.0903C111.705 70.8141 111.394 70.6097 111.057 70.4771C110.72 70.3335 110.338 70.2617 109.91 70.2617C109.133 70.2617 108.543 70.4329 108.141 70.7754C107.753 71.1179 107.545 71.5709 107.52 72.1344ZM127.602 72.5156H121.264C121.368 73.0017 121.621 73.3995 122.023 73.7089C122.437 74.0072 123.021 74.1563 123.772 74.1563C124.317 74.1563 124.828 74.068 125.308 73.8912C125.787 73.7033 126.17 73.4437 126.455 73.1122C127.323 73.4768 128.477 73.8691 129.915 74.2889C129.513 75.0623 128.781 75.6811 127.719 76.1451C126.669 76.5981 125.295 76.8246 123.597 76.8246C121.394 76.8246 119.761 76.3937 118.698 75.5319C117.649 74.6591 117.124 73.5155 117.124 72.1013C117.124 70.7202 117.649 69.5987 118.698 68.7369C119.748 67.8751 121.381 67.4442 123.597 67.4442C124.919 67.4442 126.066 67.632 127.038 68.0077C128.01 68.3834 128.755 68.9082 129.274 69.5822C129.792 70.2451 130.051 71.0074 130.051 71.8693C130.051 72.1565 130.038 72.372 130.012 72.5156H127.602ZM123.869 69.9468C123.221 69.9468 122.69 70.0517 122.275 70.2617C121.861 70.4716 121.569 70.7588 121.401 71.1235H125.988C125.833 70.7699 125.58 70.4881 125.23 70.2782C124.88 70.0572 124.427 69.9468 123.869 69.9468ZM135.545 76.6589H131.405C131.469 75.3883 131.502 73.8801 131.502 72.1344C131.502 70.3777 131.469 68.8695 131.405 67.6099H142.33C142.317 67.9967 142.31 68.7701 142.31 69.9302V70.8251H135.545V76.6589ZM155.229 74.3055H155.813V78.7637H152.138V76.9572H145.995V78.7968H142.321V74.3055H142.963C143.403 74.2503 143.734 74.1122 143.954 73.8912C144.187 73.6702 144.369 73.3056 144.498 72.7973C144.589 72.3996 144.635 71.4494 144.635 69.9468V67.6099L155.229 67.6265V74.3055ZM147.939 73.7586C147.913 73.8801 147.862 74.0624 147.784 74.3055H151.516V70.4108H148.212V70.908C148.199 71.5488 148.179 72.0571 148.153 72.4327C148.127 72.7973 148.056 73.2393 147.939 73.7586ZM169.836 73.9077C169.836 74.2834 169.888 74.5486 169.992 74.7033C170.096 74.8579 170.303 74.9684 170.614 75.0347L170.536 76.5926C170.121 76.6478 169.759 76.6865 169.448 76.7086C169.149 76.7307 168.748 76.7418 168.242 76.7418C167.128 76.7418 166.389 76.5318 166.026 76.112C165.663 75.6811 165.482 75.1342 165.482 74.4712V74.0569C165.106 74.9629 164.555 75.6369 163.829 76.0788C163.117 76.5208 162.203 76.7418 161.088 76.7418C159.792 76.7418 158.814 76.5208 158.153 76.0788C157.505 75.6369 157.181 74.9795 157.181 74.1066C157.181 73.3885 157.46 72.825 158.017 72.4162C158.574 72.0074 159.436 71.7256 160.602 71.5709C159.617 70.9743 158.632 70.455 157.647 70.0131C158.425 69.1733 159.313 68.538 160.311 68.1071C161.309 67.6652 162.52 67.4442 163.946 67.4442C165.942 67.4442 167.419 67.8143 168.378 68.5546C169.35 69.2838 169.836 70.4108 169.836 71.9355V73.9077ZM164.354 70.3611C163.693 70.3611 163.11 70.455 162.605 70.6428C162.099 70.8307 161.646 71.1124 161.244 71.4881C162.021 71.4107 162.993 71.3721 164.16 71.3721C164.639 71.3721 164.976 71.3223 165.171 71.2229C165.365 71.1235 165.462 70.9964 165.462 70.8417C165.462 70.7091 165.365 70.5986 165.171 70.5103C164.976 70.4108 164.704 70.3611 164.354 70.3611ZM162.313 74.0403C163.039 74.0403 163.693 73.9243 164.277 73.6923C164.86 73.4492 165.261 73.1343 165.482 72.7476V72.3167C165.171 72.4493 164.827 72.5543 164.451 72.6316C164.076 72.6979 163.622 72.7642 163.091 72.8305L162.391 72.9299C161.665 73.0515 161.302 73.2614 161.302 73.5597C161.302 73.8801 161.639 74.0403 162.313 74.0403ZM187.923 67.6099C187.858 69.2894 187.826 70.7975 187.826 72.1344C187.826 73.4713 187.858 74.9795 187.923 76.6589H183.705V73.6426H179.894V76.6589H175.676C175.741 75.3993 175.773 73.8912 175.773 72.1344C175.773 70.3777 175.741 68.8695 175.676 67.6099H179.894V70.6263H183.705V67.6099H187.923ZM201.938 73.9077C201.938 74.2834 201.99 74.5486 202.094 74.7033C202.197 74.8579 202.405 74.9684 202.716 75.0347L202.638 76.5926C202.223 76.6478 201.861 76.6865 201.549 76.7086C201.251 76.7307 200.85 76.7418 200.344 76.7418C199.23 76.7418 198.491 76.5318 198.128 76.112C197.765 75.6811 197.584 75.1342 197.584 74.4712V74.0569C197.208 74.9629 196.657 75.6369 195.931 76.0788C195.219 76.5208 194.305 76.7418 193.19 76.7418C191.894 76.7418 190.916 76.5208 190.255 76.0788C189.607 75.6369 189.283 74.9795 189.283 74.1066C189.283 73.3885 189.561 72.825 190.119 72.4162C190.676 72.0074 191.538 71.7256 192.704 71.5709C191.719 70.9743 190.734 70.455 189.749 70.0131C190.527 69.1733 191.415 68.538 192.413 68.1071C193.411 67.6652 194.622 67.4442 196.048 67.4442C198.044 67.4442 199.521 67.8143 200.48 68.5546C201.452 69.2838 201.938 70.4108 201.938 71.9355V73.9077ZM196.456 70.3611C195.795 70.3611 195.212 70.455 194.707 70.6428C194.201 70.8307 193.748 71.1124 193.346 71.4881C194.123 71.4107 195.095 71.3721 196.262 71.3721C196.741 71.3721 197.078 71.3223 197.273 71.2229C197.467 71.1235 197.564 70.9964 197.564 70.8417C197.564 70.7091 197.467 70.5986 197.273 70.5103C197.078 70.4108 196.806 70.3611 196.456 70.3611ZM194.415 74.0403C195.141 74.0403 195.795 73.9243 196.378 73.6923C196.962 73.4492 197.363 73.1343 197.584 72.7476V72.3167C197.273 72.4493 196.929 72.5543 196.553 72.6316C196.178 72.6979 195.724 72.7642 195.193 72.8305L194.493 72.9299C193.767 73.0515 193.404 73.2614 193.404 73.5597C193.404 73.8801 193.741 74.0403 194.415 74.0403ZM211.724 72.1344C211.75 72.6979 211.957 73.1509 212.346 73.4934C212.748 73.8359 213.338 74.0072 214.115 74.0072C214.543 74.0072 214.925 73.9409 215.262 73.8083C215.599 73.6647 215.91 73.4547 216.195 73.1785C217.297 73.5431 218.586 73.858 220.064 74.1232C219.636 74.974 218.91 75.6369 217.887 76.112C216.876 76.5871 215.56 76.8246 213.94 76.8246C211.776 76.8246 210.175 76.3937 209.139 75.5319C208.102 74.6701 207.583 73.5376 207.583 72.1344C207.583 70.7312 208.102 69.5987 209.139 68.7369C210.175 67.8751 211.776 67.4442 213.94 67.4442C215.56 67.4442 216.876 67.6818 217.887 68.1569C218.91 68.632 219.636 69.2949 220.064 70.1456C218.91 70.3556 217.621 70.6705 216.195 71.0903C215.91 70.8141 215.599 70.6097 215.262 70.4771C214.925 70.3335 214.543 70.2617 214.115 70.2617C213.338 70.2617 212.748 70.4329 212.346 70.7754C211.957 71.1179 211.75 71.5709 211.724 72.1344ZM230.096 72.1676C232.312 72.1676 233.42 72.7697 233.42 73.974C233.42 74.8358 233.031 75.4988 232.254 75.9628C231.489 76.4269 230.103 76.6589 228.094 76.6589H221.523C221.588 75.3993 221.62 73.8912 221.62 72.1344C221.62 70.3777 221.588 68.8695 221.523 67.6099H225.547V67.6265H228.074C229.293 67.6265 230.245 67.7149 230.932 67.8917C231.632 68.0574 232.124 68.3005 232.409 68.6209C232.695 68.9413 232.837 69.3501 232.837 69.8473C232.837 70.9633 231.923 71.7367 230.096 72.1676ZM225.547 69.897V71.0572H227.025C227.621 71.0572 228.042 71.013 228.288 70.9246C228.534 70.8251 228.657 70.6539 228.657 70.4108C228.657 70.223 228.528 70.0904 228.269 70.0131C228.022 69.9357 227.608 69.897 227.025 69.897H225.547ZM227.025 74.3718C227.763 74.3718 228.269 74.3276 228.541 74.2392C228.813 74.1398 228.949 73.9685 228.949 73.7254C228.949 73.5155 228.807 73.3608 228.521 73.2614C228.236 73.162 227.737 73.1122 227.025 73.1122H225.547V74.3718H227.025ZM246.691 67.6099C246.627 69.2894 246.594 70.7975 246.594 72.1344C246.594 73.4713 246.627 74.9795 246.691 76.6589H242.862V73.7752H241.287C240.393 74.9795 239.719 75.9407 239.265 76.6589H234.697C235.734 75.4546 236.608 74.416 237.321 73.5431C236.323 73.3222 235.617 72.9631 235.202 72.4659C234.788 71.9687 234.58 71.3555 234.58 70.6263C234.58 69.7092 234.969 68.98 235.747 68.4386C236.524 67.8972 237.898 67.6265 239.868 67.6265H242.862V67.6099H246.691ZM242.862 71.4383V70.0131H241.112C240.166 70.0131 239.524 70.0628 239.188 70.1622C238.864 70.2616 238.701 70.444 238.701 70.7091C238.701 70.9853 238.87 71.1787 239.207 71.2892C239.557 71.3886 240.192 71.4383 241.112 71.4383H242.862ZM256.787 72.0184C256.917 72.0074 257.098 72.0018 257.331 72.0018C258.2 72.0018 258.835 72.1731 259.237 72.5156C259.651 72.8581 259.859 73.2614 259.859 73.7254C259.859 74.7088 259.334 75.4712 258.284 76.0125C257.234 76.5539 255.886 76.8246 254.241 76.8246C252.802 76.8246 251.532 76.6147 250.43 76.1948C249.342 75.775 248.551 75.0679 248.059 74.0735L248.895 73.8912C250.1 73.6371 250.994 73.394 251.577 73.162C251.785 73.5045 252.076 73.7696 252.452 73.9575C252.828 74.1342 253.327 74.2226 253.949 74.2226C254.649 74.2226 255.18 74.1674 255.543 74.0569C255.919 73.9464 256.107 73.7641 256.107 73.51C256.107 73.3111 255.899 73.173 255.485 73.0957C255.07 73.0183 254.474 72.9797 253.696 72.9797H252.588V70.792H253.249C253.962 70.792 254.532 70.7644 254.96 70.7091C255.387 70.6539 255.601 70.5323 255.601 70.3445C255.601 70.1567 255.478 70.0075 255.232 69.897C254.986 69.7866 254.655 69.7313 254.241 69.7313C253.567 69.7313 253.035 69.8363 252.646 70.0462C252.271 70.2561 251.914 70.5986 251.577 71.0737C250.553 70.7091 249.432 70.4495 248.214 70.2948C249.212 68.4055 251.286 67.4608 254.435 67.4608C255.355 67.4608 256.197 67.5768 256.962 67.8088C257.727 68.0298 258.329 68.3392 258.77 68.7369C259.211 69.1236 259.431 69.5601 259.431 70.0462C259.431 71.1069 258.55 71.7643 256.787 72.0184ZM273.389 67.6099C273.324 69.212 273.292 70.6594 273.292 71.9521C273.292 73.2227 273.324 74.6701 273.389 76.2943H269.404L269.618 70.56L266.643 76.2943H261.219C261.297 74.8358 261.336 73.3885 261.336 71.9521C261.336 70.4937 261.297 69.0463 261.219 67.6099H265.049L264.855 73.4934L267.829 67.6099H273.389ZM276.811 76.8246C276.241 76.8246 275.755 76.6534 275.353 76.3109C274.952 75.9573 274.751 75.5374 274.751 75.0513C274.751 74.5652 274.952 74.1508 275.353 73.8083C275.755 73.4658 276.241 73.2945 276.811 73.2945C277.369 73.2945 277.848 73.4713 278.25 73.8249C278.665 74.1674 278.872 74.5762 278.872 75.0513C278.872 75.5374 278.665 75.9573 278.25 76.3109C277.848 76.6534 277.369 76.8246 276.811 76.8246Z" fill="white"/>
<path d="M111.668 53.3136H98.9924C99.1997 54.2858 99.7052 55.0814 100.509 55.7001C101.338 56.2967 102.505 56.595 104.008 56.595C105.097 56.595 106.12 56.4183 107.079 56.0647C108.039 55.689 108.804 55.1698 109.374 54.5068C111.11 55.236 113.417 56.0205 116.294 56.8602C115.491 58.407 114.026 59.6445 111.901 60.5726C109.801 61.4786 107.053 61.9316 103.658 61.9316C99.2516 61.9316 95.9857 61.0698 93.8602 59.3462C91.7607 57.6005 90.7109 55.3134 90.7109 52.4849C90.7109 49.7227 91.7607 47.4798 93.8602 45.7562C95.9597 44.0326 99.2257 43.1708 103.658 43.1708C106.302 43.1708 108.596 43.5464 110.54 44.2978C112.484 45.0491 113.975 46.0987 115.011 47.4467C116.048 48.7725 116.567 50.2972 116.567 52.0208C116.567 52.5954 116.541 53.0263 116.489 53.3136H111.668ZM104.202 48.1759C102.906 48.1759 101.844 48.3858 101.014 48.8057C100.185 49.2255 99.6015 49.8 99.2645 50.5293H108.441C108.13 49.8221 107.624 49.2587 106.924 48.8388C106.224 48.3968 105.317 48.1759 104.202 48.1759ZM143.495 61.7659H134.981V49.7669H129.46L129.421 50.7944C129.395 51.8551 129.343 52.7943 129.265 53.6119C129.213 54.4074 129.084 55.2692 128.876 56.1973C127.995 60.2411 124.405 62.2631 118.107 62.2631V56.9928C119.325 56.8602 120.154 56.5398 120.595 56.0316C121.036 55.5012 121.256 54.6836 121.256 53.5787V43.5022L143.495 43.5354V61.7659ZM167.178 53.3136H154.503C154.71 54.2858 155.215 55.0814 156.019 55.7001C156.848 56.2967 158.015 56.595 159.518 56.595C160.607 56.595 161.631 56.4183 162.59 56.0647C163.549 55.689 164.313 55.1698 164.884 54.5068C166.62 55.236 168.927 56.0205 171.804 56.8602C171.001 58.407 169.536 59.6445 167.411 60.5726C165.311 61.4786 162.564 61.9316 159.168 61.9316C154.762 61.9316 151.496 61.0698 149.37 59.3462C147.271 57.6005 146.221 55.3134 146.221 52.4849C146.221 49.7227 147.271 47.4798 149.37 45.7562C151.47 44.0326 154.736 43.1708 159.168 43.1708C161.812 43.1708 164.106 43.5464 166.05 44.2978C167.994 45.0491 169.484 46.0987 170.521 47.4467C171.558 48.7725 172.076 50.2972 172.076 52.0208C172.076 52.5954 172.05 53.0263 171.999 53.3136H167.178ZM159.713 48.1759C158.417 48.1759 157.354 48.3858 156.524 48.8057C155.695 49.2255 155.112 49.8 154.775 50.5293H163.95C163.639 49.8221 163.134 49.2587 162.434 48.8388C161.734 48.3968 160.827 48.1759 159.713 48.1759ZM194.651 52.9489C195.817 53.7445 196.711 54.6394 197.333 55.6338C197.955 56.6282 198.539 57.8215 199.083 59.2136C199.627 60.429 200.016 61.2245 200.249 61.6001H190.879C190.801 61.4455 190.646 60.9593 190.413 60.1417C190.205 59.3241 189.998 58.6722 189.791 58.1861C189.583 57.6778 189.272 57.2359 188.857 56.8602C188.209 56.2636 187.484 55.8769 186.68 55.7001C185.877 55.5233 184.684 55.4349 183.103 55.4349V61.6001H174.783C174.912 59.081 174.977 56.0647 174.977 52.5512C174.977 49.0377 174.912 46.0214 174.783 43.5022H183.103V49.9989H183.259C186.343 47.3693 188.585 45.2037 189.985 43.5022H200.249L191.151 51.2253C192.499 51.7115 193.666 52.286 194.651 52.9489ZM214.336 61.9316C209.903 61.9316 206.637 61.0698 204.538 59.3462C202.464 57.6005 201.428 55.3134 201.428 52.4849C201.428 49.7227 202.464 47.4798 204.538 45.7562C206.637 44.0326 209.903 43.1708 214.336 43.1708C217.317 43.1708 219.805 43.5906 221.801 44.4303C223.822 45.2479 225.313 46.3639 226.272 47.7781C227.231 49.1703 227.71 50.7392 227.71 52.4849C227.71 55.3355 226.596 57.6226 224.367 59.3462C222.164 61.0698 218.82 61.9316 214.336 61.9316ZM214.491 56.2967C216.176 56.2967 217.433 55.9542 218.263 55.2692C219.092 54.5842 219.507 53.6671 219.507 52.518C219.507 51.4353 219.092 50.5514 218.263 49.8663C217.433 49.1592 216.176 48.8057 214.491 48.8057C212.806 48.8057 211.575 49.1482 210.798 49.8332C210.02 50.5182 209.631 51.4132 209.631 52.518C209.631 53.6671 210.02 54.5842 210.798 55.2692C211.575 55.9542 212.806 56.2967 214.491 56.2967ZM260.11 43.5022L261.588 61.6001H254.045L253.579 48.6399L250.624 61.6001H241.409L238.415 48.8057L237.988 61.6001H230.445L231.922 43.5022H243.431L245.958 55.3355L248.213 43.5022H260.11ZM268.425 61.9316C267.285 61.9316 266.313 61.5891 265.509 60.9041C264.706 60.1969 264.304 59.3572 264.304 58.3849C264.304 57.4127 264.706 56.584 265.509 55.899C266.313 55.2139 267.285 54.8714 268.425 54.8714C269.54 54.8714 270.499 55.225 271.302 55.9321C272.132 56.6171 272.547 57.4347 272.547 58.3849C272.547 59.3572 272.132 60.1969 271.302 60.9041C270.499 61.5891 269.54 61.9316 268.425 61.9316Z" fill="white"/>
<path d="M75.4494 20.8655H62.9397V93.1505H75.4494V20.8655Z" fill="white"/>
<path d="M22.1186 75.0793H9.60889V93.1504H22.1186V75.0793Z" fill="white"/>
<path d="M39.8955 57.0081H27.3857V93.1504H39.8955V57.0081Z" fill="white"/>
<path d="M89.9093 10.0316H48.0886V20.8442H89.9093V10.0316Z" fill="white"/>
<path d="M57.6726 38.9368H45.1628V93.1505H57.6726V38.9368Z" fill="white"/>
</svg>
