<svg width="38" height="34" viewBox="0 0 38 34" fill="none" xmlns="http://www.w3.org/2000/svg">
<path d="M33.4317 4.14072C33.6643 3.41153 32.5226 2.71131 30.6991 2.1225C28.8986 1.53801 26.5176 1.18209 24.6036 0.978126C20.2499 0.500681 15.7986 0.593274 11.4768 1.24867C9.32656 1.5713 7.17279 2.04874 5.13997 2.626L4.39424 2.83289C4.1936 2.88787 3.77102 2.99927 3.44433 3.1396C2.7572 3.41014 2.14815 3.80656 1.64924 4.27675C1.15388 4.74693 0.775652 5.30249 0.544834 5.89134C0.436525 6.18793 0.34952 6.49175 0.312234 6.79845C0.2856 6.95036 0.2856 7.10516 0.280273 7.26142V7.59851L0.367278 17.8763L0.376156 19.161V19.802C0.381483 20.0204 0.376156 20.2172 0.393912 20.4718C0.425872 21.4455 0.612307 22.4206 0.956775 23.3537C1.64391 25.2244 2.9525 26.9359 4.71564 28.2537C5.63359 28.9467 6.67055 29.5312 7.78914 29.987L10.7384 31.1907L13.6876 32.39L15.1595 32.9904C15.7224 33.2277 16.3954 33.4346 17.0416 33.5605C18.3555 33.8238 19.7636 33.8194 21.0775 33.5532C21.4042 33.4867 21.7327 33.4057 22.0505 33.3044C22.2103 33.2567 22.3683 33.2002 22.5228 33.1453C22.6773 33.0903 22.846 33.0237 22.9543 32.9745L24.4262 32.3741L30.3299 29.9667C32.5564 29.0553 34.4758 27.6186 35.7612 25.8667C36.4076 24.9929 36.8976 24.0438 37.2207 23.06C37.5439 22.0863 37.6842 21.0345 37.6806 20.0638L37.6717 9.31861C37.6717 8.72979 37.6984 8.06716 37.7126 7.40742V7.27432V7.09637C37.7126 6.97773 37.6984 6.86344 37.6806 6.7448C37.6486 6.51187 37.5936 6.28184 37.5119 6.0634C37.3575 5.62214 37.1124 5.21558 36.8123 4.87125C36.2175 4.17825 35.4132 3.76736 34.7757 3.64873C34.1294 3.52286 33.6713 3.66754 33.5027 3.97136C33.3109 4.31279 33.4618 4.60502 33.6891 4.89006C33.9217 5.1823 34.252 5.48324 34.5396 5.86806C34.8219 6.24998 35.0439 6.72021 35.0811 7.21643L35.09 7.30902V7.43055L35.0989 7.67505C35.1042 7.83854 35.1078 7.99768 35.1131 8.1525C35.122 8.46789 35.1273 8.76738 35.122 9.0495L35.0634 19.5573V20.2126L35.0367 20.8159L34.9586 21.4163C34.9231 21.616 34.8716 21.8128 34.8361 22.0095C34.6355 22.7951 34.3087 23.5576 33.8542 24.2694C32.954 25.6915 31.5584 26.9025 29.8716 27.7329C29.449 27.9369 29.0176 28.1221 28.5221 28.3218L27.0804 28.9106L24.1986 30.0882L22.7569 30.6771L22.0342 30.9736L21.6756 31.1212C21.5673 31.1661 21.4661 31.2022 21.3613 31.2398C20.5197 31.5364 19.5839 31.6739 18.6695 31.6247C18.2097 31.603 17.7551 31.5321 17.3148 31.425C16.8549 31.3136 16.4962 31.169 15.9866 30.9577L13.0995 29.783L10.2178 28.6082C9.74548 28.4114 9.23589 28.2161 8.79557 28.0237C8.35878 27.8385 7.94152 27.6273 7.53671 27.3944C5.93162 26.4641 4.65498 25.1649 3.89148 23.6862C3.50973 22.9498 3.25048 22.1671 3.12798 21.3757C3.1049 21.1761 3.07294 20.9793 3.06051 20.7797L3.04275 20.1764L3.05163 18.8613L3.17414 8.35793L3.18302 7.70256V7.3727C3.1919 7.2613 3.20078 7.20921 3.2061 7.12386C3.25227 6.82004 3.35525 6.52056 3.54701 6.2616C3.72812 5.99828 3.97848 5.76537 4.27856 5.58741C4.42415 5.49482 4.58396 5.42103 4.75087 5.35738C4.92843 5.29083 5.05628 5.26044 5.34569 5.18377C6.3826 4.91756 7.37338 4.66147 8.37838 4.45458C9.38333 4.24336 10.4007 4.0654 11.4235 3.92073C15.5144 3.34636 19.7012 3.32466 23.7603 3.85707C25.6601 4.09723 27.9293 4.54285 29.7653 4.79455C31.5835 5.0434 33.1389 5.04629 33.4247 4.13918L33.4317 4.14072Z" fill="black"/>
<path d="M26.5001 20.9304C26.4361 21.4194 26.1414 21.8751 25.7099 22.2194C25.4152 22.4495 24.95 22.5782 24.6002 22.7272C24.2593 22.8936 23.9362 23.1352 23.8829 23.8239C23.8598 24.1942 23.9646 24.4388 24.2007 24.5979C24.3197 24.6789 24.4599 24.731 24.6286 24.757C24.7973 24.786 24.9837 24.7946 25.1737 24.7715C25.5697 24.7425 25.9833 24.5935 26.3651 24.4228C26.738 24.2333 27.0789 24.0192 27.3523 23.8152C28.2295 23.2047 28.8385 22.3294 29.0427 21.3933C29.0978 21.1604 29.1208 20.9231 29.1297 20.6858L29.1386 20.1013L29.1475 18.9425V18.3609V18.0715C29.1475 17.9717 29.1475 17.8864 29.1421 17.7561C29.1333 17.2787 29.0143 16.8042 28.8066 16.3557C28.3929 15.4587 27.6027 14.6847 26.5924 14.2C26.1645 13.9931 25.6975 13.834 25.2146 13.7298C25.2057 13.5707 25.1596 13.4072 25.1684 13.2741L25.2093 12.2411L25.2235 11.7261V11.4671L25.2182 11.1676C25.1826 10.3488 24.8773 9.53422 24.3446 8.83833C23.313 7.4234 21.3723 6.49748 19.3623 6.42659C17.3577 6.31953 15.3033 7.05592 13.9896 8.35222C13.3219 8.99314 12.8266 9.77436 12.5709 10.6265C12.4981 10.8377 12.4573 11.0562 12.4164 11.2747L12.317 11.8259C12.2531 12.1702 12.1856 12.5117 12.1075 12.856C12.0293 13.1931 11.9477 13.6083 12.2158 13.9265C11.9885 14.0047 11.7612 14.09 11.5481 14.1899C10.5307 14.6644 9.72464 15.4312 9.28959 16.3238C9.06765 16.768 8.93981 17.2454 8.91317 17.7272C8.89897 17.8574 8.89897 17.9529 8.89897 18.0455V18.3348L8.87589 18.9164L8.84393 20.0753L8.82617 20.6569C8.82617 20.897 8.83505 21.1459 8.88477 21.3861C9.17951 23.3565 11.2942 25.0608 13.8261 25.2531L14.2807 25.282L14.6358 25.2965L15.3442 25.3298L16.7665 25.4036L19.6127 25.5743C21.3812 25.6929 23.9487 25.8332 23.8901 23.9814C23.8439 22.4623 21.4167 22.633 19.785 22.6258C17.9313 22.6185 16.0669 22.6258 14.2222 22.6402C13.1587 22.6663 12.0951 22.0514 11.8004 21.1804C11.7542 21.0763 11.7418 20.9663 11.7134 20.8549L11.6992 20.6842C11.6938 20.6625 11.6938 20.6133 11.6938 20.5656V20.4252L11.6477 18.1596V17.8746V17.701C11.6619 17.5867 11.6708 17.4709 11.7063 17.3595C11.8199 16.9081 12.1519 16.4973 12.5887 16.1964C13.0344 15.8998 13.5973 15.7334 14.1743 15.7218H19.9643H22.878H23.6061H23.7872H23.9363L24.1636 15.7291C24.4636 15.7551 24.7549 15.826 25.0229 15.9287C25.5645 16.1356 26.0226 16.506 26.2729 16.9516C26.4008 17.1744 26.4825 17.4073 26.518 17.6518L26.5268 17.837C26.5322 17.8963 26.5268 18.0222 26.5268 18.1148V18.7079V19.8928V20.486V20.6336L26.518 20.7334C26.5091 20.7927 26.518 20.8593 26.5002 20.9186L26.5001 20.9304ZM22.569 13.5967H20.488L15.6835 13.6039C15.7332 13.3739 15.7101 13.1294 15.7101 12.9181V11.9111L15.7048 11.4193C15.719 11.3122 15.6995 11.2008 15.7225 11.0937C15.7776 10.6597 15.9356 10.2315 16.2268 9.8524C16.5216 9.47481 16.9228 9.14059 17.404 8.91199C17.8905 8.6863 18.4445 8.55609 19.018 8.54886C19.6181 8.54886 20.2005 8.67038 20.7279 8.89319C21.241 9.13045 21.7009 9.4603 22.024 9.86685C22.3383 10.2749 22.5567 10.7378 22.5869 11.2225L22.6011 11.4033C22.61 11.4511 22.6011 11.5697 22.6011 11.6478V12.1745L22.6064 13.2306C22.6064 13.3449 22.5798 13.4708 22.5656 13.601L22.569 13.5967Z" fill="black"/>
</svg>
