<svg width="408" height="431" viewBox="0 0 408 431" fill="none" xmlns="http://www.w3.org/2000/svg">
<g clip-path="url(#clip0_505_839)">
<path d="M96.4363 174.979H87.4727V204.08H96.4363V174.979Z" fill="black"/>
<path d="M111.891 174.979H102.928V204.08H111.891V174.979Z" fill="black"/>
<path d="M127.345 174.979H118.382V204.08H127.345V174.979Z" fill="black"/>
<path d="M143.109 174.979H134.146V204.08H143.109V174.979Z" fill="black"/>
<path d="M158.563 174.979H148.981V204.08H158.563V174.979Z" fill="black"/>
<path d="M174.018 174.979H164.437V204.08H174.018V174.979Z" fill="black"/>
<path d="M189.164 174.979H180.2V204.08H189.164V174.979Z" fill="black"/>
<path d="M204.618 174.979H195.654V204.08H204.618V174.979Z" fill="black"/>
<path d="M220.073 174.979H211.109V204.08H220.073V174.979Z" fill="black"/>
<path d="M235.837 174.979H226.873V204.08H235.837V174.979Z" fill="black"/>
<path d="M251.291 174.979H241.709V204.08H251.291V174.979Z" fill="black"/>
<path d="M266.746 174.979H257.164V204.08H266.746V174.979Z" fill="black"/>
<path d="M281.891 174.979H272.928V204.08H281.891V174.979Z" fill="black"/>
<path d="M297.346 174.979H288.382V204.08H297.346V174.979Z" fill="black"/>
<path d="M312.8 174.979H303.836V204.08H312.8V174.979Z" fill="black"/>
<path d="M328.563 174.979H319.6V204.08H328.563V174.979Z" fill="black"/>
<path d="M96.4363 207.396H87.4727V218.815H96.4363V207.396Z" fill="black"/>
<path d="M111.891 207.396H102.928V218.815H111.891V207.396Z" fill="black"/>
<path d="M127.345 207.396H118.382V218.815H127.345V207.396Z" fill="black"/>
<path d="M143.109 207.396H134.146V218.815H143.109V207.396Z" fill="black"/>
<path d="M148.981 207.396H158.563V219.184H148.981V207.396Z" fill="black"/>
<path d="M164.437 207.764L174.018 207.396V219.184H164.437V207.764Z" fill="black"/>
<path d="M189.164 207.396H180.2V218.815H189.164V207.396Z" fill="black"/>
<path d="M204.618 207.396H195.654V218.815H204.618V207.396Z" fill="black"/>
<path d="M220.073 207.396H211.109V218.815H220.073V207.396Z" fill="black"/>
<path d="M235.837 207.396H226.873V218.815H235.837V207.396Z" fill="black"/>
<path d="M241.709 207.396L251.291 207.764V219.184H241.709V207.396Z" fill="black"/>
<path d="M257.164 207.764L266.746 207.396V219.184H257.164V207.764Z" fill="black"/>
<path d="M281.891 207.396H272.928V218.815H281.891V207.396Z" fill="black"/>
<path d="M297.346 207.396H288.382V218.815H297.346V207.396Z" fill="black"/>
<path d="M312.8 207.396H303.836V218.815H312.8V207.396Z" fill="black"/>
<path d="M328.563 207.396H319.6V218.815H328.563V207.396Z" fill="black"/>
<path d="M117.454 152.139H109.418V156.191H117.454V152.139Z" fill="black"/>
<path d="M130.128 152.139H121.164V156.191H130.128V152.139Z" fill="black"/>
<path d="M142.8 152.139H133.836V156.191H142.8V152.139Z" fill="black"/>
<path d="M154.545 152.139H146.509V156.191H154.545V152.139Z" fill="black"/>
<path d="M216.982 152.139H208.019V156.191H216.982V152.139Z" fill="black"/>
<path d="M204.309 152.139H195.346V156.191H204.309V152.139Z" fill="black"/>
<path d="M191.636 152.139H183.6V156.191H191.636V152.139Z" fill="black"/>
<path d="M167.219 152.139H158.255V156.191H167.219V152.139Z" fill="black"/>
<path d="M179.891 152.139H170.928V156.191H179.891V152.139Z" fill="black"/>
<path d="M291.164 152.139H282.2V156.191H291.164V152.139Z" fill="black"/>
<path d="M278.491 152.139H269.527V156.191H278.491V152.139Z" fill="black"/>
<path d="M265.819 152.139H257.782V156.191H265.819V152.139Z" fill="black"/>
<path d="M254.073 152.139H245.109V156.191H254.073V152.139Z" fill="black"/>
<path d="M241.4 152.139H232.437V156.191H241.4V152.139Z" fill="black"/>
<path d="M229.037 152.139H220.691V156.191H229.037V152.139Z" fill="black"/>
<path d="M117.454 138.141H109.418V146.245H117.454V138.141Z" fill="black"/>
<path d="M302.909 152.139H294.873V156.191H302.909V152.139Z" fill="black"/>
<path d="M130.128 138.141H121.164V146.245H130.128V138.141Z" fill="black"/>
<path d="M142.8 138.141H133.836V146.245H142.8V138.141Z" fill="black"/>
<path d="M154.854 138.141H146.509V146.245H154.854V138.141Z" fill="black"/>
<path d="M167.219 138.141H158.255V146.245H167.219V138.141Z" fill="black"/>
<path d="M179.891 138.141H170.928V146.245H179.891V138.141Z" fill="black"/>
<path d="M191.636 138.141H183.6V146.245H191.636V138.141Z" fill="black"/>
<path d="M204.309 138.141H195.346V146.245H204.309V138.141Z" fill="black"/>
<path d="M265.819 138.141H257.782V146.245H265.819V138.141Z" fill="black"/>
<path d="M254.073 138.141H245.109V146.245H254.073V138.141Z" fill="black"/>
<path d="M241.4 138.141H232.437V146.245H241.4V138.141Z" fill="black"/>
<path d="M229.037 138.141H220.691V146.245H229.037V138.141Z" fill="black"/>
<path d="M216.982 138.141H208.019V146.245H216.982V138.141Z" fill="black"/>
<path d="M302.909 138.141H294.873V146.245H302.909V138.141Z" fill="black"/>
<path d="M291.164 138.141H282.2V146.245H291.164V138.141Z" fill="black"/>
<path d="M278.491 138.141H269.527V146.245H278.491V138.141Z" fill="black"/>
<path d="M117.454 123.038H109.418V131.142H117.454V123.038Z" fill="black"/>
<path d="M130.128 123.038H121.164V131.142H130.128V123.038Z" fill="black"/>
<path d="M142.8 123.038H133.836V131.142H142.8V123.038Z" fill="black"/>
<path d="M154.854 123.038H146.509V131.142H154.854V123.038Z" fill="black"/>
<path d="M167.219 123.038H158.255V131.142H167.219V123.038Z" fill="black"/>
<path d="M179.891 123.038H170.928V131.142H179.891V123.038Z" fill="black"/>
<path d="M191.636 123.038H183.6V131.142H191.636V123.038Z" fill="black"/>
<path d="M204.309 123.038H195.346V131.142H204.309V123.038Z" fill="black"/>
<path d="M265.819 123.038H257.782V131.142H265.819V123.038Z" fill="black"/>
<path d="M254.073 123.038H245.109V131.142H254.073V123.038Z" fill="black"/>
<path d="M241.4 123.038H232.437V131.142H241.4V123.038Z" fill="black"/>
<path d="M229.037 123.038H220.691V131.142H229.037V123.038Z" fill="black"/>
<path d="M216.982 123.038H208.019V131.142H216.982V123.038Z" fill="black"/>
<path d="M302.909 123.038H294.873V131.142H302.909V123.038Z" fill="black"/>
<path d="M291.164 123.038H282.2V131.142H291.164V123.038Z" fill="black"/>
<path d="M278.491 123.038H269.527V131.142H278.491V123.038Z" fill="black"/>
<path d="M117.454 108.671H109.418V116.775H117.454V108.671Z" fill="black"/>
<path d="M130.128 108.671H121.164V116.775H130.128V108.671Z" fill="black"/>
<path d="M142.8 108.671H133.836V116.775H142.8V108.671Z" fill="black"/>
<path d="M154.854 108.671H146.509V116.775H154.854V108.671Z" fill="black"/>
<path d="M167.219 108.671H158.255V116.775H167.219V108.671Z" fill="black"/>
<path d="M179.891 108.671H170.928V116.775H179.891V108.671Z" fill="black"/>
<path d="M191.636 108.671H183.6V116.775H191.636V108.671Z" fill="black"/>
<path d="M204.309 108.671H195.346V116.775H204.309V108.671Z" fill="black"/>
<path d="M265.819 108.671H257.782V116.775H265.819V108.671Z" fill="black"/>
<path d="M254.073 108.671H245.109V116.775H254.073V108.671Z" fill="black"/>
<path d="M241.4 108.671H232.437V116.775H241.4V108.671Z" fill="black"/>
<path d="M229.037 108.671H220.691V116.775H229.037V108.671Z" fill="black"/>
<path d="M216.982 108.671H208.019V116.775H216.982V108.671Z" fill="black"/>
<path d="M302.909 108.671H294.873V116.775H302.909V108.671Z" fill="black"/>
<path d="M291.164 108.671H282.2V116.775H291.164V108.671Z" fill="black"/>
<path d="M278.491 108.671H269.527V116.775H278.491V108.671Z" fill="black"/>
<path d="M117.454 93.936H109.418V102.04H117.454V93.936Z" fill="black"/>
<path d="M130.128 93.936H121.164V102.04H130.128V93.936Z" fill="black"/>
<path d="M142.8 93.936H133.836V102.04H142.8V93.936Z" fill="black"/>
<path d="M154.854 93.936H146.509V102.04H154.854V93.936Z" fill="black"/>
<path d="M167.219 93.936H158.255V102.04H167.219V93.936Z" fill="black"/>
<path d="M179.891 93.936H170.928V102.04H179.891V93.936Z" fill="black"/>
<path d="M191.636 93.936H183.6V102.04H191.636V93.936Z" fill="black"/>
<path d="M204.309 93.936H195.346V102.04H204.309V93.936Z" fill="black"/>
<path d="M265.819 93.936H257.782V102.04H265.819V93.936Z" fill="black"/>
<path d="M254.073 93.936H245.109V102.04H254.073V93.936Z" fill="black"/>
<path d="M241.4 93.936H232.437V102.04H241.4V93.936Z" fill="black"/>
<path d="M229.037 93.936H220.691V102.04H229.037V93.936Z" fill="black"/>
<path d="M216.982 93.936H208.019V102.04H216.982V93.936Z" fill="black"/>
<path d="M302.909 93.936H294.873V102.04H302.909V93.936Z" fill="black"/>
<path d="M291.164 93.936H282.2V102.04H291.164V93.936Z" fill="black"/>
<path d="M278.491 93.936H269.527V102.04H278.491V93.936Z" fill="black"/>
<path d="M117.454 78.8325H109.418V86.9368H117.454V78.8325Z" fill="black"/>
<path d="M130.128 78.8325H121.164V86.9368H130.128V78.8325Z" fill="black"/>
<path d="M142.8 78.8325H133.836V86.9368H142.8V78.8325Z" fill="black"/>
<path d="M154.854 78.8325H146.509V86.9368H154.854V78.8325Z" fill="black"/>
<path d="M167.219 78.8325H158.255V86.9368H167.219V78.8325Z" fill="black"/>
<path d="M179.891 78.8325H170.928V86.9368H179.891V78.8325Z" fill="black"/>
<path d="M191.636 78.8325H183.6V86.9368H191.636V78.8325Z" fill="black"/>
<path d="M204.309 78.8325H195.346V86.9368H204.309V78.8325Z" fill="black"/>
<path d="M265.819 78.8325H257.782V86.9368H265.819V78.8325Z" fill="black"/>
<path d="M254.073 78.8325H245.109V86.9368H254.073V78.8325Z" fill="black"/>
<path d="M241.4 78.8325H232.437V86.9368H241.4V78.8325Z" fill="black"/>
<path d="M229.037 78.8325H220.691V86.9368H229.037V78.8325Z" fill="black"/>
<path d="M216.982 78.8325H208.019V86.9368H216.982V78.8325Z" fill="black"/>
<path d="M302.909 78.8325H294.873V86.9368H302.909V78.8325Z" fill="black"/>
<path d="M291.164 78.8325H282.2V86.9368H291.164V78.8325Z" fill="black"/>
<path d="M278.491 78.8325H269.527V86.9368H278.491V78.8325Z" fill="black"/>
<path d="M393.473 222.499V152.508H389.764V155.823H378.018V152.139H359.473V155.823H346.8V152.508H344.018V159.507L334.436 166.506H312.8V74.412H315.891V52.3094H312.8V48.6256H272.618V44.9419H263.036V48.6256H211.109V26.5231H204.309V11.4196H219.764V0H201.218V27.2598H195.345V49.3624H142.8V45.6786H133.218V49.3624H99.8363L96.7454 53.0461V76.2538H99.8363V61.1504H102.618V72.5701H105.709V61.1504H108.8V72.5701H112.509V61.1504H114.673V72.5701H118.382V61.1504H120.545V72.5701H124.254V61.1504H127.345V72.5701H131.055V61.1504H133.218V72.5701H136.927V61.1504H139.091V72.5701H142.8V61.1504H145.891V72.5701H149.6V61.1504H151.764V72.5701H155.473V61.1504H157.636V72.5701H161.345V61.1504H164.436V72.5701H168.145V61.1504H170.309V72.5701H174.018V61.1504H176.182V72.5701H179.891V61.1504H182.982V72.5701H186.691V61.1504H188.855V72.5701H192.564V61.1504H194.727V72.5701H198.436V61.1504H201.527V72.5701H205.236V61.1504H207.4V72.5701H211.109V61.1504H213.273V72.5701H216.982V61.1504H219.764V72.5701H223.473V61.1504H225.636V72.5701H229.345V61.1504H231.509V72.5701H235.218V61.1504H238.309V72.5701H242.018V61.1504H244.182V72.5701H247.891V61.1504H250.364V72.5701H254.073V61.1504H257.164V72.5701H260.873V61.1504H263.036V72.5701H266.745V61.1504H268.909V72.5701H272.618V61.1504H275.4V72.5701H279.109V61.1504H281.273V72.5701H284.673V61.1504H287.145V72.5701H290.855V61.1504H293.945V72.5701H297.654V61.1504H299.818V72.5701H303.527V61.1504H305.691V72.5701H309.4V61.1504H312.491V75.1487H309.709V167.979H302.909V160.244H294.873V167.979H291.164V160.244H282.2V167.979H278.491V160.244H269.527V167.979H265.818V160.244H257.782V167.979H254.073V160.244H245.109V167.979H241.4V160.244H232.436V167.979H228.727V160.244H220.691V167.979H216.982V160.244H208.018V167.979H204.309V160.244H195.345V167.979H191.636V160.244H183.6V167.979H179.891V160.244H170.927V167.979H167.218V160.244H158.254V167.979H154.545V160.244H146.509V167.979H142.8V160.244H133.836V167.979H130.127V160.244H121.164V167.979H117.455V160.244H109.418V167.979H102.618V75.5171H99.8363L99.5272 167.979H80.3636L71.0909 156.56V152.876H68.3091V156.191H55.6364V152.876H37.0909V156.56H25.3454V153.244H21.6364V223.236H0V230.235H408V223.236L393.473 222.499ZM105.709 57.835H102V53.0461H105.709V57.835ZM112.2 57.835H108.491V53.0461H112.2V57.835ZM118.382 57.835H114.673V53.0461H118.382V57.835ZM124.254 57.835H120.545V53.0461H124.254V57.835ZM130.745 57.835H127.036V53.0461H130.745V57.835ZM136.927 57.835H133.218V53.0461H136.927V57.835ZM142.8 57.835H139.091V53.0461H142.8V57.835ZM149.291 57.835H145.582V53.0461H149.291V57.835ZM151.764 57.835V53.0461H155.473V57.835H151.764ZM161.345 57.835H157.636V53.0461H161.345V57.835ZM167.836 57.835H164.127V53.0461H167.836V57.835ZM170.309 57.835V53.0461H174.018V57.835H170.309ZM176.182 57.835V53.0461H179.891V57.835H176.182ZM186.382 57.835H182.673V53.0461H186.382V57.835ZM192.254 57.835H188.545V53.0461H192.254V57.835ZM198.436 57.835H194.727V53.0461H198.436V57.835ZM204.927 57.835H201.218V53.0461H204.927V57.835ZM198.436 46.047V41.6265H207.4V46.047H198.436ZM210.8 57.835H207.091V53.0461H210.8V57.835ZM213.273 57.835V53.0461H216.982V57.835H213.273ZM223.473 57.835H219.764V53.0461H223.473V57.835ZM229.345 57.835H225.636V53.0461H229.345V57.835ZM235.527 57.835H231.818V53.0461H235.527V57.835ZM242.018 57.835H238.309V53.0461H242.018V57.835ZM247.891 57.835H244.182V53.0461H247.891V57.835ZM254.073 57.835H250.364V53.0461H254.073V57.835ZM260.564 57.835H256.855V53.0461H260.564V57.835ZM266.436 57.835H262.727V53.0461H266.436V57.835ZM272.618 57.835H268.909V53.0461H272.618V57.835ZM279.109 57.835H275.4V53.0461H279.109V57.835ZM284.982 57.835H281.273V53.0461H284.982V57.835ZM291.164 57.835H287.455V53.0461H291.164V57.835ZM297.654 57.835H293.945V53.0461H297.654V57.835ZM303.527 57.835H299.818V53.0461H303.527V57.835ZM309.709 57.835H306V53.0461H309.709V57.835ZM62.7454 222.499V171.295H59.6545V222.499H52.8546V166.874H55.6364V163.559H37.0909V167.243H40.7999V222.868H34.3091V171.663H31.2182V222.868H25.6545V160.244H68.6181V222.868L62.7454 222.499ZM334.127 222.499H81.2909V171.295H334.127V222.499ZM383.891 222.499V171.295H380.182V222.499H374.309V166.874H378.018V163.191H359.473V166.874H362.564V222.499H356.691V171.295H352.673V222.499H346.8V159.875H389.764V222.499H383.891Z" fill="black"/>
<path d="M0.927734 267.81H27.2005V307.226H20.7095V274.44H7.72777V307.226H0.927734V267.81Z" fill="black"/>
<path d="M34.3096 307.594V267.81H45.1278C49.1459 267.81 51.9277 268.178 53.164 268.546C55.0186 269.283 56.564 270.388 57.8004 272.598C59.0368 274.44 59.655 277.019 59.655 280.334C59.655 282.913 59.3459 284.755 58.4186 286.597C57.4914 288.439 56.8732 289.544 55.6368 290.649C54.4005 291.754 53.4732 292.122 52.2368 292.491C50.6914 292.859 48.2186 293.227 45.4368 293.227H41.1095V308.331H34.3096V307.594ZM40.8004 274.809V285.86H44.5095C47.2914 285.86 48.8368 285.492 49.7641 285.123C50.6914 284.755 51.3095 284.018 51.9277 283.281C52.5459 282.545 52.5459 281.439 52.5459 280.334C52.5459 278.861 52.2368 277.756 51.6186 276.651C51.0004 275.545 50.0731 275.177 48.8368 274.809C47.9095 274.809 46.364 274.44 43.8913 274.44H40.8004V274.809Z" fill="black"/>
<path d="M90.873 307.594H83.7639L80.673 298.385H67.3821L64.6003 307.226H57.4912L70.473 267.81H77.5821L90.873 307.594ZM78.8185 291.754L74.1821 277.019L69.5457 291.754H78.8185Z" fill="black"/>
<path d="M94.5816 267.81H107.872C110.345 267.81 112.509 267.81 113.745 268.178C114.982 268.546 116.218 268.915 117.145 269.651C118.072 270.388 119 271.493 119.618 272.967C120.236 274.44 120.545 275.914 120.545 277.756C120.545 279.598 120.236 281.439 119.309 282.913C118.382 284.386 117.454 285.492 115.909 286.228C118.072 286.965 119.618 288.07 120.545 289.912C121.472 291.754 122.091 293.596 122.091 295.806C122.091 297.648 121.781 299.49 121.163 300.963C120.545 302.805 119.618 303.91 118.382 305.016C117.145 306.121 115.6 306.489 113.745 306.857C112.509 306.857 110.036 307.226 105.709 307.226H94.2725V267.81H94.5816ZM101.382 274.44V283.65H110.654C111.891 283.65 112.818 282.913 113.436 282.176C114.054 281.439 114.363 280.334 114.363 279.229C114.363 278.124 114.054 277.019 113.436 276.282C112.818 275.545 111.891 275.177 110.963 274.809H101.382V274.44ZM101.382 290.28V300.963H107.563C110.036 300.963 111.582 300.963 112.2 300.595C113.127 300.227 114.054 299.858 114.672 299.122C115.291 298.385 115.6 297.28 115.6 295.806C115.6 294.701 115.291 293.596 114.981 292.859C114.672 292.122 113.745 291.386 112.818 291.017C111.891 290.649 110.036 290.28 106.945 290.28H101.382Z" fill="black"/>
<path d="M128.272 267.81H134.454V293.964L148.054 267.81H154.854V307.226H148.672V281.439L135.382 307.226H128.582V267.81H128.272Z" fill="black"/>
<path d="M168.764 307.594V274.809H158.873V268.178H185.146V274.809H175.255V307.594H168.764Z" fill="black"/>
<path d="M189.782 307.594V267.81H214.51V274.44H196.582V283.281H213.273V289.912H196.582V300.595H215.128V307.226H189.782V307.594Z" fill="black"/>
<path d="M222.855 267.81H246.036V307.226H239.236V274.44H229.346V291.386C229.346 296.175 229.346 299.49 229.036 301.7C228.727 303.542 228.109 305.016 227.182 306.121C226.255 307.226 224.4 307.594 222.236 307.594C221.309 307.594 220.073 307.594 217.909 307.226V300.963H219.455C221 300.963 221.927 300.595 222.236 300.227C222.546 299.858 222.855 298.753 222.855 296.911V267.81Z" fill="black"/>
<path d="M253.145 267.81H259.945V283.65H268.909C273.236 283.65 276.327 284.755 278.181 287.334C280.036 289.544 280.963 292.491 280.963 295.806C280.963 298.385 280.345 300.963 279.109 302.805C277.872 304.647 276.636 306.121 275.091 306.489C273.545 307.226 271.381 307.594 268.6 307.594H252.836V267.81H253.145ZM259.945 300.963H266.436C268.6 300.963 270.145 300.963 270.763 300.595C271.69 300.227 272.309 299.858 272.927 298.753C273.545 298.016 273.854 296.911 273.854 295.438C273.854 293.596 273.236 292.122 272.309 291.386C271.072 290.649 269.218 290.28 266.745 290.28H259.945V300.963Z" fill="black"/>
<path d="M306.618 292.859L313.109 295.438C312.182 299.858 310.327 302.805 308.164 305.015C305.691 307.226 302.909 308.331 299.2 308.331C294.873 308.331 291.164 306.489 288.382 302.805C285.6 299.121 284.055 294.333 284.055 288.07C284.055 281.439 285.6 276.282 288.382 272.598C291.164 268.915 294.873 267.073 299.509 267.073C303.527 267.073 306.927 268.546 309.4 271.493C310.946 273.335 312.182 275.545 312.8 278.861L306.309 280.703C306 278.492 305.073 277.019 303.836 275.914C302.6 274.809 301.055 274.072 299.2 274.072C296.727 274.072 294.873 275.177 293.327 277.387C291.782 279.597 291.164 282.913 291.164 287.702C291.164 292.859 291.782 296.174 293.327 298.385C294.873 300.595 296.727 301.7 299.2 301.7C301.055 301.7 302.6 300.963 303.836 299.858C305.073 298.016 306 295.806 306.618 292.859Z" fill="black"/>
<path d="M325.163 307.594V274.809H315.272V268.178H341.545V274.809H331.654V307.594H325.163Z" fill="black"/>
<path d="M345.873 267.81H359.164C361.636 267.81 363.8 267.81 365.036 268.178C366.273 268.546 367.509 268.915 368.436 269.651C369.364 270.388 370.291 271.493 370.909 272.967C371.527 274.44 371.836 275.914 371.836 277.756C371.836 279.598 371.527 281.439 370.6 282.913C369.673 284.386 368.745 285.492 367.2 286.228C369.363 286.965 370.909 288.07 371.836 289.912C372.763 291.754 373.382 293.596 373.382 295.806C373.382 297.648 373.073 299.49 372.454 300.963C371.836 302.805 370.909 303.91 369.673 305.016C368.436 306.121 366.891 306.489 365.036 306.857C363.8 306.857 361.327 307.226 357 307.226H345.563V267.81H345.873ZM352.673 274.44V283.65H361.945C363.182 283.65 364.109 282.913 364.727 282.176C365.345 281.439 365.654 280.334 365.654 279.229C365.654 278.124 365.345 277.019 364.727 276.282C364.109 275.545 363.182 275.177 362.254 274.809H352.673V274.44ZM352.673 290.28V300.963H358.854C361.327 300.963 362.873 300.963 363.491 300.595C364.418 300.227 365.345 299.858 365.963 299.122C366.582 298.385 366.891 297.28 366.891 295.806C366.891 294.701 366.582 293.596 366.273 292.859C365.964 292.122 365.036 291.386 364.109 291.017C363.182 290.649 361.327 290.28 358.236 290.28H352.673Z" fill="black"/>
<path d="M377.091 288.07C377.091 284.018 377.709 280.703 378.636 277.756C379.254 275.914 380.491 274.072 381.727 272.23C382.964 270.756 384.509 269.283 386.054 268.546C388.218 267.441 390.382 267.073 393.164 267.073C398.109 267.073 401.818 268.915 404.909 272.598C407.691 276.282 409.236 281.071 409.236 287.702C409.236 293.964 407.691 299.121 404.909 302.805C402.127 306.489 398.109 308.331 393.164 308.331C388.218 308.331 384.2 306.489 381.418 302.805C378.327 299.121 377.091 294.333 377.091 288.07ZM383.891 287.702C383.891 292.122 384.818 295.438 386.364 298.016C388.218 300.227 390.382 301.332 392.854 301.332C395.636 301.332 397.8 300.227 399.345 298.016C401.2 295.806 401.818 292.122 401.818 287.702C401.818 283.281 400.891 279.966 399.345 277.387C397.8 275.177 395.327 274.072 392.854 274.072C390.073 274.072 387.909 275.177 386.054 277.387C384.818 279.597 383.891 283.281 383.891 287.702Z" fill="black"/>
<path d="M38.9453 364.692V324.908H49.7635C53.7817 324.908 56.5634 325.276 57.7998 325.644C59.6543 326.381 61.1998 327.486 62.4361 329.697C63.6725 331.538 64.2907 334.117 64.2907 337.432C64.2907 340.011 63.9816 341.853 63.0544 343.695C62.1271 345.537 61.5089 346.642 60.2726 347.747C59.0362 348.852 58.1089 349.221 56.8725 349.589C55.3271 349.957 52.8543 350.326 50.0725 350.326H45.7453V364.692H38.9453ZM45.7453 331.907V342.958H49.4544C52.2362 342.958 53.7816 342.59 54.7089 342.221C55.6361 341.853 56.2544 341.116 56.8725 340.379C57.4907 339.643 57.4908 338.538 57.4908 337.432C57.4908 335.959 57.1816 334.854 56.5634 333.749C55.9453 332.644 55.018 332.275 53.7816 331.907C52.8544 331.907 51.3089 331.538 48.8362 331.538H45.7453V331.907Z" fill="black"/>
<path d="M68.6182 345.168C68.6182 341.116 69.2363 337.801 70.1636 334.854C70.7818 333.012 72.0182 331.17 73.2545 329.328C74.4909 327.855 76.0364 326.381 77.5819 325.644C79.7455 324.539 81.9091 324.171 84.6909 324.171C89.6364 324.171 93.3454 326.013 96.4363 329.697C99.2182 333.38 100.764 338.169 100.764 344.8C100.764 351.062 99.2182 356.22 96.4363 359.903C93.6545 363.587 89.6364 365.429 84.6909 365.429C79.7455 365.429 75.7273 363.587 72.9455 359.903C70.1637 356.22 68.6182 351.431 68.6182 345.168ZM75.4182 344.8C75.4182 349.22 76.3454 352.536 77.8909 355.114C79.7454 357.325 81.9091 358.43 84.3818 358.43C87.1636 358.43 89.3273 357.325 90.8727 355.114C92.7273 352.904 93.3454 349.22 93.3454 344.8C93.3454 340.379 92.4182 337.064 90.8727 334.485C89.3273 332.275 86.8545 331.17 84.3818 331.17C81.6 331.17 79.4364 332.275 77.5819 334.485C76.3455 336.696 75.4182 340.379 75.4182 344.8Z" fill="black"/>
<path d="M127.964 349.957L134.455 352.536C133.528 356.956 131.673 359.903 129.509 362.114C127.037 364.324 124.255 365.429 120.546 365.429C116.219 365.429 112.509 363.587 109.728 359.903C106.946 356.22 105.4 351.431 105.4 345.168C105.4 338.538 106.946 333.38 109.728 329.697C112.509 326.013 116.219 324.171 120.855 324.171C124.873 324.171 128.273 325.644 130.746 328.591C132.291 330.433 133.528 332.644 134.146 335.959L127.655 337.801C127.346 335.591 126.419 334.117 125.182 333.012C123.946 331.907 122.4 331.17 120.546 331.17C118.073 331.17 116.219 332.275 114.673 334.485C113.128 336.696 112.509 340.011 112.509 344.8C112.509 349.957 113.128 353.273 114.673 355.483C116.219 357.693 118.073 358.798 120.546 358.798C122.4 358.798 123.946 358.061 125.182 356.956C126.419 355.114 127.346 352.904 127.964 349.957Z" fill="black"/>
<path d="M161.964 349.957L168.455 352.536C167.528 356.956 165.673 359.903 163.509 362.114C161.037 364.324 158.255 365.429 154.546 365.429C150.219 365.429 146.509 363.587 143.728 359.903C140.946 356.22 139.4 351.431 139.4 345.168C139.4 338.538 140.946 333.38 143.728 329.697C146.509 326.013 150.219 324.171 154.855 324.171C158.873 324.171 162.273 325.644 164.746 328.591C166.291 330.433 167.528 332.644 168.146 335.959L161.655 337.801C161.346 335.591 160.419 334.117 159.182 333.012C157.946 331.907 156.4 331.17 154.546 331.17C152.073 331.17 150.219 332.275 148.673 334.485C147.128 336.696 146.509 340.011 146.509 344.8C146.509 349.957 147.128 353.273 148.673 355.483C150.219 357.693 152.073 358.798 154.546 358.798C156.4 358.798 157.946 358.061 159.182 356.956C160.728 355.114 161.655 352.904 161.964 349.957Z" fill="black"/>
<path d="M175.255 324.908H181.437V351.062L195.037 324.908H201.837V364.692H195.655V338.906L182.364 364.692H175.564V324.908H175.255Z" fill="black"/>
<path d="M209.255 324.908H215.437V351.063L229.037 324.908H235.837V364.692H229.655V338.906L216.364 364.692H209.564V324.908H209.255ZM226.255 315.33H229.346C229.037 317.909 228.419 319.751 227.182 321.224C225.946 322.698 224.4 323.434 222.237 323.434C220.073 323.434 218.528 322.698 217.291 321.224C216.055 319.751 215.437 317.909 215.128 315.33H218.219C218.219 316.435 218.837 317.54 219.455 318.277C220.073 319.014 221 319.382 222.237 319.382C223.473 319.382 224.4 319.014 225.019 318.277C225.946 317.54 226.255 316.435 226.255 315.33Z" fill="black"/>
<path d="M264.273 349.957L270.764 352.536C269.836 356.956 267.982 359.903 265.818 362.114C263.345 364.324 260.564 365.429 256.854 365.429C252.527 365.429 248.818 363.587 246.036 359.903C243.254 356.22 241.709 351.431 241.709 345.168C241.709 338.538 243.254 333.38 246.036 329.697C248.818 326.013 252.527 324.171 257.164 324.171C261.182 324.171 264.582 325.644 267.054 328.591C268.6 330.433 269.836 332.644 270.454 335.959L263.964 337.801C263.654 335.591 262.727 334.117 261.491 333.012C260.254 331.907 258.709 331.17 256.854 331.17C254.382 331.17 252.527 332.275 250.982 334.485C249.436 336.696 248.818 340.011 248.818 344.8C248.818 349.957 249.436 353.273 250.982 355.483C252.527 357.693 254.382 358.798 256.854 358.798C258.709 358.798 260.254 358.061 261.491 356.956C262.727 355.114 263.654 352.904 264.273 349.957Z" fill="black"/>
<path d="M277.255 324.907H284.055V341.853C285.6 341.853 286.528 341.116 287.146 340.379C287.764 339.642 288.382 337.432 289.619 334.117C290.855 329.696 292.4 327.118 293.946 326.013C295.182 324.907 297.655 324.539 300.746 324.539H301.673V330.433H300.746C299.509 330.433 298.273 330.801 297.655 331.17C297.037 331.538 296.418 332.275 296.109 333.012C295.8 333.748 295.182 335.59 294.255 338.169C293.946 339.642 293.328 340.748 293.018 341.484C292.4 342.221 291.782 343.326 290.546 344.063C292.091 344.431 293.328 345.537 294.255 347.01C295.182 348.484 296.419 350.694 297.346 353.641L301.982 364.324H293.946L289.928 354.009C289.928 354.009 289.619 353.641 289.619 353.272C289.619 353.272 289.309 352.536 288.691 351.431C287.764 349.589 287.146 348.115 286.528 347.747C285.909 347.378 284.982 347.01 284.055 347.01V364.692H277.255V324.907Z" fill="black"/>
<path d="M304.764 345.168C304.764 341.116 305.382 337.801 306.309 334.854C306.927 333.012 308.164 331.17 309.4 329.328C310.636 327.855 312.182 326.381 313.727 325.644C315.891 324.539 318.055 324.171 320.836 324.171C325.782 324.171 329.491 326.013 332.582 329.697C335.364 333.38 336.909 338.169 336.909 344.8C336.909 351.062 335.364 356.22 332.582 359.903C329.8 363.587 325.782 365.429 320.836 365.429C315.891 365.429 311.873 363.587 309.091 359.903C306.309 356.22 304.764 351.431 304.764 345.168ZM311.873 344.8C311.873 349.22 312.8 352.536 314.346 355.114C316.2 357.325 318.364 358.43 320.836 358.43C323.618 358.43 325.782 357.325 327.327 355.114C329.182 352.904 329.8 349.22 329.8 344.8C329.8 340.379 328.873 337.064 327.327 334.485C325.782 332.275 323.309 331.17 320.836 331.17C318.055 331.17 315.891 332.275 314.036 334.485C312.8 336.696 311.873 340.379 311.873 344.8Z" fill="black"/>
<path d="M343.091 324.908H349.273V351.063L362.873 324.908H369.673V364.692H363.491V338.906L350.2 364.692H343.4V324.908H343.091ZM360.4 315.33H363.491C363.182 317.909 362.564 319.751 361.327 321.224C360.091 322.698 358.545 323.434 356.382 323.434C354.218 323.434 352.673 322.698 351.436 321.224C350.2 319.751 349.582 317.909 349.273 315.33H352.364C352.364 316.435 352.982 317.54 353.6 318.277C354.218 319.014 355.145 319.382 356.382 319.382C357.618 319.382 358.545 319.014 359.164 318.277C359.782 317.54 360.091 316.435 360.4 315.33Z" fill="black"/>
<path d="M76.9635 417.002V421.79H70.4725V417.002C65.218 416.633 61.5089 415.16 59.3452 412.213C57.1816 409.266 55.9453 405.582 55.9453 401.53C55.9453 397.109 57.1816 393.426 59.3452 390.478C61.5089 387.531 65.218 386.058 70.4725 386.058V382.006H76.9635V386.058C82.218 386.426 85.9271 387.9 88.0907 390.847C90.2544 393.794 91.4908 397.478 91.4908 401.898C91.4908 406.319 90.2544 410.002 88.0907 412.581C85.9271 415.16 82.218 417.002 76.9635 417.002ZM70.4725 410.371V392.689C67.6907 392.689 65.5271 393.426 64.2907 394.899C63.0543 396.373 62.4361 398.583 62.4361 401.53C62.4361 407.424 64.9089 410.371 70.4725 410.371ZM76.9635 410.371C78.818 410.371 80.3635 410.002 81.5998 409.266C82.8362 408.529 83.7634 407.792 84.3816 406.319C84.9998 405.214 85.309 403.372 85.309 401.161C85.309 395.267 82.5271 392.689 77.2726 392.689V410.371H76.9635Z" fill="black"/>
<path d="M97.3633 421.791V382.375H122.091V389.005H104.163V397.846H120.854V404.477H104.163V415.16H122.709V421.791H97.3633Z" fill="black"/>
<path d="M131.673 382.006H154.545V414.791H157.327V429.895H151.763V421.422H130.745V429.895H125.182V414.791H127.963C129.2 411.476 130.127 407.424 130.745 403.003C131.054 398.583 131.363 393.057 131.363 386.058V382.006H131.673ZM138.163 388.637C138.163 400.793 137.236 409.266 135.382 414.791H148.054V388.637H138.163Z" fill="black"/>
<path d="M162.891 421.791V382.375H187.618V389.005H169.691V397.846H186.382V404.477H169.691V415.16H188.236V421.791H162.891Z" fill="black"/>
<path d="M194.418 421.791V382.375H205.236C209.254 382.375 212.036 382.743 213.273 383.111C215.127 383.848 216.673 384.953 217.909 387.163C219.145 389.005 219.763 391.584 219.763 394.899C219.763 397.478 219.454 399.32 218.527 401.162C217.6 403.004 216.982 404.109 215.745 405.214C214.509 406.319 213.582 406.687 212.345 407.056C210.8 407.424 208.327 407.792 205.545 407.792H201.218V422.896H194.418V421.791ZM201.218 389.005V400.057H204.927C207.709 400.057 209.254 399.688 210.182 399.32C211.109 398.951 211.727 398.215 212.345 397.478C212.963 396.741 212.963 395.636 212.963 394.531C212.963 393.057 212.654 391.952 212.036 390.847C211.418 389.742 210.491 389.374 209.254 389.005C208.327 389.005 206.782 388.637 204.309 388.637H201.218V389.005Z" fill="black"/>
<path d="M251.909 421.791H244.491L241.709 412.95H228.418L225.636 421.791H218.527L231.509 382.375H238.618L251.909 421.791ZM239.546 405.951L234.909 391.216L230.273 405.951H239.546Z" fill="black"/>
<path d="M256.236 382.006H263.036V414.791H276.018V382.006H282.818V414.791H285.6V429.895H280.036V421.422H256.545V382.006H256.236Z" fill="black"/>
<path d="M290.854 382.006H297.036V408.161L310.636 382.006H317.436V421.422H311.255V395.636L297.964 421.422H290.854V382.006Z" fill="black"/>
<path d="M324.854 382.006H331.036V408.161L344.636 382.006H351.436V421.422H345.255V395.636L331.964 421.422H324.854V382.006Z" fill="black"/>
</g>
<defs>
<clipPath id="clip0_505_839">
<rect width="408" height="431" fill="white"/>
</clipPath>
</defs>
</svg>
