<svg width="241" height="92" viewBox="0 0 241 92" fill="none" xmlns="http://www.w3.org/2000/svg">
<path d="M83.6336 66.6455C85.5077 66.6455 86.4448 67.2516 86.4448 68.4639C86.4448 69.3314 86.116 69.9988 85.4584 70.4659C84.8118 70.933 83.6391 71.1666 81.9403 71.1666H76.3835C76.4383 69.8987 76.4657 68.3805 76.4657 66.6121C76.4657 64.8437 76.4383 63.3256 76.3835 62.0577H79.7866V62.0744H81.9238C82.9541 62.0744 83.7596 62.1634 84.3405 62.3413C84.9323 62.5081 85.3488 62.7528 85.5899 63.0754C85.8311 63.3979 85.9516 63.8094 85.9516 64.3099C85.9516 65.4332 85.1789 66.2117 83.6336 66.6455ZM79.7866 64.3599V65.5277H81.0361C81.5402 65.5277 81.8964 65.4833 82.1047 65.3943C82.3129 65.2942 82.417 65.1218 82.417 64.8771C82.417 64.688 82.3074 64.5546 82.0882 64.4767C81.88 64.3989 81.5293 64.3599 81.0361 64.3599H79.7866ZM81.0361 68.8643C81.6608 68.8643 82.0882 68.8198 82.3184 68.7309C82.5485 68.6308 82.6636 68.4584 82.6636 68.2137C82.6636 68.0024 82.5431 67.8467 82.3019 67.7466C82.0608 67.6465 81.6389 67.5964 81.0361 67.5964H79.7866V68.8643H81.0361ZM90.9271 66.6121C90.949 67.1794 91.1244 67.6354 91.453 67.9801C91.7928 68.3249 92.2914 68.4973 92.949 68.4973C93.3107 68.4973 93.634 68.4306 93.919 68.2971C94.204 68.1525 94.467 67.9412 94.7081 67.6632C95.6397 68.0302 96.7302 68.3472 97.9797 68.6141C97.618 69.4705 97.0042 70.1378 96.1384 70.616C95.2835 71.0943 94.1711 71.3334 92.8011 71.3334C90.9709 71.3334 89.6174 70.8996 88.7406 70.0321C87.8638 69.1646 87.4254 68.0246 87.4254 66.6121C87.4254 65.1997 87.8638 64.0596 88.7406 63.1921C89.6174 62.3246 90.9709 61.8909 92.8011 61.8909C94.1711 61.8909 95.2835 62.13 96.1384 62.6082C97.0042 63.0865 97.618 63.7538 97.9797 64.6102C97.0042 64.8215 95.9137 65.1385 94.7081 65.5611C94.467 65.2831 94.204 65.0773 93.919 64.9438C93.634 64.7993 93.3107 64.727 92.949 64.727C92.2914 64.727 91.7928 64.8994 91.453 65.2441C91.1244 65.5889 90.949 66.0449 90.9271 66.6121ZM107.91 66.9958H102.551C102.639 67.4852 102.852 67.8856 103.192 68.197C103.543 68.4973 104.036 68.6475 104.672 68.6475C105.132 68.6475 105.565 68.5585 105.97 68.3805C106.376 68.1915 106.699 67.9301 106.94 67.5964C107.675 67.9635 108.65 68.3583 109.867 68.7809C109.527 69.5595 108.908 70.1823 108.009 70.6494C107.121 71.1054 105.959 71.3334 104.524 71.3334C102.661 71.3334 101.28 70.8996 100.381 70.0321C99.4931 69.1535 99.0492 68.0024 99.0492 66.5788C99.0492 65.1885 99.4931 64.0596 100.381 63.1921C101.269 62.3246 102.65 61.8909 104.524 61.8909C105.642 61.8909 106.612 62.0799 107.434 62.4581C108.256 62.8362 108.886 63.3645 109.324 64.043C109.763 64.7103 109.982 65.4777 109.982 66.3452C109.982 66.6344 109.971 66.8513 109.949 66.9958H107.91ZM104.754 64.41C104.206 64.41 103.757 64.5156 103.406 64.727C103.055 64.9383 102.808 65.2274 102.666 65.5945H106.546C106.414 65.2386 106.201 64.955 105.905 64.7436C105.609 64.5212 105.225 64.41 104.754 64.41ZM114.628 71.1666H111.126C111.181 69.8875 111.208 68.3694 111.208 66.6121C111.208 64.8437 111.181 63.3256 111.126 62.0577H120.365C120.355 62.447 120.349 63.2255 120.349 64.3933V65.2942H114.628V71.1666ZM131.274 68.7976H131.768V73.2853H128.66V71.4669H123.465V73.3187H120.358V68.7976H120.901C121.273 68.742 121.553 68.603 121.739 68.3805C121.936 68.1581 122.09 67.7911 122.199 67.2795C122.276 66.8791 122.315 65.9226 122.315 64.41V62.0577L131.274 62.0744V68.7976ZM125.109 68.2471C125.087 68.3694 125.044 68.5529 124.978 68.7976H128.134V64.8771H125.339V65.3776C125.329 66.0227 125.312 66.5343 125.29 66.9124C125.268 67.2795 125.208 67.7243 125.109 68.2471ZM143.627 68.3972C143.627 68.7754 143.671 69.0423 143.759 69.198C143.846 69.3537 144.022 69.4649 144.285 69.5316L144.219 71.0998C143.868 71.1555 143.561 71.1944 143.298 71.2166C143.046 71.2389 142.707 71.25 142.279 71.25C141.337 71.25 140.712 71.0387 140.405 70.616C140.098 70.1823 139.945 69.6317 139.945 68.9644V68.5474C139.627 69.4594 139.161 70.1378 138.547 70.5827C137.944 71.0276 137.172 71.25 136.229 71.25C135.133 71.25 134.306 71.0276 133.747 70.5827C133.199 70.1378 132.925 69.476 132.925 68.5974C132.925 67.8745 133.16 67.3073 133.632 66.8957C134.103 66.4842 134.832 66.2006 135.818 66.0449C134.985 65.4443 134.152 64.9216 133.319 64.4767C133.977 63.6315 134.728 62.9919 135.572 62.5582C136.415 62.1133 137.44 61.8909 138.646 61.8909C140.334 61.8909 141.583 62.2635 142.394 63.0086C143.216 63.7427 143.627 64.8771 143.627 66.4119V68.3972ZM138.991 64.8271C138.432 64.8271 137.939 64.9216 137.511 65.1107C137.084 65.2997 136.7 65.5834 136.361 65.9615C137.018 65.8836 137.84 65.8447 138.827 65.8447C139.232 65.8447 139.517 65.7947 139.682 65.6946C139.846 65.5945 139.928 65.4666 139.928 65.3109C139.928 65.1774 139.846 65.0662 139.682 64.9772C139.517 64.8771 139.287 64.8271 138.991 64.8271ZM137.265 68.5307C137.879 68.5307 138.432 68.4139 138.925 68.1803C139.419 67.9356 139.758 67.6187 139.945 67.2294V66.7956C139.682 66.9291 139.391 67.0348 139.073 67.1126C138.755 67.1794 138.372 67.2461 137.922 67.3128L137.331 67.4129C136.717 67.5353 136.41 67.7466 136.41 68.0469C136.41 68.3694 136.695 68.5307 137.265 68.5307ZM158.923 62.0577C158.868 63.7482 158.841 65.2664 158.841 66.6121C158.841 67.9579 158.868 69.476 158.923 71.1666H155.355V68.1303H152.133V71.1666H148.566C148.62 69.8987 148.648 68.3805 148.648 66.6121C148.648 64.8437 148.62 63.3256 148.566 62.0577H152.133V65.094H155.355V62.0577H158.923ZM170.775 68.3972C170.775 68.7754 170.819 69.0423 170.907 69.198C170.994 69.3537 171.17 69.4649 171.433 69.5316L171.367 71.0998C171.016 71.1555 170.709 71.1944 170.446 71.2166C170.194 71.2389 169.854 71.25 169.427 71.25C168.484 71.25 167.86 71.0387 167.553 70.616C167.246 70.1823 167.093 69.6317 167.093 68.9644V68.5474C166.775 69.4594 166.309 70.1378 165.695 70.5827C165.092 71.0276 164.32 71.25 163.377 71.25C162.281 71.25 161.454 71.0276 160.895 70.5827C160.347 70.1378 160.073 69.476 160.073 68.5974C160.073 67.8745 160.308 67.3073 160.78 66.8957C161.251 66.4842 161.98 66.2006 162.966 66.0449C162.133 65.4443 161.3 64.9216 160.467 64.4767C161.125 63.6315 161.876 62.9919 162.719 62.5582C163.563 62.1133 164.588 61.8909 165.794 61.8909C167.482 61.8909 168.731 62.2635 169.542 63.0086C170.364 63.7427 170.775 64.8771 170.775 66.4119V68.3972ZM166.139 64.8271C165.58 64.8271 165.087 64.9216 164.659 65.1107C164.232 65.2997 163.848 65.5834 163.509 65.9615C164.166 65.8836 164.988 65.8447 165.975 65.8447C166.38 65.8447 166.665 65.7947 166.829 65.6946C166.994 65.5945 167.076 65.4666 167.076 65.3109C167.076 65.1774 166.994 65.0662 166.829 64.9772C166.665 64.8771 166.435 64.8271 166.139 64.8271ZM164.413 68.5307C165.027 68.5307 165.58 68.4139 166.073 68.1803C166.566 67.9356 166.906 67.6187 167.093 67.2294V66.7956C166.829 66.9291 166.539 67.0348 166.221 67.1126C165.903 67.1794 165.52 67.2461 165.07 67.3128L164.479 67.4129C163.865 67.5353 163.558 67.7466 163.558 68.0469C163.558 68.3694 163.843 68.5307 164.413 68.5307ZM179.051 66.6121C179.073 67.1794 179.248 67.6354 179.577 67.9801C179.917 68.3249 180.415 68.4973 181.073 68.4973C181.435 68.4973 181.758 68.4306 182.043 68.2971C182.328 68.1525 182.591 67.9412 182.832 67.6632C183.764 68.0302 184.854 68.3472 186.104 68.6141C185.742 69.4705 185.128 70.1378 184.262 70.616C183.407 71.0943 182.295 71.3334 180.925 71.3334C179.095 71.3334 177.741 70.8996 176.864 70.0321C175.987 69.1646 175.549 68.0246 175.549 66.6121C175.549 65.1997 175.987 64.0596 176.864 63.1921C177.741 62.3246 179.095 61.8909 180.925 61.8909C182.295 61.8909 183.407 62.13 184.262 62.6082C185.128 63.0865 185.742 63.7538 186.104 64.6102C185.128 64.8215 184.038 65.1385 182.832 65.5611C182.591 65.2831 182.328 65.0773 182.043 64.9438C181.758 64.7993 181.435 64.727 181.073 64.727C180.415 64.727 179.917 64.8994 179.577 65.2441C179.248 65.5889 179.073 66.0449 179.051 66.6121ZM194.588 66.6455C196.462 66.6455 197.399 67.2516 197.399 68.4639C197.399 69.3314 197.07 69.9988 196.412 70.4659C195.766 70.933 194.593 71.1666 192.894 71.1666H187.337C187.392 69.8987 187.42 68.3805 187.42 66.6121C187.42 64.8437 187.392 63.3256 187.337 62.0577H190.741V62.0744H192.878C193.908 62.0744 194.714 62.1634 195.294 62.3413C195.886 62.5081 196.303 62.7528 196.544 63.0754C196.785 63.3979 196.906 63.8094 196.906 64.3099C196.906 65.4332 196.133 66.2117 194.588 66.6455ZM190.741 64.3599V65.5277H191.99C192.494 65.5277 192.85 65.4833 193.059 65.3943C193.267 65.2942 193.371 65.1218 193.371 64.8771C193.371 64.688 193.261 64.5546 193.042 64.4767C192.834 64.3989 192.483 64.3599 191.99 64.3599H190.741ZM191.99 68.8643C192.615 68.8643 193.042 68.8198 193.272 68.7309C193.502 68.6308 193.618 68.4584 193.618 68.2137C193.618 68.0024 193.497 67.8467 193.256 67.7466C193.015 67.6465 192.593 67.5964 191.99 67.5964H190.741V68.8643H191.99ZM208.622 62.0577C208.567 63.7482 208.54 65.2664 208.54 66.6121C208.54 67.9579 208.567 69.476 208.622 71.1666H205.383V68.2637H204.051C203.295 69.476 202.725 70.4436 202.342 71.1666H198.478C199.355 69.9543 200.095 68.9088 200.698 68.0302C199.854 67.8077 199.256 67.4463 198.906 66.9458C198.555 66.4453 198.38 65.828 198.38 65.094C198.38 64.1709 198.708 63.4368 199.366 62.8918C200.024 62.3469 201.185 62.0744 202.851 62.0744H205.383V62.0577H208.622ZM205.383 65.9115V64.4767H203.904C203.103 64.4767 202.561 64.5268 202.276 64.6269C202.002 64.727 201.865 64.9105 201.865 65.1774C201.865 65.4555 202.007 65.6501 202.292 65.7613C202.588 65.8614 203.125 65.9115 203.904 65.9115H205.383ZM217.16 66.4954C217.269 66.4842 217.423 66.4787 217.62 66.4787C218.354 66.4787 218.891 66.6511 219.231 66.9958C219.582 67.3406 219.757 67.7466 219.757 68.2137C219.757 69.2036 219.313 69.971 218.426 70.5159C217.538 71.0609 216.398 71.3334 215.006 71.3334C213.789 71.3334 212.715 71.1221 211.784 70.6995C210.863 70.2768 210.195 69.565 209.778 68.564L210.485 68.3805C211.504 68.1247 212.261 67.88 212.754 67.6465C212.929 67.9913 213.176 68.2582 213.493 68.4473C213.811 68.6252 214.233 68.7142 214.759 68.7142C215.351 68.7142 215.801 68.6586 216.107 68.5474C216.425 68.4361 216.584 68.2526 216.584 67.9968C216.584 67.7966 216.409 67.6576 216.058 67.5797C215.707 67.5019 215.203 67.463 214.546 67.463H213.609V65.2608H214.168C214.77 65.2608 215.253 65.233 215.614 65.1774C215.976 65.1218 216.157 64.9995 216.157 64.8104C216.157 64.6213 216.053 64.4712 215.844 64.3599C215.636 64.2487 215.357 64.1931 215.006 64.1931C214.436 64.1931 213.987 64.2988 213.658 64.5101C213.34 64.7214 213.039 65.0662 212.754 65.5444C211.888 65.1774 210.94 64.916 209.91 64.7603C210.754 62.8585 212.507 61.9075 215.17 61.9075C215.949 61.9075 216.661 62.0243 217.308 62.2579C217.954 62.4803 218.464 62.7917 218.837 63.1921C219.209 63.5814 219.395 64.0207 219.395 64.5101C219.395 65.5778 218.65 66.2395 217.16 66.4954ZM231.199 62.0577C231.145 63.6704 231.117 65.1274 231.117 66.4286C231.117 67.7076 231.145 69.1646 231.199 70.7996H227.829L228.01 65.0273L225.495 70.7996H220.908C220.974 69.3315 221.007 67.8745 221.007 66.4286C221.007 64.9605 220.974 63.5036 220.908 62.0577H224.147L223.982 67.9801L226.498 62.0577H231.199ZM234.094 71.3334C233.612 71.3334 233.201 71.161 232.861 70.8162C232.521 70.4603 232.351 70.0377 232.351 69.5483C232.351 69.059 232.521 68.6419 232.861 68.2971C233.201 67.9523 233.612 67.7799 234.094 67.7799C234.565 67.7799 234.971 67.9579 235.31 68.3138C235.661 68.6586 235.836 69.0701 235.836 69.5483C235.836 70.0377 235.661 70.4603 235.31 70.8162C234.971 71.161 234.565 71.3334 234.094 71.3334Z" fill="black"/>
<path d="M94.4351 47.6666H83.7158C83.8912 48.6453 84.3186 49.4461 84.9982 50.069C85.6996 50.6695 86.686 50.9698 87.9574 50.9698C88.878 50.9698 89.7438 50.7919 90.5549 50.436C91.3663 50.0578 92.0129 49.5351 92.4952 48.8678C93.9638 49.6018 95.9147 50.3915 98.3478 51.2368C97.6683 52.7938 96.4298 54.0395 94.6324 54.9737C92.8568 55.8857 90.533 56.3417 87.6614 56.3417C83.935 56.3417 81.1731 55.4742 79.3757 53.7392C77.6002 51.9819 76.7124 49.6797 76.7124 46.8325C76.7124 44.052 77.6002 41.7942 79.3757 40.0592C81.1512 38.3242 83.9131 37.4567 87.6614 37.4567C89.8973 37.4567 91.8376 37.8348 93.4816 38.5911C95.1256 39.3474 96.386 40.404 97.2628 41.7609C98.1396 43.0955 98.578 44.6303 98.578 46.3653C98.578 46.9437 98.556 47.3774 98.5122 47.6666H94.4351ZM88.1218 42.4949C87.0258 42.4949 86.127 42.7062 85.4256 43.1289C84.7242 43.5515 84.231 44.1298 83.946 44.8639H91.706C91.443 44.1521 91.0152 43.5849 90.4234 43.1622C89.8315 42.7173 89.0643 42.4949 88.1218 42.4949ZM121.351 56.1749H114.15V44.0965H109.481L109.448 45.1308C109.427 46.1985 109.383 47.1439 109.317 47.9669C109.273 48.7677 109.164 49.6352 108.988 50.5694C108.243 54.6401 105.207 56.6754 99.8804 56.6754V51.3702C100.911 51.2368 101.612 50.9142 101.985 50.4026C102.357 49.8688 102.544 49.0457 102.544 47.9335V37.7903L121.351 37.8237V56.1749ZM141.379 47.6666H130.66C130.835 48.6453 131.263 49.4461 131.942 50.069C132.643 50.6695 133.63 50.9698 134.901 50.9698C135.822 50.9698 136.688 50.7919 137.499 50.436C138.31 50.0578 138.956 49.5351 139.439 48.8678C140.907 49.6018 142.858 50.3915 145.291 51.2368C144.612 52.7938 143.373 54.0395 141.576 54.9737C139.8 55.8857 137.477 56.3417 134.605 56.3417C130.879 56.3417 128.117 55.4742 126.32 53.7392C124.544 51.9819 123.656 49.6797 123.656 46.8325C123.656 44.052 124.544 41.7942 126.32 40.0592C128.095 38.3242 130.857 37.4567 134.605 37.4567C136.841 37.4567 138.781 37.8348 140.425 38.5911C142.069 39.3474 143.329 40.404 144.206 41.7609C145.083 43.0955 145.521 44.6303 145.521 46.3653C145.521 46.9437 145.5 47.3774 145.456 47.6666H141.379ZM135.066 42.4949C133.97 42.4949 133.071 42.7062 132.369 43.1289C131.668 43.5515 131.175 44.1298 130.89 44.8639H138.65C138.387 44.1521 137.959 43.5849 137.367 43.1622C136.775 42.7173 136.008 42.4949 135.066 42.4949ZM164.612 47.2996C165.598 48.1004 166.355 49.0013 166.881 50.0022C167.407 51.0032 167.9 52.2044 168.36 53.6057C168.821 54.8292 169.149 55.6299 169.347 56.0081H161.423C161.357 55.8524 161.225 55.363 161.028 54.54C160.853 53.717 160.677 53.0608 160.502 52.5714C160.327 52.0598 160.064 51.6149 159.713 51.2368C159.165 50.6362 158.551 50.2469 157.872 50.069C157.192 49.891 156.184 49.802 154.847 49.802V56.0081H147.81C147.92 53.4723 147.975 50.436 147.975 46.8992C147.975 43.3624 147.92 40.3261 147.81 37.7903H154.847V44.33H154.978C157.587 41.683 159.483 39.5031 160.666 37.7903H169.347L161.653 45.5646C162.793 46.0539 163.779 46.6323 164.612 47.2996ZM181.259 56.3417C177.511 56.3417 174.749 55.4742 172.974 53.7392C171.22 51.9819 170.343 49.6797 170.343 46.8325C170.343 44.052 171.22 41.7942 172.974 40.0592C174.749 38.3242 177.511 37.4567 181.259 37.4567C183.78 37.4567 185.884 37.8793 187.572 38.7246C189.282 39.5476 190.542 40.6709 191.353 42.0945C192.165 43.4959 192.57 45.0752 192.57 46.8325C192.57 49.7019 191.627 52.0042 189.742 53.7392C187.879 55.4742 185.051 56.3417 181.259 56.3417ZM181.391 50.6695C182.816 50.6695 183.879 50.3248 184.58 49.6352C185.282 48.9456 185.632 48.0225 185.632 46.8658C185.632 45.7759 185.282 44.8861 184.58 44.1966C183.879 43.4848 182.816 43.1289 181.391 43.1289C179.966 43.1289 178.925 43.4736 178.267 44.1632C177.61 44.8528 177.281 45.7536 177.281 46.8658C177.281 48.0225 177.61 48.9456 178.267 49.6352C178.925 50.3248 179.966 50.6695 181.391 50.6695ZM219.97 37.7903L221.219 56.0081H214.841L214.446 42.962L211.947 56.0081H204.155L201.623 43.1289L201.261 56.0081H194.883L196.132 37.7903H205.865L208.002 49.7019L209.909 37.7903H219.97ZM227.002 56.3417C226.037 56.3417 225.215 55.997 224.536 55.3074C223.856 54.5956 223.516 53.7503 223.516 52.7716C223.516 51.7929 223.856 50.9587 224.536 50.2692C225.215 49.5796 226.037 49.2348 227.002 49.2348C227.944 49.2348 228.755 49.5907 229.435 50.3025C230.136 50.9921 230.487 51.8151 230.487 52.7716C230.487 53.7503 230.136 54.5956 229.435 55.3074C228.755 55.997 227.944 56.3417 227.002 56.3417Z" fill="black"/>
<path d="M18.7052 69.5767H8.12598V87.7674H18.7052V69.5767Z" fill="black"/>
<path d="M33.7389 51.3856H23.1597V87.7673H33.7389V51.3856Z" fill="black"/>
<path d="M63.806 15.0037H53.2268V87.7674H63.806V15.0037Z" fill="black"/>
<path d="M76.0345 4.09802H40.6677V14.9822H76.0345V4.09802Z" fill="black"/>
<path d="M48.7723 33.1946H38.1931V87.7673H48.7723V33.1946Z" fill="black"/>
</svg>
