<svg width="28" height="28" viewBox="0 0 28 28" fill="none" xmlns="http://www.w3.org/2000/svg">
<path d="M17.512 5.56666C17.512 2.86613 14.7513 0.666992 11.3651 0.666992C7.97881 0.666992 5.21826 2.86753 5.21826 5.56666C5.21826 8.26719 7.97893 10.4663 11.3651 10.4663C14.7531 10.4663 17.512 8.26709 17.512 5.56666Z" fill="white"/>
<path d="M12.5364 21.334C12.5364 24.6335 15.8818 27.334 20.0637 27.334C24.203 27.334 27.5909 24.6335 27.5909 21.334C27.5909 18.0345 24.203 15.334 20.0637 15.334C15.9243 15.3678 12.5364 18.0345 12.5364 21.334ZM20.9832 25.4667C20.9832 25.8664 20.5651 26.1997 20.0636 26.1997C19.5621 26.1997 19.1439 25.8664 19.1439 25.4667V20.6333C19.1439 20.2336 19.5621 19.9003 20.0636 19.9003C20.5651 19.9003 20.9832 20.2336 20.9832 20.6333V25.4667ZM21.2348 18.1333C21.2348 18.6672 20.6908 19.0669 20.0636 19.0669C19.3938 19.0669 18.8923 18.6672 18.8923 18.1333C18.8923 17.6333 19.3938 17.1997 20.0636 17.1997C20.6908 17.201 21.2348 17.6333 21.2348 18.1333Z" fill="white"/>
<path d="M0.40907 17.1326V22.1666H4.13022V18C4.13022 17.733 4.38178 17.5 4.75749 17.5C5.09236 17.5 5.38476 17.7005 5.38476 18V22.1326H11.3652C11.3227 21.8657 11.3227 21.5988 11.3227 21.3332C11.3227 17.4658 15.253 14.3672 20.0619 14.3672C20.3967 14.3672 20.7316 14.401 21.0648 14.401C19.183 12.5338 15.5026 11.4349 12.4921 11.4349H11.4042H11.3617L10.2362 11.4336C6.22099 11.4661 0.40907 13.4997 0.40907 17.1326Z" fill="white"/>
</svg>
