<svg width="34" height="25" viewBox="0 0 34 25" fill="none" xmlns="http://www.w3.org/2000/svg">
<path d="M29.3423 3.90477L29.315 3.88472C29.286 3.86216 29.257 3.83961 29.2281 3.8183C27.6601 2.62405 25.8195 1.68547 23.7574 1.02757C21.6219 0.345858 19.3486 0 17.0001 0C14.6515 0 12.378 0.345858 10.2427 1.02757C8.17886 1.68547 6.33657 2.62533 4.76857 3.81955C4.73107 3.84837 4.69358 3.8772 4.65438 3.90727C1.65316 6.23685 0 9.28939 0 12.5C0 15.7106 1.65316 18.763 4.65264 21.0927C4.69013 21.1228 4.73103 21.1529 4.77023 21.183C6.33818 22.3772 8.17878 23.3158 10.2409 23.9737C12.3781 24.6541 14.6514 25 17 25C19.3486 25 21.6221 24.6541 23.7573 23.9724C25.8195 23.3145 27.6601 22.3759 29.228 21.1817C29.2672 21.1516 29.3064 21.1215 29.3439 21.0927C32.3468 18.7631 34 15.7106 34 12.5C34 9.2894 32.347 6.23701 29.3423 3.90477ZM28.7526 20.1782C27.5954 19.3624 26.3035 18.6782 24.8924 18.1343C25.4513 16.5466 25.7667 14.7922 25.8127 12.97H32.7083C32.5634 15.6454 31.1743 18.1757 28.7526 20.1782ZM5.24724 20.1782C2.82546 18.1757 1.43647 15.6455 1.29162 12.97H8.18725C8.23326 14.7921 8.55025 16.5464 9.10756 18.1343C7.69812 18.6782 6.40446 19.3624 5.24724 20.1782ZM5.24724 4.82227C6.40442 5.63807 7.69799 6.32353 9.10743 6.86614C8.54845 8.45386 8.23314 10.2083 8.18711 12.0304H1.29149C1.43806 9.355 2.82716 6.82376 5.24724 4.82227ZM16.3609 12.0304H9.46532C9.50963 10.3537 9.78914 8.74217 10.2834 7.27866C12.2126 7.89017 14.2543 8.22728 16.3609 8.28367V12.0304ZM16.3609 12.9703V16.7172C14.2545 16.7736 12.2128 17.1107 10.2834 17.7223C9.78914 16.2586 9.50965 14.6471 9.46532 12.9705L16.3609 12.9703ZM17.6392 12.9703H24.5348C24.4905 14.647 24.211 16.2585 23.7167 17.722C21.7875 17.1105 19.7458 16.7734 17.6392 16.717V12.9703ZM17.6392 12.0304V8.28342C19.7456 8.22703 21.7873 7.88992 23.7167 7.2784C24.211 8.74207 24.4905 10.3536 24.5348 12.0301L17.6392 12.0304ZM17.6392 7.3425V0.984171C19.3366 1.20974 20.9403 2.33379 22.2133 4.20472C22.6615 4.86513 23.0501 5.59069 23.3739 6.36889C21.5844 6.9516 19.6487 7.28485 17.6392 7.3425ZM16.3609 0.984171V7.3425C14.3516 7.28485 12.4155 6.9515 10.6259 6.36755C10.9497 5.59059 11.3382 4.86378 11.7865 4.20337C13.0596 2.33244 14.6637 1.2097 16.3609 0.984171ZM16.3609 17.6586V24.0169C14.6635 23.7913 13.0598 22.6673 11.7868 20.7964C11.3386 20.136 10.95 19.4104 10.6262 18.6322C12.4157 18.0495 14.3514 17.7162 16.3609 17.6586ZM17.6392 24.0169V17.6586C19.6485 17.7162 21.5846 18.0496 23.3742 18.6335C23.0504 19.4105 22.6619 20.1373 22.2136 20.7977C20.9405 22.6686 19.3364 23.7914 17.6392 24.0169ZM25.8127 12.0307C25.7667 10.2087 25.4497 8.4544 24.8924 6.86643C26.3035 6.32257 27.5953 5.63836 28.7526 4.82255C31.1743 6.82382 32.5633 9.35519 32.7082 12.0307L25.8127 12.0307ZM27.8663 4.14601C26.854 4.86031 25.7326 5.46307 24.5328 5.94553C24.2004 5.17233 23.8067 4.44677 23.3551 3.78261C22.6598 2.76004 21.8588 1.93048 20.9828 1.31017C23.5511 1.80139 25.9082 2.76633 27.8663 4.14601ZM13.0153 1.31142C12.1393 1.93048 11.3383 2.76004 10.643 3.78386C10.1913 4.44802 9.79765 5.17233 9.46532 5.94678C8.26552 5.46307 7.14581 4.86031 6.13178 4.14726C8.0917 2.7663 10.4488 1.80139 13.0153 1.31142ZM6.13365 20.8554C7.14599 20.1411 8.26739 19.5384 9.4672 19.0559C9.79953 19.8291 10.1932 20.5547 10.6448 21.2188C11.3402 22.2414 12.1412 23.071 13.0172 23.6913C10.4489 23.2 8.09174 22.2351 6.13365 20.8554ZM20.9847 23.69C21.8606 23.071 22.6617 22.2414 23.357 21.2176C23.8087 20.5534 24.2023 19.8291 24.5346 19.0547C25.7345 19.5384 26.8542 20.1411 27.8682 20.8542C25.9083 22.2351 23.5512 23.2 20.9847 23.69Z" fill="white"/>
</svg>
