<svg width="29" height="30" viewBox="0 0 29 30" fill="none" xmlns="http://www.w3.org/2000/svg">
<path d="M24.2323 14.7312C23.6523 14.22 22.8635 13.9368 22.0167 13.9368H20.1085V12.828C21.2743 12.2352 22.1733 11.1744 22.5619 9.88081C23.4232 9.78961 24.0902 9.18241 24.0902 8.44561C24.0902 7.70881 23.429 7.10881 22.5764 7.01281C22.5764 7.00561 22.5735 6.99601 22.5706 6.98881H23.2695C24.0583 6.98881 24.6992 6.45841 24.6992 5.80561V5.73601C24.6992 5.08321 24.0583 4.55281 23.2695 4.55281H23.1361V4.14721C23.1361 2.87041 21.8804 1.83121 20.3347 1.83121H19.3255V1.20961C19.3255 1.01041 19.1312 0.849609 18.8905 0.849609H17.0577C16.817 0.849609 16.6227 1.01041 16.6227 1.20961V1.83121H15.6135C14.0707 1.83121 12.815 2.87041 12.815 4.14721V4.55281H12.6816C11.8928 4.55281 11.2519 5.08321 11.2519 5.73601V5.80561C11.2519 6.45841 11.8928 6.98881 12.6816 6.98881H13.3834C13.3834 6.98881 13.3805 7.00561 13.3776 7.01281C12.5221 7.10881 11.8609 7.71361 11.8609 8.44561C11.8609 9.17761 12.5279 9.78961 13.3863 9.88081C13.7749 11.172 14.6768 12.2352 15.8426 12.8304V13.9368H13.9344C13.0876 13.9368 12.2988 14.2176 11.7188 14.7312C11.1388 15.2448 10.8488 15.9096 10.901 16.6104L11.162 20.0232C11.1765 20.2224 11.3824 20.3688 11.6231 20.3592C11.8522 20.3472 12.0291 20.1888 12.0291 19.9992C12.0291 19.992 12.0291 19.9848 12.0291 19.9776L11.7681 16.5648C11.7304 16.0656 11.9363 15.588 12.351 15.2232C12.7657 14.8584 13.3283 14.6568 13.9315 14.6568H14.2128V17.376H13.3051V19.9992C13.3051 20.1984 13.4994 20.3592 13.7401 20.3592C13.9808 20.3592 14.1751 20.1984 14.1751 19.9992V18.096H21.7673V19.9992C21.7673 20.1984 21.9616 20.3592 22.2023 20.3592C22.443 20.3592 22.6373 20.1984 22.6373 19.9992V17.376H21.7296V14.6568H22.0109C22.617 14.6568 23.1767 14.8584 23.5914 15.2232C24.0061 15.588 24.212 16.0656 24.1743 16.5648L23.9133 19.9752C23.9133 19.9752 23.893 19.992 23.8814 19.9992C19.92 23.1648 13.6618 23.232 9.60763 20.196L9.63663 20.1768C10.1006 19.8864 10.1934 19.3392 9.84253 18.9552L8.96093 17.9904L8.61873 18.204L7.99523 17.52C7.85023 17.3616 7.57763 17.3304 7.38623 17.4504C7.19483 17.5704 7.15713 17.796 7.30213 17.9544L7.92563 18.6384L7.26443 19.0512L6.64093 18.3672C6.49593 18.2088 6.22333 18.1776 6.03193 18.2976C5.84053 18.4176 5.80283 18.6432 5.94783 18.8016L6.57133 19.4856L6.22913 19.6992L7.11073 20.664C7.31663 20.892 7.63273 21.012 7.95463 21.012C8.17503 21.012 8.39833 20.9544 8.58973 20.8368L8.90583 20.64C11.0112 22.2648 13.7343 23.1576 16.6227 23.1576C19.5111 23.1576 22.4894 22.1808 24.6296 20.4096C24.7224 20.3328 24.7601 20.232 24.7514 20.1312C24.7659 20.0976 24.7775 20.064 24.7804 20.0256L25.0414 16.6128C25.0936 15.912 24.8036 15.2448 24.2236 14.7336L24.2323 14.7312ZM7.81543 20.2296L7.45873 19.8384L8.80143 19.0008L9.15813 19.392C9.21903 19.4592 9.20453 19.5552 9.12333 19.6056L8.78403 19.8168C8.72603 19.8336 8.66803 19.86 8.62163 19.8984C8.60713 19.9104 8.60133 19.9248 8.58973 19.9368L8.07353 20.2584C7.99233 20.3088 7.87633 20.2944 7.81543 20.2296ZM14.1606 9.43441C14.1316 9.30961 14.1113 9.18481 14.091 9.05761C14.0649 8.86081 14.0446 8.66161 14.0446 8.45761V8.40241C14.0446 8.21041 14.062 8.02321 14.0852 7.83841C14.1026 7.71121 14.1229 7.58401 14.149 7.45921C14.1751 7.33681 14.207 7.21681 14.2418 7.10161C14.2534 7.06561 14.2679 7.02961 14.2795 6.99361H21.6658C21.6774 7.02961 21.6919 7.06561 21.7035 7.10161C21.7383 7.21921 21.7702 7.33921 21.7963 7.45921C21.8224 7.58401 21.8456 7.71121 21.8601 7.83841C21.8833 8.02081 21.9007 8.20801 21.9007 8.39761V8.44801C21.9007 8.65441 21.8804 8.85601 21.8543 9.05521C21.8369 9.18241 21.8137 9.30961 21.7847 9.43201C21.7557 9.55441 21.7238 9.67441 21.6861 9.78961C21.399 10.6848 20.8335 11.4456 20.0998 11.952C19.9606 12.048 19.8156 12.132 19.6648 12.2088C19.5227 12.2808 19.3806 12.3456 19.2298 12.3984C18.8325 12.5424 18.412 12.624 17.9683 12.624C17.5246 12.624 17.1041 12.5424 16.7068 12.3984C16.556 12.3432 16.4139 12.2808 16.2718 12.2088C16.121 12.132 15.976 12.048 15.8368 11.952C15.1002 11.4456 14.5376 10.6848 14.2505 9.78961C14.2128 9.67201 14.1809 9.55201 14.1519 9.43201L14.1606 9.43441ZM12.7309 8.44801C12.7309 8.16481 12.931 7.92001 13.2181 7.80001C13.192 8.00161 13.1775 8.20801 13.1775 8.41681V8.44801C13.1775 8.66881 13.1949 8.88481 13.2239 9.09841C12.9339 8.97841 12.7309 8.73361 12.7309 8.44801ZM12.1219 5.80801V5.73841C12.1219 5.48401 12.3742 5.27521 12.6816 5.27521H23.2666C23.574 5.27521 23.8263 5.48401 23.8263 5.73841V5.80801C23.8263 6.06241 23.574 6.27121 23.2666 6.27121H12.6816C12.3742 6.27121 12.1219 6.06241 12.1219 5.80801ZM13.685 4.14961C13.685 3.26881 14.5521 2.55361 15.6135 2.55361H16.6227V4.55761H13.685V4.15201V4.14961ZM17.4927 1.83361V1.57201H18.4555V4.55761H17.4927V1.82881V1.83361ZM22.2632 4.55761H19.3255V2.55361H20.3347C21.399 2.55361 22.2661 3.27121 22.2661 4.14961V4.55521L22.2632 4.55761ZM23.2173 8.45041C23.2173 8.73601 23.0143 8.98321 22.7214 9.10081C22.7504 8.88241 22.7707 8.66161 22.7707 8.43601V8.40241C22.7707 8.19841 22.7562 7.99921 22.733 7.80241C23.0201 7.92241 23.2173 8.16721 23.2173 8.45041ZM20.8625 17.3808H15.0828V14.6616H16.2776C16.5183 14.6616 16.7126 14.5008 16.7126 14.3016V13.1736C17.1157 13.2864 17.5362 13.3512 17.9741 13.3512C18.412 13.3512 18.8325 13.2864 19.2356 13.1736V14.3016C19.2356 14.5008 19.4299 14.6616 19.6706 14.6616H20.8654V17.3808H20.8625Z" fill="white"/>
<path d="M19.1313 8.13836C19.2647 8.20076 19.4213 8.20076 19.5547 8.13836C19.5895 8.12156 19.6214 8.10956 19.6504 8.08556C19.7345 8.01596 19.8679 8.01596 19.952 8.08556C19.9984 8.12396 20.0535 8.15036 20.1115 8.16716C20.1608 8.18156 20.2101 8.19117 20.2594 8.19117C20.3696 8.19117 20.4827 8.15516 20.5668 8.08556C20.7379 7.94396 20.7379 7.71596 20.5668 7.57676C20.1434 7.22636 19.459 7.22636 19.0356 7.57676C18.966 7.63436 18.9341 7.70636 18.9196 7.77836C18.8993 7.88636 18.9341 8.00156 19.0356 8.08556C19.0646 8.10956 19.0994 8.12396 19.1313 8.13836Z" fill="white"/>
<path d="M15.8485 8.16716C15.9065 8.15036 15.9616 8.12396 16.008 8.08556C16.0921 8.01596 16.2255 8.01596 16.3096 8.08556C16.3386 8.10956 16.3734 8.12396 16.4053 8.13836C16.472 8.16956 16.5416 8.19117 16.617 8.19117C16.6924 8.19117 16.762 8.16956 16.8287 8.13836C16.8635 8.12156 16.8954 8.10956 16.9244 8.08556C17.0259 8.00156 17.0578 7.88636 17.0404 7.77836C17.0259 7.70396 16.994 7.63196 16.9244 7.57676C16.501 7.22636 15.8137 7.22636 15.3932 7.57676C15.2221 7.71836 15.2221 7.94636 15.3932 8.08556C15.5179 8.18876 15.6948 8.21276 15.8485 8.16716Z" fill="white"/>
<path d="M17.9771 9.68879C18.2207 9.68879 18.4527 9.60959 18.6238 9.46559C18.7949 9.32399 18.7949 9.09599 18.6238 8.95679C18.4556 8.81519 18.1772 8.81519 18.009 8.95679C17.9945 8.96879 17.9597 8.96879 17.9423 8.95679C17.7712 8.81519 17.4957 8.81519 17.3275 8.95679C17.1564 9.09839 17.1564 9.32639 17.3275 9.46559C17.5015 9.60959 17.7306 9.68879 17.9742 9.68879H17.9771Z" fill="white"/>
<path d="M16.2834 10.3274C16.2254 10.3706 16.1703 10.4186 16.1239 10.4738C15.9847 10.637 16.0311 10.8602 16.2283 10.9754C16.2457 10.985 16.266 10.9946 16.2834 11.0018C16.4255 11.0618 16.5908 11.0522 16.7184 10.9826C16.7619 10.9586 16.8025 10.9274 16.8344 10.8914C16.9156 10.7978 17.0519 10.757 17.194 10.817C17.3854 10.8962 17.6203 10.8482 17.7421 10.7042C17.7508 10.6946 17.7624 10.6922 17.7711 10.685C17.8813 10.589 18.0727 10.589 18.1829 10.685C18.1916 10.6922 18.2032 10.697 18.2119 10.7042C18.3366 10.8482 18.5686 10.8962 18.76 10.817C18.9021 10.757 19.0413 10.7978 19.1196 10.8914C19.1515 10.9298 19.1921 10.9586 19.2356 10.9802C19.3081 11.0186 19.3893 11.0426 19.4734 11.0426C19.5401 11.0426 19.6068 11.0258 19.6706 10.9994C19.688 10.9922 19.7083 10.9874 19.7257 10.9778C19.9229 10.8626 19.9693 10.637 19.8301 10.4762C19.7837 10.4234 19.7286 10.3754 19.6706 10.3298C19.5459 10.2338 19.3951 10.1618 19.2356 10.1186C19.0587 10.0706 18.8702 10.0562 18.6846 10.085C18.2815 9.82583 17.6667 9.82583 17.2636 10.085C17.078 10.0562 16.8895 10.0706 16.7126 10.1186C16.5531 10.1618 16.4023 10.2338 16.2776 10.3298L16.2834 10.3274Z" fill="white"/>
<path d="M18.4323 11.0881C18.1829 11.2945 17.774 11.2945 17.5246 11.0881C17.3535 10.9489 17.078 10.9465 16.9098 11.0881C16.7387 11.2297 16.7387 11.4577 16.9098 11.5969C17.2056 11.8417 17.5913 11.9617 17.9799 11.9617C18.3685 11.9617 18.7542 11.8393 19.05 11.5945C19.2211 11.4529 19.2211 11.2249 19.05 11.0857C18.8789 10.9441 18.6034 10.9441 18.4352 11.0857L18.4323 11.0881Z" fill="white"/>
<path d="M19.3661 15.0623C18.6005 15.6959 17.3564 15.6959 16.5908 15.0623C16.4197 14.9207 16.1442 14.9207 15.976 15.0623C15.8049 15.2039 15.8049 15.4319 15.976 15.5711C16.527 16.0271 17.2549 16.2575 17.9799 16.2575C18.7049 16.2575 19.4299 16.0295 19.9838 15.5711C20.1549 15.4295 20.1549 15.2015 19.9838 15.0623C19.8127 14.9207 19.5372 14.9207 19.369 15.0623H19.3661Z" fill="white"/>
<path d="M6.19431 15.5567L9.95561 10.4687C10.0368 10.3583 10.0397 10.2191 9.96431 10.1039C9.88601 9.99109 9.74101 9.91909 9.58441 9.91909H7.91111L8.56651 6.22549C8.59551 6.05509 8.47951 5.89189 8.28521 5.83429C8.09091 5.77429 7.87341 5.83909 7.76611 5.98549L4.00481 11.0735C3.92361 11.1839 3.92071 11.3231 3.99611 11.4383C4.07441 11.5511 4.21941 11.6231 4.37601 11.6231H6.04931L5.39391 15.3167C5.36491 15.4871 5.48091 15.6503 5.67521 15.7079C5.72451 15.7223 5.77381 15.7295 5.82311 15.7295C5.97101 15.7295 6.11311 15.6671 6.19431 15.5567ZM5.15321 10.9031L7.39781 7.86709L6.97731 10.2287C6.95991 10.3319 6.99471 10.4375 7.07881 10.5167C7.16291 10.5959 7.28181 10.6415 7.40941 10.6415H8.81011L6.56551 13.6775L6.98601 11.3159C7.00341 11.2127 6.96861 11.1071 6.88451 11.0279C6.80041 10.9487 6.68151 10.9031 6.55391 10.9031H5.15321Z" fill="white"/>
</svg>
