<svg width="23" height="33" viewBox="0 0 23 33" fill="none" xmlns="http://www.w3.org/2000/svg">
<path d="M3.95313 14.4375C3.59774 14.4375 3.25033 14.5585 2.95484 14.7851C2.65934 15.0117 2.42903 15.3338 2.29303 15.7107C2.15703 16.0876 2.12144 16.5023 2.19078 16.9024C2.26011 17.3025 2.43125 17.67 2.68254 17.9584C2.93384 18.2469 3.25401 18.4433 3.60257 18.5229C3.95113 18.6025 4.31242 18.5616 4.64076 18.4055C4.9691 18.2494 5.24973 17.985 5.44717 17.6459C5.64462 17.3067 5.75 16.9079 5.75 16.5C5.74943 15.9532 5.55993 15.429 5.22308 15.0423C4.88622 14.6557 4.42951 14.4382 3.95313 14.4375ZM3.95313 17.7375C3.73989 17.7375 3.53145 17.6649 3.35415 17.5289C3.17685 17.393 3.03867 17.1997 2.95707 16.9736C2.87547 16.7474 2.85412 16.4986 2.89572 16.2586C2.93732 16.0185 3.04 15.798 3.19078 15.625C3.34155 15.4519 3.53366 15.334 3.74279 15.2863C3.95193 15.2385 4.1687 15.263 4.36571 15.3567C4.56271 15.4504 4.73109 15.609 4.84955 15.8125C4.96802 16.016 5.03125 16.2552 5.03125 16.5C5.03125 16.8282 4.91766 17.143 4.71548 17.375C4.51329 17.6071 4.23906 17.7375 3.95313 17.7375Z" fill="white"/>
<path d="M9.70313 14.4375C9.34774 14.4375 9.00033 14.5585 8.70484 14.7851C8.40934 15.0117 8.17903 15.3338 8.04303 15.7107C7.90703 16.0876 7.87144 16.5023 7.94078 16.9024C8.01011 17.3025 8.18125 17.67 8.43254 17.9584C8.68384 18.2469 9.00401 18.4433 9.35257 18.5229C9.70113 18.6025 10.0624 18.5616 10.3908 18.4055C10.7191 18.2494 10.9997 17.985 11.1972 17.6459C11.3946 17.3067 11.5 16.9079 11.5 16.5C11.4994 15.9532 11.3099 15.429 10.9731 15.0423C10.6362 14.6557 10.1795 14.4382 9.70313 14.4375ZM9.70313 17.7375C9.48989 17.7375 9.28145 17.6649 9.10415 17.5289C8.92686 17.393 8.78867 17.1997 8.70707 16.9736C8.62547 16.7474 8.60412 16.4986 8.64572 16.2586C8.68732 16.0185 8.79 15.798 8.94078 15.625C9.09155 15.4519 9.28366 15.334 9.49279 15.2863C9.70193 15.2385 9.91871 15.263 10.1157 15.3567C10.3127 15.4504 10.4811 15.609 10.5996 15.8125C10.718 16.016 10.7813 16.2552 10.7813 16.5C10.7813 16.8282 10.6677 17.143 10.4655 17.375C10.2633 17.6071 9.98906 17.7375 9.70313 17.7375Z" fill="white"/>
<path d="M19.0469 12.7875H18.2002C18.7216 12.3061 19.0999 11.6507 19.283 10.912C19.466 10.1732 19.4448 9.3874 19.2222 8.66307C18.9996 7.93875 18.5866 7.31159 18.0402 6.86816C17.4938 6.42473 16.841 6.1869 16.1719 6.1875H6.82812C6.15897 6.1869 5.50616 6.42473 4.95978 6.86816C4.41341 7.31159 4.00042 7.93875 3.77782 8.66307C3.55522 9.3874 3.53398 10.1732 3.71704 10.912C3.9001 11.6507 4.27843 12.3061 4.79981 12.7875H3.95312C3.09532 12.7875 2.27264 13.1786 1.66608 13.8749C1.05951 14.5711 0.71875 15.5154 0.71875 16.5C0.71875 17.4846 1.05951 18.4289 1.66608 19.1251C2.27264 19.8214 3.09532 20.2125 3.95312 20.2125H19.0469C19.9047 20.2125 20.7274 19.8214 21.3339 19.1251C21.9405 18.4289 22.2812 17.4846 22.2812 16.5C22.2812 15.5154 21.9405 14.5711 21.3339 13.8749C20.7274 13.1786 19.9047 12.7875 19.0469 12.7875ZM16.1719 7.0125C16.8391 7.0125 17.4789 7.31672 17.9507 7.85823C18.4225 8.39974 18.6875 9.13419 18.6875 9.9C18.6875 10.6658 18.4225 11.4003 17.9507 11.9418C17.4789 12.4833 16.8391 12.7875 16.1719 12.7875H8.85644C9.2329 12.4405 9.53671 12.0009 9.74546 11.5011C9.95421 11.0014 10.0626 10.4542 10.0626 9.9C10.0626 9.34578 9.95421 8.79863 9.74546 8.29888C9.53671 7.79914 9.2329 7.35954 8.85644 7.0125H16.1719ZM4.3125 9.9C4.3125 9.32891 4.46004 8.77064 4.73646 8.29579C5.01288 7.82094 5.40577 7.45085 5.86544 7.2323C6.32511 7.01375 6.83092 6.95657 7.3189 7.06798C7.80688 7.1794 8.25512 7.45441 8.60694 7.85823C8.95876 8.26205 9.19835 8.77656 9.29541 9.33668C9.39248 9.8968 9.34266 10.4774 9.15226 11.005C8.96186 11.5326 8.63942 11.9836 8.22573 12.3009C7.81204 12.6182 7.32567 12.7875 6.82812 12.7875C6.16117 12.7866 5.52176 12.4821 5.05015 11.9408C4.57854 11.3995 4.31326 10.6655 4.3125 9.9ZM7.67481 13.6125C7.32303 13.9392 7.03463 14.3466 6.82812 14.8088C6.62162 14.3466 6.33322 13.9392 5.98144 13.6125H7.67481ZM3.95312 19.3875C3.45558 19.3875 2.96921 19.2182 2.55552 18.9009C2.14183 18.5836 1.81939 18.1326 1.62899 17.605C1.43859 17.0774 1.38877 16.4968 1.48584 15.9367C1.5829 15.3766 1.82249 14.8621 2.17431 14.4582C2.52613 14.0544 2.97437 13.7794 3.46235 13.668C3.95033 13.5566 4.45614 13.6138 4.91581 13.8323C5.37548 14.0508 5.76837 14.4209 6.04479 14.8958C6.32121 15.3706 6.46875 15.9289 6.46875 16.5C6.46799 17.2655 6.20271 17.9995 5.7311 18.5408C5.25949 19.0821 4.62008 19.3866 3.95312 19.3875ZM5.98144 19.3875C6.33322 19.0608 6.62162 18.6534 6.82812 18.1912C7.03463 18.6534 7.32303 19.0608 7.67481 19.3875H5.98144ZM9.70312 19.3875C9.20558 19.3875 8.71921 19.2182 8.30552 18.9009C7.89183 18.5836 7.56939 18.1326 7.37899 17.605C7.18859 17.0774 7.13877 16.4968 7.23584 15.9367C7.3329 15.3766 7.57249 14.8621 7.92431 14.4582C8.27613 14.0544 8.72437 13.7794 9.21235 13.668C9.70033 13.5566 10.2061 13.6138 10.6658 13.8323C11.1255 14.0508 11.5184 14.4209 11.7948 14.8958C12.0712 15.3706 12.2188 15.9289 12.2188 16.5C12.218 17.2655 11.9527 17.9995 11.4811 18.5408C11.0095 19.0821 10.3701 19.3866 9.70312 19.3875ZM19.0469 19.3875H11.7314C12.1079 19.0405 12.4117 18.6009 12.6205 18.1011C12.8292 17.6014 12.9376 17.0542 12.9376 16.5C12.9376 15.9458 12.8292 15.3986 12.6205 14.8989C12.4117 14.3991 12.1079 13.9595 11.7314 13.6125H19.0469C19.7141 13.6125 20.3539 13.9167 20.8257 14.4582C21.2975 14.9997 21.5625 15.7342 21.5625 16.5C21.5625 17.2658 21.2975 18.0003 20.8257 18.5418C20.3539 19.0833 19.7141 19.3875 19.0469 19.3875Z" fill="white"/>
<path d="M6.82813 11.9624C7.18351 11.9624 7.53092 11.8414 7.82642 11.6148C8.12191 11.3882 8.35222 11.0661 8.48822 10.6892C8.62422 10.3123 8.65981 9.89761 8.59047 9.49753C8.52114 9.09744 8.35001 8.72994 8.09871 8.4415C7.84741 8.15305 7.52724 7.95662 7.17868 7.87703C6.83012 7.79745 6.46883 7.8383 6.14049 7.9944C5.81215 8.15051 5.53152 8.41486 5.33408 8.75404C5.13664 9.09322 5.03125 9.49198 5.03125 9.8999C5.03182 10.4467 5.22132 10.9709 5.55817 11.3576C5.89503 11.7442 6.35174 11.9617 6.82813 11.9624ZM6.82813 8.6624C7.04136 8.6624 7.2498 8.73498 7.4271 8.87096C7.6044 9.00694 7.74258 9.20021 7.82418 9.42633C7.90578 9.65246 7.92713 9.90128 7.88553 10.1413C7.84393 10.3814 7.74125 10.6019 7.59047 10.7749C7.4397 10.948 7.24759 11.0659 7.03846 11.1136C6.82932 11.1614 6.61255 11.1369 6.41554 11.0432C6.21854 10.9495 6.05016 10.7909 5.9317 10.5874C5.81323 10.3839 5.75 10.1447 5.75 9.8999C5.75 9.5717 5.86359 9.25693 6.06578 9.02486C6.26796 8.79278 6.54219 8.6624 6.82813 8.6624Z" fill="white"/>
</svg>
