<svg width="304" height="55" viewBox="0 0 304 55" fill="none" xmlns="http://www.w3.org/2000/svg">
<g clip-path="url(#clip0_504_156)">
<path d="M30.3 0.700195V28.5002C30.3 29.8002 29.3 30.7002 28.1 30.7002H24.8C24.6 30.7002 24.5 30.9002 24.5 31.0002V54.3002C25.3 54.3002 26.1 54.5002 27 54.5002C41.9 54.5002 54 42.4002 54 27.5002C54 13.8002 43.7 2.3002 30.3 0.700195ZM29.7 42.3002C27.8 42.3002 26.4 40.7002 26.4 39.0002C26.4 37.1002 28 35.7002 29.7 35.7002C31.6 35.7002 33 37.3002 33 39.0002C33.2 40.8002 31.6 42.3002 29.7 42.3002ZM37.6 42.3002C35.7 42.3002 34.3 40.7002 34.3 39.0002C34.3 37.1002 35.9 35.7002 37.6 35.7002C39.5 35.7002 40.9 37.3002 40.9 39.0002C40.9 40.7002 39.6 42.3002 37.6 42.3002ZM45.6 42.3002C43.7 42.3002 42.3 40.7002 42.3 39.0002C42.3 37.1002 43.9 35.7002 45.6 35.7002C47.5 35.7002 48.9 37.3002 48.9 39.0002C48.9 40.7002 47.5 42.3002 45.6 42.3002Z" fill="#00B956"/>
<path d="M27 0.600098C12.1 0.600098 0 12.7001 0 27.6001C0 40.7001 9.1 51.4001 21.3 53.9001V29.6001C21.3 28.5001 22.3 27.6001 23.3 27.4001H26.6C26.8 27.4001 26.9 27.2001 26.9 27.1001L27 0.600098ZM21.8 22.8001C19.9 22.8001 18.5 21.2001 18.5 19.5001C18.5 17.6001 20.1 16.2001 21.8 16.2001C23.7 16.2001 25.1 17.8001 25.1 19.5001C25.1 21.2001 23.6 22.8001 21.8 22.8001Z" fill="#00B956"/>
<path d="M297.3 15.2999V25.4999H283.7V15.2999H276.8V42.2999H283.7V31.3999H297.3V42.2999H304V15.2999H297.3ZM184.9 18.3999C183.8 15.9999 181.6 14.6999 179.4 14.6999C177.2 14.6999 174.9 15.9999 173.9 18.3999L163 42.3999H170.2L172.6 36.6999H186.6L189 42.3999H196.2L184.9 18.3999ZM174.5 31.2999L178.6 21.3999C178.8 21.0999 178.9 21.0999 179.1 21.0999C179.3 21.0999 179.6 21.0999 179.6 21.3999L183.7 31.2999H174.5ZM104.5 10.4999C101.3 10.4999 99.2996 12.1999 97.7996 15.5999L89.0996 35.8999L80.2996 15.4999C78.8996 12.1999 76.7996 10.3999 73.5996 10.3999C70.5996 10.3999 67.5996 12.3999 67.5996 17.0999V42.1999H74.2996V17.9999L83.1996 38.0999C84.2996 40.9999 86.3996 42.6999 89.0996 42.6999C91.9996 42.6999 93.8996 40.9999 94.9996 38.0999L103.9 17.9999V42.4999H110.6V17.3999C110.5 12.6999 107.5 10.4999 104.5 10.4999ZM122.4 36.5999C122.1 36.5999 121.7 36.2999 121.7 35.8999V31.0999H138.5V25.5999H121.7V21.4999C121.7 21.1999 122 20.7999 122.4 20.7999H139.1V15.0999H119.1C116.7 15.0999 115.1 16.9999 115.1 19.0999V37.9999C115.1 39.9999 116.8 41.9999 119.1 41.9999H139.1V36.2999H122.4V36.5999ZM150.4 42.2999V21.6999C150.4 21.3999 150.7 20.9999 151.1 20.9999H167.8V15.2999H147.8C145.4 15.2999 143.8 17.1999 143.8 19.2999V42.1999L150.4 42.2999ZM272.4 28.8999C272.4 19.4999 268.3 15.0999 258.1 15.0999H255.7C245.5 15.0999 241.4 19.5999 241.4 28.8999C241.4 38.0999 245.5 42.6999 255.7 42.6999H257.9C268.3 42.4999 272.4 38.0999 272.4 28.8999ZM257.9 36.9999H255.7C250.2 36.9999 247.9 34.4999 247.9 28.8999C247.9 23.4999 249.8 20.7999 255.7 20.7999H257.9C263.6 20.7999 265.7 23.4999 265.7 28.8999C265.7 34.3999 263.6 36.9999 257.9 36.9999ZM222.7 11.0999H209.3C199.3 11.0999 195.3 16.1999 195.3 24.8999C195.3 26.2999 195.5 27.5999 195.6 28.6999C196.7 34.8999 200.4 38.6999 209.7 38.6999H212.7V42.1999H219.4V38.6999H222.3C231.7 38.6999 235.4 34.8999 236.4 28.6999C236.6 27.5999 236.7 26.2999 236.7 24.8999C236.6 16.1999 232.5 11.0999 222.7 11.0999ZM212.5 33.0999H209.5C204.9 33.0999 203.3 31.3999 202.3 28.5999C202 27.5999 202 26.1999 202 24.7999C202 19.0999 204.7 16.6999 208.5 16.6999H212.6V33.0999H212.5ZM229.7 28.8999C228.7 31.5999 227 33.3999 222.5 33.3999H219.5V16.8999H223.6C227.4 16.8999 230.1 19.2999 230.1 24.9999C230 26.4999 230 27.6999 229.7 28.8999Z" fill="#00B956"/>
</g>
<defs>
<clipPath id="clip0_504_156">
<rect width="304" height="55" fill="white"/>
</clipPath>
</defs>
</svg>
