<svg width="34" height="24" viewBox="0 0 34 24" fill="none" xmlns="http://www.w3.org/2000/svg">
<path fill-rule="evenodd" clip-rule="evenodd" d="M7.89014 0.524727C6.92326 -0.158479 5.35838 -0.158479 4.3915 0.524727C3.71303 1.00554 2.93589 1.55488 2.14053 2.11815C-1.34901 4.58646 0.00794673 7.50551 2.11321 10.6625C4.8089 14.7038 13.2255 20.8601 18.9658 22.5543C23.5132 23.8971 27.5431 24.9991 31.0266 22.535C31.0266 22.535 32.1953 21.7115 33.27 20.9555C33.7359 20.6278 33.997 20.1824 33.9985 19.7176C34 19.2529 33.739 18.8074 33.273 18.4787C31.9949 17.5749 30.386 16.4376 29.7789 16.0082C28.8135 15.325 27.2471 15.325 26.2818 16.0082C25.5653 16.5158 24.7488 17.0919 24.087 17.561C23.2901 18.1242 22.0546 18.2356 21.0832 17.8319C17.8441 16.4355 10.8148 11.4711 8.8281 9.1461C8.25585 8.4629 8.41221 7.59336 9.20452 7.03225C9.8572 6.55572 10.6707 5.98069 11.3872 5.4731C12.3526 4.78989 12.3526 3.68265 11.3872 2.99944C10.3186 2.24342 8.95712 1.28073 7.89007 0.525787L7.89014 0.524727ZM18.2144 1.71336C25.5867 1.71336 31.5714 5.93563 31.5714 11.1368C31.5714 11.6102 32.1148 11.9935 32.7857 11.9935C33.4566 11.9935 34 11.6102 34 11.1368C34 4.99013 26.9269 0 18.2144 0C17.5435 0 17.0001 0.383354 17.0001 0.85668C17.0001 1.33001 17.5435 1.71336 18.2144 1.71336ZM18.2144 8.5668C20.2256 8.5668 21.8572 9.71796 21.8572 11.1368C21.8572 11.6102 22.4006 11.9935 23.0715 11.9935C23.7424 11.9935 24.2858 11.6102 24.2858 11.1368C24.2858 8.77241 21.5658 6.85344 18.2144 6.85344C17.5435 6.85344 17.0001 7.2368 17.0001 7.71012C17.0001 8.18345 17.5435 8.5668 18.2144 8.5668ZM18.2144 5.14008C22.9044 5.14008 26.7143 7.82792 26.7143 11.1368C26.7143 11.6102 27.2577 11.9935 27.9286 11.9935C28.5995 11.9935 29.1429 11.6102 29.1429 11.1368C29.1429 6.8814 24.2462 3.42672 18.2144 3.42672C17.5435 3.42672 17.0001 3.81007 17.0001 4.2834C17.0001 4.75673 17.5435 5.14008 18.2144 5.14008Z" fill="white"/>
</svg>
