<svg width="425" height="425" viewBox="0 0 425 425" fill="none" xmlns="http://www.w3.org/2000/svg">
<g clip-path="url(#clip0_502_25)">
<mask id="mask0_502_25" style="mask-type:luminance" maskUnits="userSpaceOnUse" x="0" y="0" width="425" height="425">
<path d="M425 0H0V425H425V0Z" fill="white"/>
</mask>
<g mask="url(#mask0_502_25)">
<path d="M425 0H0V425H425V0Z" fill="#FF0032"/>
<path d="M129.289 32.6846L98.0536 97.554L66.8183 32.6846H32.7344V130.738H56.6231V60.5714L87.1588 119.844H108.949L139.484 60.5714V130.738H163.423V32.6846H129.289Z" fill="white"/>
<path d="M283.167 32.6846V52.2254H325.846L325.746 130.738H349.635L349.735 52.2254H392.465V32.6846H283.167Z" fill="white"/>
<path d="M368.527 359.581C367.927 363.479 366.378 366.727 363.829 369.126C361.43 371.425 358.231 373.024 354.233 373.974C350.285 374.873 344.538 375.423 338.391 375.423C332.244 375.423 326.446 374.623 321.699 372.974C317.101 371.425 313.452 368.676 310.904 364.828C308.305 360.98 307.005 355.383 307.005 348.286V338.241C307.005 331.094 308.305 325.547 310.904 321.698C313.452 317.85 317.101 315.151 321.699 313.552C326.446 311.953 332.044 311.103 338.391 311.103C344.738 311.103 350.285 311.653 354.233 312.553C358.231 313.452 361.43 315.101 363.829 317.4C366.328 319.849 367.927 323.048 368.527 326.946H392.465C391.816 318.85 389.067 311.953 384.269 306.456C379.871 301.408 373.824 297.71 366.278 295.461C358.931 293.262 349.336 292.112 338.441 292.112C326.996 292.112 317.051 293.762 308.855 297.01C300.558 300.308 294.162 305.806 289.714 313.352C285.466 320.599 283.267 330.244 283.117 342.089V343.188L284.416 343.238L283.117 343.288V344.388C283.267 356.232 285.466 365.878 289.714 373.124C294.112 380.671 300.558 386.168 308.855 389.466C317.001 392.715 326.946 394.364 338.441 394.364C349.885 394.364 358.981 393.215 366.278 391.016C373.824 388.767 379.871 385.069 384.269 380.021C389.067 374.524 391.816 367.627 392.465 359.531L368.527 359.581Z" fill="white"/>
</g>
</g>
<defs>
<clipPath id="clip0_502_25">
<rect width="425" height="425" fill="white"/>
</clipPath>
</defs>
</svg>
