<svg width="94" height="74" viewBox="0 0 94 74" fill="none" xmlns="http://www.w3.org/2000/svg">
<path d="M18.8476 67.516H83.3006C84.5936 67.516 85.7694 66.9886 86.6209 66.1371C87.4725 65.2855 87.9998 64.1098 87.9998 62.8168V6.48878H19.6208V63.7078C19.6208 65.0594 19.3476 66.3441 18.8476 67.516ZM60.0816 36.379H80.6206C82.2768 36.379 83.6206 37.7228 83.6206 39.379V57.539C83.6206 59.1952 82.2768 60.539 80.6206 60.539H60.0816C58.4254 60.539 57.0816 59.1952 57.0816 57.539V39.379C57.0816 37.7228 58.4254 36.379 60.0816 36.379ZM77.6206 42.379H63.0816V54.539H77.6206V42.379ZM32.0776 19.461C30.4214 19.461 29.0776 18.1172 29.0776 16.461C29.0776 14.8048 30.4214 13.461 32.0776 13.461H75.5426C77.1988 13.461 78.5426 14.8048 78.5426 16.461C78.5426 18.1172 77.1988 19.461 75.5426 19.461H32.0776ZM26.9995 60.543C25.3433 60.543 23.9995 59.1992 23.9995 57.543C23.9995 55.8868 25.3433 54.543 26.9995 54.543H50.7845C52.4407 54.543 53.7845 55.8868 53.7845 57.543C53.7845 59.1992 52.4407 60.543 50.7845 60.543H26.9995ZM26.9995 46.848C25.3433 46.848 23.9995 45.5042 23.9995 43.848C23.9995 42.1918 25.3433 40.848 26.9995 40.848H50.7845C52.4407 40.848 53.7845 42.1918 53.7845 43.848C53.7845 45.5042 52.4407 46.848 50.7845 46.848H26.9995ZM26.9995 33.153C25.3433 33.153 23.9995 31.8092 23.9995 30.153C23.9995 28.4968 25.3433 27.153 26.9995 27.153H80.6205C82.2767 27.153 83.6205 28.4968 83.6205 30.153C83.6205 31.8092 82.2767 33.153 80.6205 33.153H26.9995ZM83.3005 73.512H9.8125C7.1094 73.512 4.6563 72.4065 2.8789 70.6331C1.1055 68.8597 0 66.4026 0 63.7034V11.4844C0 9.82817 1.3438 8.48438 3 8.48438H13.621V3.48438C13.621 1.82817 14.9648 0.484375 16.621 0.484375H91C92.6562 0.484375 94 1.82817 94 3.48438V62.8124C94 65.7616 92.7969 68.4374 90.8633 70.3749C88.9258 72.3124 86.2497 73.512 83.3005 73.512ZM13.6205 63.7034V14.4844H5.9994V63.7034C5.9994 64.7464 6.42909 65.6995 7.1205 66.3909C7.81191 67.0823 8.765 67.512 9.808 67.512C10.851 67.512 11.8041 67.0823 12.4955 66.3909C13.1869 65.6995 13.6166 64.7464 13.6166 63.7034H13.6205Z" fill="black"/>
</svg>
