<svg width="416" height="431" viewBox="0 0 416 431" fill="none" xmlns="http://www.w3.org/2000/svg">
<g clip-path="url(#clip0_505_1005)">
<path d="M334.917 362.111C334.199 362.111 332.603 367.198 334.248 370.801C335.125 372.723 337.183 373.536 338.907 372.999C340.609 372.469 341.101 370.957 341.146 369.784C341.305 365.827 337.599 362.118 334.921 362.118L334.917 362.111ZM322.577 304.456L323.118 310.037L317.963 309.5V315.859L323.118 315.319L322.577 321.148H329.574L329.037 315.319L334.191 315.856V309.497L329.037 310.037L329.577 304.456H322.577ZM326.087 326.454C324.688 326.454 323.561 327.535 323.561 328.871C323.561 330.206 324.695 331.287 326.087 331.287C327.486 331.287 328.613 330.206 328.613 328.874C328.613 327.542 327.479 326.461 326.087 326.461V326.454ZM326.087 336.233C324.688 336.233 323.561 337.314 323.561 338.646C323.561 339.981 324.695 341.062 326.087 341.062C327.486 341.062 328.613 339.981 328.613 338.646C328.613 337.314 327.479 336.233 326.087 336.233ZM326.087 346.15C324.688 346.15 323.561 347.231 323.561 348.562C323.561 349.898 324.695 350.979 326.087 350.979C327.486 350.979 328.613 349.894 328.613 348.559C328.613 347.227 327.479 346.15 326.087 346.15ZM334.24 348.562C334.24 349.898 335.375 350.979 336.767 350.979C338.166 350.979 339.293 349.894 339.293 348.559C339.293 347.227 338.158 346.146 336.767 346.146C335.375 346.146 334.244 347.227 334.244 348.559L334.24 348.562ZM344.83 348.562C344.83 349.898 345.957 350.979 347.352 350.979C348.744 350.979 349.874 349.894 349.874 348.559C349.874 347.227 348.74 346.146 347.352 346.146C345.953 346.146 344.826 347.227 344.826 348.559L344.83 348.562ZM326.091 359.426C323.935 359.426 318.603 369.685 322.574 374.875C323.33 375.864 324.665 376.429 326.091 376.429C327.516 376.429 328.851 375.864 329.608 374.875C333.579 369.681 328.246 359.426 326.091 359.426ZM317.256 362.111C314.571 362.111 310.865 365.831 311.028 369.784C311.073 370.957 311.568 372.469 313.266 372.999C314.987 373.536 317.048 372.723 317.926 370.808C319.571 367.198 317.971 362.118 317.253 362.118L317.256 362.111ZM313.145 348.562C313.145 349.898 314.272 350.979 315.668 350.979C317.067 350.979 318.194 349.894 318.194 348.559C318.194 347.227 317.06 346.146 315.668 346.146C314.269 346.146 313.145 347.231 313.145 348.562ZM302.821 348.562C302.821 349.898 303.956 350.979 305.347 350.979C306.747 350.979 307.881 349.894 307.881 348.559C307.881 347.227 306.747 346.146 305.347 346.146C303.956 346.146 302.825 347.227 302.825 348.559L302.821 348.562ZM300.333 348.562C300.333 346.506 300.711 344.652 300.711 344.652H321.692V324.522C311.565 326.182 303.464 333.495 301.051 342.945C300.465 343.73 298.563 344.132 297.22 343.991C289.479 343.108 273.811 340.458 273.811 337.339C273.811 332.947 276.987 331.192 280.036 331.192C284.385 331.192 289.188 333.396 293.196 327.97C278.95 328.581 289.868 309.31 278.183 305.653C278.765 310.574 278.19 319.233 276.348 323.812C276.348 323.812 272.162 319.618 267.461 318.039C267.813 321.614 267.098 329.019 265.392 332.389C265.392 332.389 260.416 328.072 255.25 326.454C260.015 332.926 259.852 342.154 258.57 347.768C258.199 349.393 259.489 351.406 263.123 351.265C268.804 351.025 288.208 351.83 296.63 355.045C299.24 356.052 301.486 357.2 302.579 358.949C303.468 361.302 305.673 364.947 308.388 366.816C309.609 362.747 314.806 358.391 318.19 358.55C319.2 358.596 320.32 360.175 320.55 361.729C320.853 360.281 323.349 356.303 326.083 356.303C328.609 356.303 331.037 359.634 331.877 362.386C332.13 360.62 333.246 358.73 334.259 358.73C337.655 358.73 341.936 361.556 343.544 366.219C344.848 364.693 350.843 357.483 351.516 352.752H300.715C300.715 352.752 300.336 350.71 300.336 348.566L300.333 348.562ZM330.474 324.525V344.655H351.478C349.648 334.392 341.191 326.288 330.474 324.525ZM82.689 341.101C83.1277 341.242 83.574 341.136 84.0126 340.925C82.5982 342.762 82.6512 343.98 83.2676 344.549C84.2244 345.432 84.9316 343.807 87.352 341.398C89.7724 338.996 91.4515 338.264 90.4909 337.371C89.8858 336.805 88.6076 336.784 86.7091 338.236C86.9133 337.812 86.9927 337.388 86.8414 336.978C86.0397 334.809 82.3146 331.927 80.2611 331.916C79.9434 331.916 79.656 331.987 79.3988 332.093C80.3065 330.729 80.0682 329.704 79.4631 329.143C78.7975 328.524 78.4156 328.955 77.6705 329.849C77.7689 329.227 77.5949 328.493 76.9709 327.599C73.8849 323.229 57.5702 308.84 53.8716 307.391C51.6592 306.529 50.9369 307.727 50.9369 307.727C50.9369 307.727 49.7078 308.469 50.6721 310.564C52.2983 314.079 67.9664 329.1 72.6067 331.93C73.5521 332.506 74.3198 332.647 74.9628 332.531C74.0627 333.273 73.6316 333.651 74.2934 334.269C74.8985 334.834 75.9763 335.021 77.3566 334.106C77.2659 334.361 77.2054 334.636 77.2167 334.94C77.281 336.918 80.3934 340.405 82.6814 341.108L82.689 341.101ZM43.4829 298.531C42.9988 298.531 42.3105 298.637 41.8076 299.142C41.297 299.647 41.1193 300.432 41.3046 301.343C41.5088 302.332 42.1101 303.336 43.0064 304.169C44.0653 305.159 45.4116 305.759 46.5916 305.759C47.0756 305.759 47.7564 305.653 48.2631 305.152C49.3598 304.056 48.819 301.76 47.0718 300.124C46.0016 299.135 44.6628 298.535 43.4791 298.535L43.4829 298.531ZM94.2046 351.936C94.1933 350.417 91.1225 347.866 87.4844 347.866C82.0764 347.866 79.7316 351.081 79.7316 352.721C79.7316 355.808 82.9084 356.204 83.8841 356.253C87.6961 356.476 93.8265 352.826 94.2046 351.936ZM89.553 359.638C88.1159 361.369 87.5751 363.054 87.9457 364.654C88.3995 366.59 90.4417 367.459 92.257 367.459C94.1857 367.459 95.9027 366.611 96.8708 365.181C98.9319 362.121 99.0265 355.352 98.3268 354.611C96.5948 354.611 91.9885 356.709 89.553 359.638ZM42.0798 289.173C40.5482 287.749 37.4282 289.872 35.5562 288.883C36.3882 284.538 39.667 289.102 42.84 285.958C44.0993 284.7 43.4224 282.736 42.6963 282.142C41.3273 283.45 39.217 282.99 39.0506 282.273C42.6509 274.289 35.6167 265.386 28.8586 266.499C30.1822 268.16 30.5793 273.953 30.0045 275.508C32.5761 277.246 30.7382 281.326 27.898 280.136C25.992 279.412 22.63 274.943 26.4988 271.798C26.3853 270.668 24.2599 270.392 21.9984 273.123C23.6548 268.107 13.5158 269.682 11.432 270.887C10.2483 272.925 8.93599 282.722 14.0906 280.973C11.3223 283.234 11.6702 285.262 12.854 285.336C16.0042 281.521 20.7428 284.615 21.5635 286.424C22.8871 289.12 18.6969 291.01 16.8173 288.593C15.21 289.194 9.18937 288.996 7.41948 287.774C6.47403 294.302 15.9437 300.785 24.1276 297.076C24.8839 297.217 25.4134 299.231 24.1086 300.587C24.7516 301.269 26.8051 301.859 28.0796 300.601C31.2412 297.457 26.3929 294.44 30.8894 293.5C31.9786 295.267 29.8684 298.34 31.4 299.768C33.8468 302.046 36.9214 297.627 39.9356 297.45C40.0225 294.543 44.5229 291.455 42.0798 289.173ZM16.7341 279.09C16.7341 279.09 15.1533 278.037 17.048 276.105C18.9918 274.218 20.1415 275.709 20.1415 275.709C20.1415 275.709 21.919 279.429 22.4484 281.143C20.6521 280.694 16.7379 279.094 16.7379 279.094L16.7341 279.09ZM32.3908 290.406C31.4076 290.522 29.0817 292.465 27.9132 291.377L22.577 286.403L25.247 283.753L27.9245 281.104L33.2569 286.078C34.4217 287.163 32.4816 289.462 32.3908 290.406ZM120.821 366.608C121.003 365.866 120.878 365.265 120.462 364.877C120.329 364.757 120.216 364.686 120.144 364.686C119.842 364.686 119.168 365.463 118.526 366.212C117.988 366.834 117.315 367.608 116.464 368.452C115.614 369.3 114.827 369.971 114.195 370.501C113.447 371.137 112.671 371.801 112.664 372.098C112.664 372.169 112.739 372.274 112.875 372.405C113.152 372.663 113.518 372.794 113.972 372.794C114.653 372.794 116.143 372.462 118.378 370.24C120.08 368.554 120.647 367.332 120.817 366.601L120.821 366.608ZM120.859 372.543C119.687 373.698 118.507 374.521 117.856 374.945C118.318 375.383 119.634 376.164 121.286 376.164C122.232 376.164 123.109 375.903 123.911 375.387C125.556 372.843 123.971 370.247 123.257 369.582C122.841 370.225 122.02 371.391 120.859 372.543ZM102.842 358.394C101.995 359.136 100.036 364.301 100.891 367.445C101.258 368.795 102.052 369.371 103.394 369.303C104.782 369.219 105.539 368.54 105.777 367.163C106.306 364.018 103.765 359.03 102.842 358.394ZM101.772 344.044C101.821 344.132 111.82 352.371 115.179 355.356C115.973 356.063 117.058 356.221 118.166 355.695C118.798 355.391 119.584 355.045 120.398 354.695C130.397 351.389 146.848 351.014 152.883 351.269C156.514 351.41 157.8 349.396 157.433 347.771C156.249 342.454 155.988 332.926 160.75 326.458C155.587 328.072 150.614 332.393 150.614 332.393C148.901 329.019 148.186 321.618 148.542 318.039C143.841 319.618 139.655 323.808 139.655 323.808C137.809 319.233 137.234 310.574 137.817 305.65C126.131 309.31 137.06 328.577 122.81 327.97C126.811 333.396 131.622 331.192 135.971 331.192C139.019 331.192 142.809 333.064 142.196 337.339C141.75 340.433 122.636 344.291 114.948 344.291C109.578 344.291 105.977 342.737 103.281 339.239C101.984 337.561 100.66 336.802 99.1777 337.014C97.3398 337.279 95.1879 339.042 95.1879 343.125C95.1879 346.008 96.4359 352.346 100.142 352.346C102.74 352.346 102.854 347.34 101.78 344.044H101.772ZM114.131 366.276C115.878 364.538 116.491 363.273 116.06 362.284C115.432 360.864 111.465 356.723 106.265 352.053C106.114 353.077 105.822 354.165 105.577 354.904C109.079 359.242 110.379 363.895 109.207 367.806C109.631 368.07 109.895 368.194 110.05 368.251C111.393 368.745 113.076 367.332 114.127 366.272L114.131 366.276ZM88.8458 342.698C88.8193 342.723 88.1726 343.32 87.7566 344.125C88.842 344.125 90.1089 344.302 91.2473 344.592C91.1716 343.648 91.096 342.366 91.1981 341.264C90.2337 341.469 89.2013 342.334 88.8458 342.698ZM263.517 372.479C266.807 371.066 269.178 367.265 269.802 363.541C267.714 364.495 265.366 364.962 262.654 364.962C255.193 364.962 245.825 361.086 237.328 357.578C237.328 357.578 235.497 359.012 232.46 359.309C241.03 361.775 257.874 370.508 259.111 376.108C259.943 379.852 257.326 381.287 257.326 381.287C253.582 375.571 243.919 366.696 231.031 362.263C231.057 364.347 230.63 365.817 230.63 365.817C230.63 365.817 228.013 366.417 222.461 365.52C227.317 369.307 240.077 382.682 241.461 392.828C242.384 399.604 237.316 399.915 237.316 399.915C236.598 389.726 230.872 379.178 220.548 368.597C220.548 368.597 218.857 371.07 216.607 372.327C216.607 372.327 212.787 371.692 209.63 369.738C210.851 383.184 211.57 400.65 210.813 405.935C210.284 409.609 208.003 411.156 208.003 411.156C208.003 411.156 205.712 409.612 205.182 405.935C204.426 400.646 205.144 383.184 206.366 369.738C203.204 371.695 199.388 372.327 199.388 372.327C197.138 371.073 195.448 368.597 195.448 368.597C185.123 379.181 179.401 389.723 178.679 399.915C178.679 399.915 173.611 399.604 174.534 392.828C175.918 382.682 188.678 369.307 193.538 365.52C187.979 366.421 185.369 365.82 185.369 365.82C185.369 365.82 184.938 364.357 184.965 362.27C172.076 366.707 162.417 375.578 158.67 381.29C158.67 381.29 156.06 379.856 156.885 376.108C158.121 370.508 174.962 361.775 183.535 359.313C180.498 359.009 178.668 357.571 178.668 357.571C170.174 361.083 160.802 364.955 153.341 364.955C150.629 364.955 148.273 364.495 146.193 363.534C146.817 367.261 149.192 371.066 152.482 372.472C140.955 380.047 148.073 397.802 132.617 394.46C141.239 409.404 158.666 410.905 158.666 410.905C154.808 402.999 159.619 378.877 182.756 367.911C168.514 381.177 162.024 397.258 165.802 408.609C169.27 419.017 180.54 423.235 189.022 423.419C183.024 406.203 186.723 386.483 199.177 374.066C193.837 387.685 186.337 424.019 208 430.989C229.662 424.019 222.155 387.685 216.811 374.069C229.269 386.483 232.967 406.203 226.965 423.422C235.452 423.238 246.722 419.017 250.186 408.606C253.968 397.258 247.478 381.177 233.236 367.915C256.373 378.877 261.183 402.996 257.326 410.909C257.326 410.909 274.76 409.404 283.375 394.457C267.922 397.792 275.04 380.043 263.52 372.465L263.517 372.479ZM209.838 73.005C209.838 71.9346 208.937 71.062 207.833 71.062C206.721 71.062 205.829 71.9346 205.829 73.005C205.829 74.0719 206.721 74.941 207.833 74.941C208.937 74.941 209.838 74.0719 209.838 72.998V73.005ZM219.965 73.005C219.965 71.9346 219.069 71.062 217.961 71.062C216.853 71.062 215.957 71.9346 215.957 73.005C215.957 74.0719 216.853 74.941 217.961 74.941C219.069 74.941 219.965 74.0719 219.965 72.998V73.005ZM204.233 22.7405C204.233 24.7401 205.916 26.3723 207.988 26.3723C210.061 26.3723 211.747 24.7401 211.747 22.7405C211.747 20.741 210.064 19.1124 207.992 19.1124C205.92 19.1124 204.237 20.7445 204.237 22.7441L204.233 22.7405ZM205.443 15.032H210.556L210.004 9.2559L215.563 9.80348V5.22852L210.004 5.78317L210.556 0H205.439L205.991 5.78317L200.436 5.22852V9.80348L205.995 9.25237L205.443 15.032ZM199.71 73.005C199.71 71.9346 198.81 71.062 197.705 71.062C196.594 71.062 195.694 71.9346 195.694 73.005C195.694 74.0719 196.594 74.941 197.698 74.941C198.81 74.941 199.71 74.0719 199.71 72.998V73.005ZM187.653 80.1766C188.198 80.3638 188.826 80.4592 189.567 80.4592H226.428C227.173 80.4592 227.801 80.3638 228.342 80.1766C229.526 79.7809 230.252 78.9401 230.535 77.6083H185.46C185.74 78.9401 186.462 79.7774 187.653 80.1766ZM189.68 73.005C189.68 71.9346 188.78 71.062 187.676 71.062C186.568 71.062 185.664 71.9346 185.664 73.005C185.664 74.0719 186.572 74.941 187.669 74.941C188.78 74.941 189.68 74.0719 189.68 72.998V73.005ZM229.995 73.005C229.995 71.9346 229.095 71.062 227.99 71.062C226.882 71.062 225.986 71.9346 225.986 73.005C225.986 74.0719 226.882 74.941 227.99 74.941C229.095 74.941 229.995 74.0719 229.995 72.998V73.005ZM232.407 68.4124C233.447 67.2007 238.61 57.8494 238.61 48.4062C238.61 39.9099 227.204 35.2289 220.419 35.017C219.632 47.1556 214.584 66.2115 208 66.2115C201.771 66.2115 196.352 47.2652 195.58 35.017C188.795 35.2289 177.39 39.9099 177.39 48.4062C177.39 57.8494 182.552 67.2007 183.592 68.4089L232.407 68.4124ZM208 60.181C211.101 60.181 215.109 48.0918 216.13 36.6527C216.13 34.3352 213.029 30.7882 208 30.6999C202.97 30.7953 199.869 34.3387 199.869 36.6562C200.769 47.3252 204.948 60.181 208 60.181ZM109.453 121.892C103.44 129.636 111.76 138.107 112.27 138.697C112.633 139.111 112.944 138.923 112.887 138.461C112.841 138.061 117.217 126.12 142.385 132.409C142.926 132.543 143.255 132.55 142.752 132.066C138.1 128.615 132.586 120.881 130.801 114.66C130.801 114.66 115.47 114.148 109.453 121.892ZM122.954 120.274C122.954 118.112 126.312 117.518 128.249 117.518C128.249 117.518 129.092 119.602 129.943 120.758C127.976 119.938 125.253 119.853 122.946 120.274H122.954ZM136.311 110.17C134.636 110.17 134.012 111.166 134.557 112.89C140.343 131.144 156.113 135.472 162.334 143.378C162.334 143.378 162.296 140.912 165.178 135.041C167.145 138.058 172.469 143.717 175.93 144.438C175.098 142.813 174.114 136.383 174.886 132.066C183.055 138.757 193.129 140.075 198.534 136.214C193.931 136.38 187.945 131.586 184.919 127.329C189.136 128.24 194.933 127.3 196.128 126.163C193.474 125.562 190.244 123.351 188.3 121.252C191.288 121.058 197.774 118.765 199.63 115.529C197.028 116.084 193.175 115.091 190.667 113.848C192.577 112.88 197.346 108.089 198.496 103.885C191.715 107.001 181.024 110.096 165.186 110.096L136.315 110.166L136.311 110.17ZM153.795 118.486C149.317 120.147 147.074 122.386 147.074 122.386L144.238 118.023C143.557 116.964 143.338 115.656 145.653 115.656H159.532C159.532 116.547 158.272 116.822 153.795 118.483V118.486ZM106.409 148.179C107.857 149.981 111.956 155.471 120.95 150.56C129.939 145.643 134.579 142.965 134.579 142.965C134.579 142.965 133.172 145.508 134.239 148.547C134.303 148.723 134.511 148.713 134.594 148.532C135.491 146.565 143.3 140.866 153.258 140.082C149.608 137.097 145.6 134.43 145.6 134.43C141.345 135.076 133.101 137.8 122.432 144.286C111.767 150.769 106.851 148.066 106.643 147.939C106.435 147.819 106.151 147.858 106.405 148.176L106.409 148.179ZM233.837 355.222C235.376 354.762 236.658 354.035 237.316 353.208C230.433 352.932 224.742 347.365 222.658 343.927C220.37 347.474 216.286 350.24 216.286 350.24C213.374 349.523 209.403 346.556 208.003 344.288C206.604 346.556 202.626 349.523 199.721 350.24C199.721 350.24 195.629 347.474 193.341 343.927C191.261 347.365 185.57 352.936 178.679 353.212C179.341 354.038 180.627 354.766 182.158 355.225C183.191 355.536 184.329 355.727 185.479 355.727C186.689 355.727 187.911 355.522 189.003 355.042C188.315 357.384 188.085 360.27 188.587 362.248C188.587 362.248 192.256 362.524 196.038 361.189C196.31 363.326 197.354 365.915 199.063 367.668C199.403 368.01 199.755 368.339 200.141 368.604C202.176 368.604 207.084 366.385 208.007 365.022C208.93 366.385 213.831 368.604 215.873 368.604C216.251 368.335 216.607 368.01 216.944 367.668C218.657 365.915 219.704 363.322 219.969 361.185C221.671 361.987 223.653 362.305 225.838 362.305C226.353 362.305 226.882 362.287 227.419 362.252C227.926 360.274 227.695 357.377 227.003 355.038C228.1 355.518 229.318 355.723 230.532 355.723C231.681 355.723 232.816 355.533 233.845 355.229L233.837 355.222ZM165.065 217.736C163.714 217.736 162.879 218.542 162.879 219.842V298.662C162.879 306.187 166.04 310.002 172.284 310.002L187.903 310.052C198.606 310.052 204.921 313.499 207.996 317.774C210.613 313.789 217.961 310.052 228.089 310.052L243.707 309.999C249.947 309.999 253.113 306.183 253.113 298.658V219.845C253.113 218.545 252.273 217.74 250.927 217.74L165.065 217.736ZM180.32 291.487C180.177 293.232 182.344 296.404 185.918 295.408C185.812 296.058 186.012 297.817 186.81 299.139C180.475 300.481 177.737 295.606 180.32 291.487ZM237.766 265.394C236.896 264.524 236.034 263.648 235.195 262.765C234.287 261.825 233.644 261.458 232.718 261.458C230.645 261.458 228.425 262.518 227.234 263.26C227.158 263.288 227.102 263.359 227.071 263.549C228.331 263.443 229.598 263.359 230.853 263.224C231.957 263.108 232.986 263.147 233.939 263.811C234.688 264.33 235.111 264.977 235.149 265.814C235.27 268.499 237.558 274.151 237.702 275.84C237.88 276.511 237.021 276.702 235.838 279.821C234.96 280.74 232.593 277.825 232.937 277.147C234.313 275.462 234.695 274.413 234.347 273.155C234.064 272.152 233.538 270.35 233.152 269.375C232.631 268.068 231.458 267.58 230.002 268.047C224.292 269.82 223.41 267.457 217.749 269.682L224.269 279.115C224.25 278.437 223.898 277.2 222.843 276.313C223.032 275.36 225.09 274.971 225.861 275.854C226.807 276.992 228.645 278.603 230.161 278.857C233.073 279.366 232.846 283.499 240.622 284.88C239.657 285.817 237.502 285.499 236.56 285.078C237.127 285.898 237.778 286.668 238.95 286.951C237.74 288.081 234.287 285.432 234.639 288.099C235.236 287.774 236.064 287.721 236.764 287.887C238.315 288.247 240.864 296.5 235.501 300.11C236.643 300.428 237.868 299.863 239.026 299.863C239.706 299.863 240.338 300.478 240.406 301.163C240.905 301.523 241.238 301.965 241.525 302.53C241.125 302.654 240.345 302.537 239.911 302.269C240.085 302.721 240.043 303.823 239.861 303.844C239.377 303.904 239.003 303.647 238.507 303.367C237.819 303.703 235.55 303.569 234.907 303.032C233.198 303.42 231.504 303.943 229.726 303.943C228.762 303.943 227.495 303.887 227.533 302.785C227.559 302.248 227.843 301.972 228.062 301.386C227.245 300.591 225.88 301.35 224.242 301.502C222.038 301.7 221.126 301.382 220.65 300.958C222.73 299.146 221.474 294.74 218.248 294.352C220.903 296.729 220.555 300.577 217.586 301.442C218.445 301.7 218.872 302.064 219.198 302.633C220.238 303.039 220.256 303.749 220.173 304.067C219.606 303.685 218.574 303.311 217.753 303.413C217.696 303.749 217.545 304.378 217.235 304.615C216.887 304.544 216.422 304.244 216.244 304C215.298 303.329 209.387 304.622 209.028 303.717C208.801 302.869 210.378 302.163 211.834 301.859C208.09 300.573 204.846 293.981 199.09 292.861C196.416 292.342 192.797 293.469 192.797 296.722C192.797 298.319 194.169 299.549 195.652 299.549C197.021 299.549 197.702 298.665 197.702 297.772C197.482 297.927 197.346 298.019 197.21 298.125C196.378 298.768 195.312 298.725 194.54 298.019C193.859 297.404 193.859 296.323 194.517 295.599C195.058 294.998 195.709 294.652 196.578 294.532C198.829 294.225 200.674 294.899 201.918 296.595C202.508 297.408 202.837 298.27 202.837 299.103C202.837 302.855 198.829 303.707 196.605 303.707C191.019 303.707 187.729 299.962 187.729 295.627C187.729 295.122 187.755 294.61 187.842 294.094C188.72 289.219 193.371 287.177 197.395 286.569C196.885 284.873 195.89 283.496 194.468 282.376C193.761 281.817 193.689 281.362 194.135 280.652C194.741 279.68 195.383 278.723 195.648 277.628C195.712 277.38 195.739 277.122 195.762 276.857C193.757 278.539 190.959 280.079 187.079 281.178C185.857 281.708 185.21 282.757 185.055 283.955C184.878 285.347 184.836 286.76 184.809 288.159C184.802 288.487 185.051 288.841 185.244 289.148C185.963 290.314 186.757 291.437 186.939 292.882C186.939 293.582 183.179 293.659 183.179 293.094C183.142 290.551 181.326 289.561 181.527 287.887C182.018 285.273 182.132 282.658 181.678 280.037C181.565 279.376 181.943 278.942 182.442 278.589C183.236 278.023 184.091 277.507 184.889 276.942C186.768 275.6 187.547 273.833 187.105 271.661C187.048 271.378 186.916 271.106 186.784 270.838C185.849 268.902 185.165 266.937 185.165 264.754C185.165 262.359 181.996 262.493 182.2 264.85C182.268 265.581 182.854 266.609 183.183 267.315C186.436 274.321 180.589 279.362 174.542 279.362C180.895 277.299 173.056 269.682 173.056 263.995C173.056 260.511 175.93 257.936 179.364 257.936C183.323 257.936 185.831 260.324 186.549 260.734C188.466 257.89 194.332 257.378 196.533 257.049C196.367 255.519 196.597 254.159 197.6 252.986C197.664 252.902 197.705 252.757 197.675 252.668C197.358 251.948 197.025 251.231 196.594 250.531C194.786 252.439 194.355 254.968 194.355 256.279C187.668 256.187 184.719 253.446 182.745 252.365C182.752 251.888 184.53 248.892 186.11 246.914C184.378 248.298 182.956 249.863 181.913 251.736C180.956 251.089 179.954 250.506 178.97 250.121C180.475 247.104 182.472 244.751 185.021 242.293C181.436 243.529 178.316 247.327 177.132 249.711C176.111 249.598 174.599 249.563 173.759 249.711C177.666 245.246 179.447 236.435 188.032 234.46C185.883 242.628 191.231 245.949 194.914 243.815C194.434 243.815 194.105 243.886 193.795 243.815C186.617 242.112 190.872 232.804 189.132 230.864C188.478 230.122 188.137 229.451 188.243 228.525C188.281 228.197 188.179 227.819 188.016 227.515L184.197 221.545C183.72 220.796 185.207 220.262 185.52 220.608L189.416 226.579C189.522 226.72 189.643 226.943 189.794 226.967C191.212 227.204 191.655 228.31 192.229 229.285C192.407 229.603 192.551 229.963 192.585 230.317C192.611 230.592 192.532 230.97 192.339 231.154C191.715 231.744 191.836 232.32 192.316 233.079C193.084 234.301 216.149 270.233 216.149 270.233C211.138 272.152 202.081 272.307 199.453 272.071C198.912 273.314 198.061 274.632 196.805 275.9C198.053 275.133 199.029 274.162 199.929 273.109C200.943 273.215 202.463 273.597 204.014 273.703C203.095 275.54 201.714 277.37 199.944 278.896C199.112 279.673 198.076 280.344 198.458 281.581C198.885 282.966 201.635 285.608 202.645 287.314C203.639 287.509 205.322 287.844 206.559 288.304C207.258 289.717 209.641 291.494 212.511 290.575C206.74 290.505 207.164 284.976 208.956 282.051C208.767 284.771 210.167 287.025 211.944 287.279C209.278 285.008 209.546 279.843 212.141 277.009C212.511 281.609 214.001 284.029 216.134 284.57C213.317 282.146 211.623 276.532 215.881 272.441C216.21 282.941 226.489 281.047 227.423 293.2C231.231 293.2 231.447 288.406 229.325 287.523C228.085 287.085 226.965 286.322 226.338 285.283C226.073 284.849 225.797 284.068 225.581 283.609C224.447 280.486 221.255 280.683 221.33 279.934C221.406 279.687 221.909 279.567 222.616 279.567L216.596 270.866L216.278 270.414C217.008 270.272 217.167 269.884 216.422 268.781C216.422 268.781 193.829 233.644 193.723 233.443C195.822 233.1 197.845 233.634 199.804 234.344C199.275 233.885 198.851 233.256 198.761 232.599C198.685 232.069 198.708 231.765 199.161 231.433C199.642 231.062 200.107 230.638 200.44 230.161C201.559 228.564 203.616 227.787 205.492 228.289C208.321 229.038 209.319 232.023 207.243 233.595C206.139 235.877 204.77 235.587 204.482 236.612C205.042 236.845 208.907 239.64 209.164 240.816C208.011 243.056 207.44 246.564 208.438 248.517C209.187 239.198 215.189 234.634 221.032 234.634C222.42 234.634 223.8 234.863 225.184 235.305C225.94 235.545 226.697 235.888 227.328 236.336C228.244 236.986 229.106 237.725 229.87 238.516C231.012 239.682 232.056 240.936 233.992 241.017C233.425 241.77 232.782 242.324 232.12 242.869C231.643 243.268 231.401 243.752 231.349 244.352C231.212 245.642 230.759 246.825 229.737 247.779C229.605 247.906 229.492 248.076 229.427 248.238C228.784 249.998 228.123 251.75 227.514 253.523C227.362 253.954 227.393 254.548 226.769 254.541C226.228 254.534 225.577 254.385 225.173 254.082C224.318 253.432 224.012 252.485 224.318 251.488C224.621 250.499 224.318 249.644 223.985 248.722C223.645 247.797 223.52 246.8 223.289 245.748C221.694 245.225 218.698 248.433 220.983 251.118C222.469 253.096 223.804 256.745 224.034 258.24C224.08 258.381 222.681 259.211 220.752 258.982C214.236 258.204 210.117 253.965 208.862 250.397C208.763 256.449 214.13 260.925 222.079 260.494C222.405 261.907 223.637 262.861 225.067 262.903C225.369 261.995 225.358 260.087 225.116 258.876C225.01 258.346 225.305 258.063 225.835 257.939C227.574 257.522 229.843 257.685 231.772 257.039C233.493 256.463 234.306 256.798 235.372 258.741C236.182 260.207 237.566 261.78 238.871 262.875C239.419 263.323 239.967 263.786 240.485 264.27C241.143 264.888 241.488 265.613 241.544 266.517C241.37 267.93 241.571 270.756 241.571 270.806C241.193 271.735 238.443 270.753 238.001 269.753C237.834 269.382 239.173 266.768 237.766 265.365V265.394ZM285.198 114.664C283.42 120.881 277.899 128.618 273.247 132.07C272.744 132.557 273.073 132.547 273.614 132.412C298.782 126.124 303.15 138.065 303.112 138.464C303.056 138.923 303.366 139.114 303.729 138.701C304.243 138.114 312.559 129.639 306.542 121.895C300.529 114.151 285.198 114.664 285.198 114.664ZM286.06 120.761C286.911 119.606 287.762 117.518 287.762 117.518C289.691 117.518 293.056 118.119 293.056 120.274C290.742 119.857 288.019 119.942 286.06 120.761ZM309.594 148.186C309.851 147.868 309.557 147.833 309.356 147.95C309.156 148.073 304.239 150.776 293.571 144.297C282.906 137.81 274.654 135.087 270.4 134.44C270.4 134.44 266.391 137.107 262.738 140.093C272.699 140.88 280.512 146.575 281.405 148.543C281.488 148.72 281.696 148.73 281.756 148.554C282.823 145.515 281.416 142.972 281.416 142.972C281.416 142.972 286.056 145.65 295.049 150.567C304.043 155.478 308.142 149.981 309.591 148.183L309.594 148.186ZM225.343 113.848C222.832 115.095 218.978 116.087 216.38 115.536C218.233 118.769 224.715 121.062 227.703 121.259C225.755 123.354 222.529 125.562 219.874 126.17C221.066 127.3 226.863 128.244 231.076 127.336C228.058 131.586 222.064 136.38 217.462 136.217C222.87 140.079 232.944 138.761 241.113 132.07C241.877 136.39 240.898 142.809 240.069 144.442C243.53 143.721 248.855 138.061 250.817 135.044C253.707 140.916 253.661 143.382 253.661 143.382C259.89 135.475 275.656 131.148 281.439 112.894C281.983 111.17 281.355 110.173 279.684 110.173L250.814 110.103C234.968 110.103 224.28 107.005 217.503 103.892C218.649 108.096 223.422 112.883 225.332 113.855L225.343 113.848ZM270.347 115.671C272.661 115.671 272.446 116.978 271.761 118.037L268.925 122.397C268.925 122.397 266.678 120.154 262.204 118.493C257.727 116.833 256.464 116.557 256.464 115.667H270.343L270.347 115.671ZM166.778 143.007C165.87 145.395 165.605 148.031 166.089 151.458C169.001 157.364 170.401 168.33 169.508 174.463C174.145 168.422 176.202 161.625 177.526 156.185C180.188 158.728 183.637 162.367 186.046 165.313C186.462 162.12 187.192 158.177 187.835 155.333C191.299 158.421 198.485 162.303 203.34 163.678C200.073 150.783 194.476 142.559 194.476 142.559C189.726 143.004 182.071 141.923 178.63 138.761C179.246 143.435 182.688 148.808 182.688 148.808C175.313 149.479 170.094 147.13 166.778 143.007ZM249.221 143.007C245.905 147.13 240.682 149.483 233.311 148.812C233.311 148.812 236.753 143.442 237.365 138.768C233.924 141.93 226.273 143.007 221.52 142.566C221.52 142.566 215.922 150.786 212.651 163.681C217.515 162.303 224.7 158.417 228.164 155.333C228.807 158.177 229.537 162.116 229.953 165.313C232.358 162.367 235.807 158.728 238.47 156.185C239.793 161.625 241.854 168.419 246.487 174.463C245.591 168.33 247.001 157.364 249.91 151.458C250.39 148.031 250.121 145.395 249.221 143.007ZM185.812 183.634C188.595 187.81 191.068 192.837 191.927 197.306C194.593 194.296 197.41 189.054 199.32 182.793C201.665 185.528 205.749 191.096 208 195.688C210.25 191.096 214.338 185.528 216.679 182.793C218.589 189.054 221.406 194.296 224.072 197.313C224.931 192.837 227.4 187.81 230.187 183.634C232.305 191.76 240.463 199.673 248.885 200.274C243.409 193.625 243.186 182.136 243.571 178.31C239.922 173.011 237.52 168.228 236.371 164.981C233.901 167.267 230.074 171.708 226.64 176.844C226.64 176.781 226.538 170.404 225.165 162.664C221.629 165.652 215.219 167.814 211.793 168.655C209.637 171.951 209.04 174.52 208.011 178.66C206.982 174.527 206.385 171.948 204.229 168.655C200.799 167.814 194.389 165.652 190.841 162.664C189.48 170.4 189.378 176.781 189.378 176.844C185.944 171.708 182.117 167.27 179.64 164.981C178.494 168.231 176.085 173.011 172.439 178.31C172.829 182.136 172.602 193.625 167.122 200.27C175.548 199.67 183.709 191.756 185.823 183.631L185.812 183.634ZM109.495 279.804C114.222 276.921 117.217 271.685 120.624 265.284C118.639 266.051 115.769 266.881 112.891 267.439C110.084 272.512 106.106 270.548 106.008 269.824C106.862 268.933 107.846 267.619 108.579 266.475C107.388 264.38 105.943 261.26 105.149 259.338C101.133 267.238 93.7508 275.264 87.5713 278.398C91.2019 283.121 102.472 284.086 109.506 279.8L109.495 279.804ZM124.107 266.485C120.757 273.091 121.543 283.28 132.219 283.57C131.335 276.356 134.81 269.569 138.535 266.482C135.332 267.224 130.124 271.145 130.124 271.145C130.124 271.145 129.342 272.819 129.179 274.996C126.948 275.367 125.715 273.759 126.645 270.403C126.645 270.403 125.026 268.679 124.111 266.482L124.107 266.485ZM71.2755 274.031C72.826 274.031 74.3993 273.855 75.9385 273.501C86.2477 271.117 96.0577 262.882 101.897 255.968C98.5689 256.957 95.203 257.593 91.4666 257.946C91.4666 257.946 88.8572 260.808 86.8414 261.861C85.8204 262.401 84.7993 262.659 83.8349 262.659C80.9229 262.659 79.6825 260.419 79.6825 260.419C79.6825 260.419 84.387 258.314 87.3785 255.325C86.7847 253.117 86.4065 250.061 86.3385 247.023C78.2227 254.636 62.9668 262.037 52.3172 263.475C54.4237 267.58 61.9079 274.031 71.2755 274.031ZM50.6381 257.876C51.1676 257.876 51.7084 257.851 52.2378 257.805C62.8269 256.823 75.617 250.485 83.8538 244.999C81.2292 245.493 74.335 245.642 71.0713 245.211C69.9367 245.917 64.9523 248.867 60.8036 249.358C53.24 250.256 52.4382 245.882 52.4382 245.882C57.2979 245.327 62.9025 243.798 68.2576 241.466C68.787 237.693 69.7249 234.337 70.5267 231.857C58.8409 237.933 39.7918 242.208 28.4918 242.349C30.7533 247.366 39.5196 257.876 50.6343 257.876H50.6381ZM52.3021 222.23C53.9283 219.538 56.5075 216.355 58.8522 213.762C49.53 216.164 37.5228 216.659 31.1693 216.659C23.6624 216.659 16.371 216.164 12.1921 215.387C12.5628 222.424 19.7293 234.57 33.8733 235.757C34.6108 235.821 35.4238 235.849 36.3012 235.849C45.1204 235.849 59.1548 232.514 68.8097 229.313C61.9268 228.487 55.2708 226.957 53.7581 226.363C50.1654 227.328 41.5882 228.67 38.8048 228.529C32.4816 228.204 31.8084 223.668 31.8084 223.668C31.8084 223.668 43.1841 224.116 52.2983 222.226L52.3021 222.23ZM18.3489 209.318C23.6057 210.907 31.9824 211.815 41.3424 211.815C47.0529 211.815 53.0736 211.335 57.971 210.685C52.6765 209 46.1491 206.456 41.9059 203.937C36.6038 203.838 29.4032 203.697 24.7818 202.372C17.9859 200.429 18.0804 196.084 18.2014 195.112C24.0784 197.32 34.0775 199.429 41.4672 199.846C44.1901 197.391 48.3993 194.469 52.8391 191.926C35.3028 192.067 12.9182 185.581 0.339918 179.36C-2.53426 201.22 13.3607 207.806 18.3489 209.318ZM56.897 163.992C54.1892 159.141 51.5495 152.616 51.2016 146.992C42.995 140.972 33.635 133.313 28.2195 124.559C25.0881 119.493 26.2454 115.056 28.4615 113.537C30.152 119.03 41.1684 134.426 51.1524 142.152C51.2281 137.213 52.1168 131.54 53.4972 127.269C41.887 115.469 28.8775 95.9222 25.7386 88.2667C22.2026 90.9975 16.1139 97.8759 14.6201 107.563C13.1073 117.313 16.4921 127.332 24.6797 137.344C30.9651 145.039 44.8179 156.513 56.8932 163.992H56.897ZM53.5577 188.792C45.578 183.846 40.049 179.264 37.1068 175.145C30.4356 172.721 21.8131 169.023 17.5661 165.691C11.7308 161.12 13.5801 157.001 14.2608 156.177C19.4041 161.081 30.5226 168.147 38.4266 171.291C43.3657 169.489 50.2183 168.175 56.9008 167.405C37.103 160.099 15.8567 146.385 4.74952 133.455C2.49555 137.531 -6.65644 156.75 10.4941 172.506C19.5326 180.808 38.1316 186.531 53.5577 188.792ZM310.854 259.342C310.059 261.264 308.615 264.383 307.42 266.478C308.153 267.619 309.137 268.933 309.991 269.824C309.889 270.544 305.915 272.509 303.109 267.439C300.227 266.881 297.353 266.051 295.371 265.284C298.775 271.685 301.762 276.921 306.497 279.804C313.52 284.086 324.79 283.125 328.432 278.401C322.248 275.268 314.866 267.238 310.846 259.338L310.854 259.342ZM291.888 266.478C290.973 268.676 289.354 270.4 289.354 270.4C290.284 273.756 289.051 275.363 286.813 274.992C286.661 272.816 285.867 271.141 285.867 271.141C285.867 271.141 280.667 267.22 277.472 266.478C281.185 269.569 284.665 276.356 283.78 283.57C294.452 283.28 295.239 273.088 291.888 266.478ZM328.621 255.329C331.608 258.317 336.313 260.423 336.313 260.423C336.313 260.423 335.072 262.659 332.153 262.659C331.192 262.659 330.175 262.398 329.154 261.857C327.142 260.797 324.529 257.946 324.529 257.946C320.796 257.593 317.43 256.95 314.098 255.968C319.934 262.878 329.748 271.113 340.053 273.491C341.592 273.844 343.162 274.028 344.72 274.028C354.084 274.028 361.568 267.577 363.674 263.475C353.021 262.041 337.769 254.643 329.649 247.023C329.574 250.068 329.195 253.121 328.609 255.325L328.621 255.329ZM347.738 241.462C353.097 243.794 358.705 245.324 363.561 245.878C363.561 245.878 362.759 250.252 355.195 249.355C351.047 248.86 346.059 245.917 344.932 245.211C341.66 245.642 334.77 245.493 332.149 244.999C340.382 250.485 353.168 256.823 363.765 257.802C364.295 257.851 364.824 257.872 365.361 257.872C376.48 257.872 385.242 247.369 387.504 242.349C376.196 242.208 357.151 237.933 345.472 231.857C346.274 234.337 347.204 237.693 347.742 241.466L347.738 241.462ZM357.143 213.758C359.488 216.351 362.067 219.534 363.697 222.223C372.811 224.113 384.187 223.664 384.187 223.664C384.187 223.664 383.514 228.2 377.191 228.525C374.403 228.667 365.826 227.324 362.237 226.36C360.717 226.953 354.069 228.479 347.186 229.31C356.841 232.51 370.875 235.845 379.698 235.845C380.575 235.845 381.388 235.817 382.126 235.753C396.27 234.566 403.44 222.421 403.811 215.38C399.632 216.164 392.341 216.659 384.837 216.659C378.473 216.659 366.469 216.157 357.143 213.758ZM415.655 179.367C403.073 185.584 380.689 192.078 363.152 191.933C367.592 194.476 371.801 197.398 374.524 199.846C381.914 199.436 391.909 197.327 397.783 195.119C397.907 196.094 398.009 200.436 391.202 202.379C386.588 203.704 379.388 203.845 374.086 203.944C369.842 206.463 363.307 209.007 358.02 210.692C362.922 211.342 368.942 211.822 374.653 211.822C384.009 211.822 392.39 210.904 397.646 209.321C402.638 207.813 418.522 201.231 415.648 179.363L415.655 179.367ZM387.53 113.53C389.746 115.056 390.896 119.489 387.772 124.552C382.353 133.313 372.993 140.969 364.794 146.985C364.446 152.613 361.806 159.138 359.102 163.988C371.177 156.51 385.03 145.035 391.323 137.337C399.499 127.329 402.884 117.306 401.383 107.556C399.881 97.8688 393.793 90.994 390.264 88.2596C387.118 95.9187 374.108 115.462 362.506 127.262C363.879 131.536 364.767 137.21 364.85 142.145C374.827 134.423 385.836 119.027 387.53 113.53ZM377.576 171.287C385.473 168.143 396.599 161.077 401.742 156.174C402.423 156.997 404.265 161.12 398.429 165.691C394.182 169.026 385.563 172.721 378.896 175.149C375.946 179.268 370.414 183.853 362.434 188.799C377.864 186.538 396.47 180.815 405.497 172.513C422.644 156.757 413.496 137.538 411.246 133.455C400.142 146.385 378.892 160.102 359.095 167.412C365.777 168.178 372.633 169.496 377.569 171.298L377.576 171.287ZM331.438 149.161C325.009 163.105 308.709 175.537 298.166 181.762C293.363 184.599 295.114 189.983 296.653 192.371C311.016 214.68 284.891 231.302 261.304 220.252C266.448 220.305 271.648 216.214 272.366 212.571C270.732 213.896 264.031 213.172 262.053 211.458C265.094 209.975 265.816 208.466 265.971 207.057C262.216 209.212 254.626 209.505 252.383 205.863C239.918 205.545 231.621 196.455 230.713 193.83C229.783 196.621 228.293 201.496 227.801 206.315C224.42 204.174 218.649 199.33 215.639 192.763C212.235 197.313 209.664 202.436 208 207.834C206.336 202.436 203.764 197.313 200.36 192.763C197.346 199.334 191.571 204.174 188.194 206.315C187.703 201.5 186.213 196.621 185.282 193.83C184.375 196.455 176.077 205.548 163.612 205.863C161.374 209.501 153.78 209.208 150.02 207.053C150.172 208.459 150.89 209.964 153.935 211.451C151.953 213.161 145.255 213.889 143.618 212.568C144.336 216.214 149.536 220.305 154.683 220.252C131.085 231.309 104.971 214.68 119.335 192.371C120.874 189.983 122.625 184.599 117.822 181.762C107.271 175.537 90.9712 163.109 84.5421 149.161C83.7857 154.849 84.3644 168.959 90.8956 177.742C86.1229 179.444 80.0039 182.211 75.8931 184.779C78.4912 187.545 84.5534 192.321 88.6189 194.918C85.2909 197.681 80.1363 202.973 77.4323 206.435C80.8586 208.343 87.7718 210.657 93.0512 212.218C90.6119 215.988 86.8566 222.781 85.9149 226.826C91.8259 227.632 97.8654 227.557 103.19 227.402C102.51 232.115 102.956 238.036 103.493 242.346C108.976 241.611 115.012 239.53 119.017 237.555C119.774 240.812 121.872 246.818 123.744 250.026C128.956 245.409 135.824 243.296 142.177 244.515C155.194 247.023 159.063 259.338 159.063 259.338L159.082 221.891V217.704C159.082 215.373 160.424 214.136 162.837 214.136H253.147C255.556 214.136 256.898 215.373 256.898 217.704V221.887L256.921 259.335C256.921 259.335 260.79 247.027 273.803 244.518C280.157 243.296 287.028 245.409 292.232 250.029C294.112 246.815 296.203 240.809 296.959 237.559C300.968 239.53 307.008 241.611 312.495 242.349C313.024 238.032 313.478 232.111 312.798 227.398C318.062 227.907 324.117 227.907 330.069 226.823C329.124 222.781 325.372 215.984 322.933 212.218C328.424 210.84 335.122 208.343 338.552 206.435C335.848 202.973 330.686 197.684 327.365 194.918C331.434 192.325 337.493 187.549 340.095 184.779C335.984 182.214 329.865 179.444 325.096 177.742C331.623 168.966 332.206 154.856 331.442 149.168L331.438 149.161ZM167.307 105.319L166.766 106.634C182.537 106.634 197.713 101.582 201.76 83.9955H189.673C187.529 96.6676 179.564 105.316 167.3 105.316L167.307 105.319ZM99.0832 76.7039C99.0832 76.7039 107.713 78.5762 111.09 89.9377C114.471 101.299 122.958 106.733 131.664 106.733L131.134 105.185C126.066 104.595 118.919 97.8441 117.584 85.3415C116.238 72.7542 112.932 71.1327 112.932 71.1327C109.529 68.9282 100.951 74.7502 99.0832 76.7039ZM73.8358 81.7911C81.0364 81.5685 85.8809 83.7094 94.927 75.9973C105.611 66.8968 110.682 68.4548 110.682 68.4548C105.225 65.134 97.6234 63.6608 95.014 65.5791C92.4045 67.4939 88.8685 72.6376 82.931 76.2976C74.5619 81.4555 65.9658 80.0953 65.5801 84.9035H65.8145C65.8145 84.9035 66.6352 82.0066 73.832 81.7875L73.8358 81.7911ZM80.4766 111.968C84.8522 116.003 85.2569 124.298 85.2569 124.298C85.2569 124.298 90.4947 115.501 86.1758 106.164C81.857 96.8231 73.0302 89.6551 81.683 84.2004C76.3961 84.2428 70.6704 83.1053 68.1555 86.4544C67.3726 87.5036 66.6428 90.0931 69.2825 93.7672C72.6294 98.4446 80.991 109.322 74.1383 116.564C79.1492 115.699 80.4729 111.972 80.4729 111.972L80.4766 111.968ZM134.53 106.683H164.18C164.18 106.683 164.913 104.998 165.844 102.567H132.866C133.797 104.998 134.53 106.683 134.53 106.683ZM152.267 67.3031C152.267 65.7946 150.992 64.5617 149.415 64.5617C147.838 64.5617 146.56 65.7982 146.56 67.3067C146.56 68.8258 147.838 70.0552 149.419 70.0552C151 70.0552 152.278 68.8258 152.278 67.3102L152.267 67.3031ZM167.08 99.4656C168.347 95.7456 169.777 90.0896 169.777 87.3623C169.777 82.374 166.903 76.8487 156.54 75.1494C156.54 81.1834 153.413 95.9576 149.627 95.9576H149.2C145.418 95.9576 142.279 81.2965 142.279 75.1494C131.887 76.8452 128.929 82.374 128.929 87.3658C128.929 90.0931 130.366 95.7491 131.63 99.4691L167.08 99.4656ZM149.419 91.8136C151.386 91.8136 152.985 82.1691 152.985 77.3645C152.985 74.7432 151.386 73.0192 149.415 73.0192C147.449 73.0192 145.845 74.7432 145.845 77.3645C145.845 82.1691 147.445 91.8136 149.419 91.8136ZM147.509 60.9017H151.318L150.845 56.3338L155.602 56.7931V53.1331L150.837 53.5853L151.314 49.0139H147.506L147.982 53.5853L143.217 53.126V56.786L147.982 56.3268L147.509 60.9017ZM226.307 83.9991H214.221C218.267 101.585 233.432 106.637 249.218 106.637L248.688 105.319C236.42 105.319 228.455 96.6747 226.311 84.0026L226.307 83.9991ZM284.32 106.736C293.019 106.736 301.513 101.303 304.894 89.9412C308.267 78.5833 316.901 76.7109 316.901 76.7109C315.029 74.7573 306.463 68.9317 303.048 71.1362C303.048 71.1362 299.746 72.7613 298.396 85.3451C297.065 97.8511 289.918 104.599 284.85 105.189L284.32 106.736ZM321.057 76.0008C330.103 83.7129 334.948 81.572 342.148 81.7946C349.345 82.0136 350.166 84.9035 350.166 84.9035H350.4C350.014 80.0989 341.418 81.4625 333.049 76.3011C327.112 72.6412 323.576 67.4974 320.966 65.5827C318.357 63.6643 310.755 65.1411 305.302 68.4583C305.302 68.4583 310.377 66.9039 321.061 76.0044L321.057 76.0008ZM347.825 86.4579C345.31 83.1017 339.58 84.2428 334.297 84.1969C342.95 89.6551 334.127 96.8231 329.804 106.171C325.493 115.508 330.727 124.294 330.727 124.294C330.727 124.294 331.132 116.006 335.507 111.972C335.507 111.972 336.831 115.695 341.842 116.564C334.989 109.322 343.355 98.4411 346.698 93.7672C349.33 90.0931 348.608 87.5071 347.825 86.4579ZM281.454 106.687C281.454 106.687 282.187 105.001 283.118 102.571H250.14C251.071 105.001 251.804 106.687 251.804 106.687H281.454ZM269.428 67.3067C269.428 65.7982 268.142 64.5652 266.569 64.5652C264.988 64.5652 263.706 65.8017 263.706 67.3102C263.706 68.8293 264.992 70.0587 266.565 70.0587C268.138 70.0587 269.42 68.8293 269.42 67.3137L269.428 67.3067ZM284.354 99.4691C285.621 95.7491 287.051 90.0931 287.051 87.3658C287.051 82.374 284.094 76.8487 273.701 75.153C273.701 81.3 270.562 95.9611 266.78 95.9611H266.357C262.575 95.9611 259.436 81.187 259.436 75.153C249.074 76.8558 246.207 82.3811 246.207 87.3694C246.207 90.0967 247.637 95.7527 248.9 99.4727L284.354 99.4691ZM266.569 91.8171C268.535 91.8171 270.139 82.1726 270.139 77.368C270.139 74.7467 268.539 73.0227 266.565 73.0227C264.587 73.0227 262.991 74.7467 262.991 77.368C262.991 82.1726 264.587 91.8171 266.561 91.8171H266.569ZM264.663 60.9052H268.471L267.994 56.3374L272.759 56.7966V53.1366L267.994 53.5888L268.471 49.0174H264.663L265.135 53.5888L260.378 53.1296V56.7896L265.143 56.3303L264.663 60.9052ZM70.6817 170.828C62.9744 171.005 49.4128 172.439 42.5261 174.488C47.208 179.752 59.4308 187.319 66.76 190.527C61.0608 192.551 50.8385 197.684 46.5802 201.39C52.0714 204.57 64.1278 208.201 69.8308 209.388C66.5142 211.907 59.6804 219.202 57.1731 223.131C61.8928 224.509 71.5969 225.71 77.7575 226.052C75.791 229.91 73.537 236.721 72.9395 241.155C75.9952 241.448 86.1985 240.954 91.251 239.89C90.8199 243.755 90.9863 250.793 91.667 253.824C96.6515 253.152 103.769 251.273 107.082 250.079C108.042 253.523 111.469 260.946 112.679 262.709C116.669 261.988 121.434 260.462 124.939 258.741C126.048 261.504 128.562 265.637 129.258 266.679C140.933 255.622 157.603 264.595 157.603 276.359C156.404 284.107 144.722 283.672 138.573 287.311C130.491 292.105 131.89 303.208 123.567 304.918C131.433 309.582 133.721 300.834 141.89 300.587C140.793 305.303 140.906 313.676 141.719 317.184C145.085 314.754 149.797 312.895 152.876 312.708C152.119 315.464 151.526 321.893 152.626 325.907C154.793 324.373 162.886 317.781 182.102 322.021C184.431 322.533 169.07 321.968 170.983 326.613C172.496 330.27 172.923 332.813 171.115 338.01C171.932 338.282 172.878 338.413 173.895 338.413C178.206 338.413 183.788 336.07 186.008 332.393C187.725 333.587 187.725 342.094 181.977 344.206C188.115 344.63 192.793 339.957 193.701 337.084C193.701 337.084 196.696 343.768 200.254 345.962C202.486 345.227 206.468 341.758 208.007 338.155C209.543 341.758 213.529 345.227 215.76 345.962C219.315 343.772 222.318 337.084 222.318 337.084C223.225 339.957 227.896 344.627 234.034 344.206C228.285 342.094 228.285 333.587 230.002 332.393C232.222 336.067 237.808 338.413 242.119 338.413C243.14 338.413 244.086 338.282 244.899 338.01C243.091 332.817 243.518 330.273 245.027 326.61C246.941 321.964 231.579 322.529 233.909 322.017C253.12 317.778 261.214 324.37 263.384 325.903C264.481 321.897 263.891 315.46 263.131 312.708C266.213 312.895 270.929 314.757 274.287 317.184C275.108 313.676 275.214 305.303 274.121 300.587C282.29 300.834 284.578 309.582 292.444 304.922C284.124 303.219 285.523 292.112 277.43 287.322C271.281 283.683 259.599 284.114 258.407 276.363C258.407 264.599 275.074 255.632 286.748 266.683C287.44 265.644 289.963 261.511 291.067 258.748C294.569 260.469 299.338 261.999 303.332 262.716C304.542 260.949 307.964 253.53 308.921 250.082C312.234 251.284 319.359 253.156 324.34 253.827C325.02 250.8 325.187 243.759 324.756 239.897C329.804 240.957 340.008 241.452 343.06 241.162C342.47 236.729 340.223 229.917 338.242 226.059C344.406 225.72 354.11 224.519 358.83 223.141C356.322 219.213 349.489 211.918 346.172 209.399C351.871 208.208 363.928 204.577 369.419 201.397C365.161 197.688 354.935 192.558 349.243 190.537C356.568 187.33 368.795 179.762 373.477 174.498C366.586 172.449 353.025 171.012 345.325 170.839C361.269 160.646 361.761 138.549 357.17 126.537C354.084 133.815 343.85 145.777 337.239 152.228C337.829 158.364 335.696 169.256 332.043 175.897C337.277 177.756 343.479 180.561 347.87 183.68C344.958 187.107 338.68 192.424 334.747 195.303C338.075 198.56 343.68 204.538 346.168 207.993C342.485 210.572 334.464 213.532 330.349 214.892C332.372 218.771 335.314 225.844 336.075 230.733C331.385 231.454 324.941 231.942 318.198 231.864C318.527 236.545 317.82 243.787 316.95 248.122C310.699 247.655 303.32 245.26 300.034 243.716C298.294 250.181 293.994 256.452 293.805 256.788C274.261 236.88 256.933 255.657 256.933 273.205V297.107C256.933 308.412 253.124 313.581 242.146 313.581H227.949C219.111 313.581 211.702 317.085 208.007 323.819C204.312 317.089 196.904 313.584 188.062 313.584H173.85C162.882 313.584 159.063 308.419 159.063 297.111V273.201C159.063 255.657 141.742 236.877 122.201 256.784C122.012 256.449 117.712 250.178 115.973 243.713C112.683 245.257 105.308 247.652 99.0567 248.118C98.1869 243.783 97.4797 236.541 97.8087 231.867C91.0657 231.938 84.6177 231.451 79.9321 230.726C80.6884 225.837 83.6307 218.761 85.6577 214.882C81.5431 213.522 73.5181 210.561 69.8308 207.982C72.3268 204.527 77.9239 198.55 81.2519 195.3C77.3188 192.413 71.0486 187.093 68.129 183.666C72.5273 180.54 78.7294 177.738 83.9635 175.88C80.3065 169.238 78.1773 158.347 78.7635 152.21C72.1566 145.759 61.923 133.797 58.8333 126.516C54.2422 138.528 54.7338 160.629 70.6779 170.817L70.6817 170.828ZM26.6803 284.983L25.2432 286.417C25.2432 286.417 28.2308 290.056 30.6323 288.671C32.0051 286.304 28.1287 283.556 28.1287 283.556L26.6841 284.983H26.6803Z" fill="#828CA2"/>
</g>
<defs>
<clipPath id="clip0_505_1005">
<rect width="416" height="431" fill="white"/>
</clipPath>
</defs>
</svg>
