<svg width="462" height="397" viewBox="0 0 462 397" fill="none" xmlns="http://www.w3.org/2000/svg">
<path d="M336.996 254.652C329.129 254.652 322.188 258.467 318.045 264.281C320.525 265.745 322.935 267.228 325.243 268.734C332.607 273.538 336.83 279.439 336.784 287.323C336.761 291.209 336.842 295.097 336.832 298.983C336.887 298.983 336.942 298.986 336.997 298.986C349.691 298.986 359.98 289.062 359.98 276.819C359.98 264.576 349.69 254.652 336.996 254.652Z" fill="#4146CE"/>
<path d="M400.263 245.485C400.1 245.135 399.949 244.793 399.766 244.466C396.701 238.994 391.665 236.204 385.157 236.148C378.714 236.094 372.282 236.3 365.723 236.3C365.719 236.285 365.722 236.422 365.722 236.422H361.683V233.723C361.683 226.297 356.056 220.223 348.468 219.791C348.373 219.788 348.473 219.788 348.374 219.788C344.375 219.775 340.467 219.768 336.465 219.768C332.691 219.768 328.968 219.775 325.193 219.791C324.623 219.794 324.083 219.822 323.525 219.878C323.519 219.878 323.574 219.881 323.566 219.881C316.454 220.764 311.024 226.625 311.024 233.722V236.421H308.217C308.214 236.421 308.214 236.285 308.211 236.299C301.926 236.299 295.73 236.207 289.53 236.218C283.258 236.231 278.154 238.739 275.083 242.95C287.586 248.451 300.302 254.378 311.795 260.728C311.829 260.676 311.859 260.611 311.894 260.56C317.266 252.668 326.549 247.386 336.967 247.386C347.154 247.383 356.262 252.405 361.7 259.98C365.026 264.603 366.978 270.174 366.978 276.133C366.977 292.094 353.529 305.091 337.018 305.096C336.9 305.096 336.784 305.089 336.667 305.088C336.042 311.022 332.087 315.139 325.714 316.423C329.505 316.423 333.297 316.428 337.088 316.428C353.154 316.428 369.216 316.42 385.278 316.407C391.463 316.399 396.824 313.126 399.734 308.296C400.585 306.524 401 304.548 401 302.47V250.049C401 248.45 400.777 246.914 400.263 245.485Z" fill="#4146CE"/>
<path d="M319.942 271.802C317.634 270.297 315.224 268.814 312.744 267.349C310.706 266.145 308.623 264.953 306.493 263.776C295.001 257.425 282.284 251.478 269.782 245.977C261.616 242.384 253.544 238.979 245.973 235.775C243.404 234.688 242.319 233.427 242.448 230.99C242.678 226.607 242.386 222.124 242.569 217.738C242.653 215.72 243.341 213.814 243.756 211.626C243.642 211.626 243.526 211.626 243.412 211.626C243.815 211.626 244.181 210.638 244.47 210.033C244.477 210.017 244.485 210.042 244.492 210.027C247.501 203.825 251.271 198.01 254.794 192C255.416 190.938 256.348 190.025 257.112 189.024C264.592 179.241 268.227 168.53 267.33 156.775C267.204 155.126 266.828 153.225 265.758 151.951C262.771 148.392 263.713 144.642 264.323 140.856C265.624 132.78 266.211 124.717 264.003 116.677C261.296 106.822 255.45 99.4299 243.42 96.7353C242.331 96.491 241.162 95.427 240.623 94.4928C233.95 82.907 220.004 76.771 204.903 77.0065C190.089 76.771 175.904 82.907 169.231 94.4928C168.692 95.427 167.547 96.4917 166.458 96.736C154.429 99.4306 148.594 106.822 145.887 116.678C143.679 124.718 144.273 132.781 145.574 140.857C146.183 144.643 147.129 148.396 144.141 151.954C143.071 153.228 142.697 155.132 142.571 156.781C141.674 168.536 145.309 179.252 152.789 189.035C153.554 190.036 154.486 190.96 155.108 192.021C158.633 198.031 162.402 203.867 165.411 210.069C165.418 210.085 165.426 210.018 165.433 210.034C165.722 210.639 166.087 211.627 166.491 211.627C166.25 211.627 166.007 211.627 165.765 211.627C166.18 213.815 166.869 215.72 166.952 217.739C167.135 222.125 166.843 226.565 167.073 230.947C167.201 233.385 166.117 234.667 163.548 235.755C139.626 245.877 110.705 258.011 89.579 271.792C82.2146 276.596 77.9918 282.503 78.0379 290.387C78.0704 295.933 77.9041 301.485 78.0885 307.027C78.3502 314.882 84.1502 319.893 93.5425 319.926C127.944 320.047 168.896 319.992 203.298 319.947C203.777 319.946 204.849 319.871 204.849 319.74C204.849 319.871 205.831 319.946 206.311 319.947C240.712 319.992 281.619 320.048 316.021 319.927C317.591 319.921 319.051 319.765 320.41 319.491C326.783 318.207 330.738 314.091 331.364 308.156C331.403 307.785 331.439 307.413 331.452 307.028C331.507 305.37 331.524 303.71 331.529 302.05C331.538 298.165 331.458 294.276 331.48 290.39C331.529 282.508 327.307 276.606 319.942 271.802Z" fill="#4146CE"/>
<mask id="mask0_780_142" style="mask-type:alpha" maskUnits="userSpaceOnUse" x="0" y="0" width="462" height="397">
<path d="M461.5 198.5C461.5 307.784 358.375 396.5 231 396.5C103.625 396.5 0.5 307.784 0.5 198.5C0.5 89.2161 103.625 0.5 231 0.5C358.375 0.5 461.5 89.2161 461.5 198.5Z" fill="#4146CE" stroke="black"/>
</mask>
<g mask="url(#mask0_780_142)">
</g>
</svg>
