<svg width="60" height="64" viewBox="0 0 60 64" fill="none" xmlns="http://www.w3.org/2000/svg">
<path d="M29.9994 63.12C46.3773 63.12 59.7 49.0691 59.7 31.8C59.7 14.5308 46.3773 0.47998 29.9994 0.47998C13.6228 0.47998 0.300049 14.5308 0.300049 31.8C0.300049 49.0691 13.6228 63.12 29.9994 63.12ZM29.7024 15.6451C31.8896 13.3365 35.4708 13.3365 37.66 15.6437C39.8492 17.951 39.8486 21.7275 37.66 24.0368L30.2977 31.8L37.6593 39.5632C39.8479 41.8704 39.8479 45.6469 37.6593 47.9562C35.4708 50.2642 31.8896 50.2642 29.7017 47.9569L14.3811 31.8L29.7024 15.6451Z" fill="#4146CE"/>
</svg>
