<svg width="61" height="64" viewBox="0 0 61 64" fill="none" xmlns="http://www.w3.org/2000/svg">
<path d="M30.6601 0.47998C14.2822 0.47998 0.959473 14.5308 0.959473 31.8C0.959473 49.0691 14.2822 63.12 30.6601 63.12C47.0367 63.12 60.3595 49.0691 60.3595 31.8C60.3595 14.5308 47.0367 0.47998 30.6601 0.47998ZM30.9571 47.9548C28.7699 50.2635 25.1887 50.2635 22.9995 47.9562C20.8103 45.649 20.811 41.8725 22.9995 39.5632L30.3618 31.8L23.0002 24.0368C20.8116 21.7296 20.8116 17.9531 23.0002 15.6437C25.1887 13.3358 28.7699 13.3358 30.9578 15.643L46.2784 31.8L30.9571 47.9548Z" fill="#4146CE"/>
</svg>
