<svg width="28" height="28" viewBox="0 0 28 28" fill="none" xmlns="http://www.w3.org/2000/svg">
<path d="M17.512 5.56568C17.512 2.86515 14.7513 0.666016 11.3651 0.666016C7.97881 0.666016 5.21826 2.86655 5.21826 5.56568C5.21826 8.26621 7.97893 10.4653 11.3651 10.4653C14.7531 10.4653 17.512 8.26612 17.512 5.56568Z" fill="#BEB931"/>
<path d="M12.5366 21.332C12.5366 24.6315 15.8821 27.332 20.0639 27.332C24.2032 27.332 27.5912 24.6315 27.5912 21.332C27.5912 18.0326 24.2032 15.332 20.0639 15.332C15.9246 15.3659 12.5366 18.0326 12.5366 21.332ZM20.9835 25.4647C20.9835 25.8644 20.5653 26.1978 20.0638 26.1978C19.5623 26.1978 19.1441 25.8644 19.1441 25.4647V20.6314C19.1441 20.2316 19.5623 19.8983 20.0638 19.8983C20.5653 19.8983 20.9835 20.2316 20.9835 20.6314V25.4647ZM21.235 18.1314C21.235 18.6652 20.6911 19.065 20.0638 19.065C19.394 19.065 18.8925 18.6652 18.8925 18.1314C18.8925 17.6314 19.394 17.1978 20.0638 17.1978C20.6911 17.1991 21.235 17.6314 21.235 18.1314Z" fill="#BEB931"/>
<path d="M0.409314 17.1326V22.1666H4.13046V18C4.13046 17.733 4.38202 17.5 4.75774 17.5C5.09261 17.5 5.38501 17.7005 5.38501 18V22.1326H11.3654C11.323 21.8657 11.323 21.5988 11.323 21.3332C11.323 17.4658 15.2532 14.3672 20.0621 14.3672C20.397 14.3672 20.7319 14.401 21.0651 14.401C19.1833 12.5338 15.5029 11.4349 12.4924 11.4349H11.4044H11.3619L10.2365 11.4336C6.22124 11.4661 0.409314 13.4997 0.409314 17.1326Z" fill="#BEB931"/>
</svg>
