<svg width="35" height="28" viewBox="0 0 35 28" fill="none" xmlns="http://www.w3.org/2000/svg">
<path d="M21.424 0.000139492C17.9618 0.000139492 14.6313 1.39761 12.1477 3.89242C12.0511 3.98907 11.9738 4.10449 11.9204 4.23205C11.867 4.35962 11.8385 4.49683 11.8365 4.63582C11.8344 4.77481 11.8589 4.91286 11.9085 5.04204C11.9582 5.17123 12.0319 5.28902 12.1256 5.38866C12.2195 5.48846 12.3316 5.56808 12.4553 5.62294C12.579 5.6778 12.712 5.70683 12.8467 5.70835C12.9813 5.70987 13.1149 5.68386 13.2397 5.63181C13.3646 5.57975 13.4783 5.50268 13.5743 5.40504C15.6771 3.29274 18.4926 2.11331 21.4239 2.11331C27.6582 2.11332 32.6916 7.31937 32.6916 13.7675C32.6916 20.2155 27.6582 25.4195 21.4239 25.4195C18.4926 25.4195 15.6771 24.2401 13.5743 22.1278C13.4778 22.0307 13.3636 21.9543 13.2385 21.9029C13.1133 21.8516 12.9796 21.8264 12.845 21.8287C12.7104 21.831 12.5775 21.8608 12.454 21.9164C12.3306 21.9719 12.219 22.0522 12.1256 22.1526C11.9382 22.3536 11.8353 22.6231 11.8394 22.9023C11.8436 23.1815 11.9544 23.4477 12.1477 23.6426C14.6313 26.1374 17.9618 27.5349 21.424 27.5349C28.7625 27.5349 34.7349 21.3577 34.7349 13.7675C34.7349 6.17725 28.7625 0.000139492 21.424 0.000139492ZM21.3801 2.8399C21.2459 2.83935 21.113 2.86615 20.9888 2.91875C20.8647 2.97135 20.7518 3.04873 20.6565 3.14646C20.5613 3.2442 20.4856 3.36038 20.4338 3.48837C20.382 3.61636 20.355 3.75366 20.3545 3.89242V4.89748C20.354 5.03694 20.3801 5.17512 20.4315 5.30407C20.4828 5.43302 20.5584 5.55017 20.6537 5.64879C20.7491 5.7474 20.8623 5.82551 20.987 5.87863C21.1117 5.93174 21.2453 5.95881 21.3801 5.95826C21.5143 5.95772 21.647 5.92986 21.7708 5.87625C21.8945 5.82265 22.0068 5.74436 22.1013 5.64586C22.1958 5.54736 22.2706 5.43057 22.3215 5.30216C22.3723 5.17375 22.3983 5.03624 22.3977 4.89748V3.89242C22.3967 3.61361 22.2891 3.34653 22.0985 3.14938C21.9079 2.95222 21.6497 2.84098 21.3801 2.8399ZM28.1283 5.73331C27.8576 5.73116 27.5971 5.84027 27.404 6.03667L26.7176 6.74661C26.6222 6.8448 26.5465 6.96154 26.4948 7.0901C26.4431 7.21867 26.4165 7.35653 26.4165 7.49576C26.4165 7.635 26.4431 7.77286 26.4948 7.90142C26.5465 8.02999 26.6222 8.14672 26.7176 8.24491C26.8232 8.35345 26.9503 8.43684 27.0903 8.48924C27.2302 8.54164 27.3795 8.56179 27.5278 8.54827C27.7658 8.52652 27.9889 8.41918 28.1583 8.24491L28.8447 7.53499C28.9401 7.4368 29.0159 7.32007 29.0675 7.1915C29.1192 7.06293 29.1458 6.92507 29.1458 6.78584C29.1458 6.6466 29.1192 6.50874 29.0675 6.38018C29.0159 6.25161 28.9401 6.13488 28.8447 6.03669C28.6536 5.8423 28.3964 5.73334 28.1283 5.73331ZM5.10409 7.90028C4.83418 7.90137 4.57565 8.01289 4.38498 8.21049C4.19431 8.40809 4.087 8.6757 4.08647 8.95487C4.08595 9.09363 4.11185 9.23114 4.16271 9.35955C4.21356 9.48795 4.28838 9.60474 4.38287 9.70324C4.47737 9.80174 4.58969 9.88003 4.71344 9.93363C4.83719 9.98724 4.96993 10.0151 5.10409 10.0156H15.6854C15.8196 10.0151 15.9523 9.98724 16.076 9.93363C16.1998 9.88003 16.3121 9.80174 16.4066 9.70324C16.5011 9.60474 16.5759 9.48795 16.6268 9.35955C16.6776 9.23114 16.7035 9.09363 16.703 8.95487C16.7025 8.6757 16.5952 8.40809 16.4045 8.21049C16.2138 8.01289 15.9553 7.90137 15.6854 7.90028H5.10409ZM24.9697 8.99408C24.7006 8.9963 24.4432 9.10828 24.2534 9.3057L21.6874 11.9597C21.6013 11.9461 21.5134 11.937 21.424 11.937C21.409 11.937 21.3954 11.9366 21.3801 11.937C20.4328 11.9621 19.6501 12.7825 19.6501 13.7675C19.6501 14.7682 20.4565 15.5981 21.424 15.5981C22.3915 15.5981 23.1959 14.7682 23.1959 13.7675C23.1959 13.6498 23.1831 13.5348 23.1619 13.4229L25.692 10.7957C25.8823 10.5977 25.9891 10.3299 25.9891 10.0507C25.9891 9.77147 25.8823 9.50362 25.692 9.30564C25.5973 9.20714 25.4848 9.12892 25.3608 9.07545C25.2369 9.02198 25.104 8.99437 24.9697 8.99408ZM1.01763 12.713C0.747721 12.7141 0.489194 12.8256 0.298523 13.0232C0.107852 13.2208 0.000532664 13.4884 7.82503e-06 13.7676C-0.000517254 13.9064 0.0253882 14.0439 0.0762446 14.1723C0.127101 14.3007 0.201913 14.4175 0.296408 14.516C0.390904 14.6145 0.503232 14.6928 0.62698 14.7464C0.750728 14.8 0.883472 14.8278 1.01763 14.8284H11.5969C11.7313 14.8281 11.8642 14.8004 11.9882 14.747C12.1122 14.6935 12.2248 14.6152 12.3195 14.5167C12.4142 14.4182 12.4892 14.3013 12.5401 14.1727C12.5911 14.0442 12.6171 13.9065 12.6166 13.7676C12.616 13.4881 12.5084 13.2201 12.3173 13.0225C12.1262 12.8248 11.8672 12.7135 11.5969 12.713H1.01763ZM29.9461 12.713C29.6762 12.7141 29.4177 12.8256 29.227 13.0232C29.0363 13.2208 28.929 13.4884 28.9285 13.7676C28.928 13.9064 28.9539 14.0439 29.0047 14.1723C29.0556 14.3007 29.1304 14.4175 29.2249 14.516C29.3194 14.6145 29.4317 14.6928 29.5555 14.7464C29.6792 14.8 29.8119 14.8278 29.9461 14.8284H30.9198C31.0547 14.8289 31.1883 14.8019 31.3129 14.7487C31.4376 14.6956 31.5509 14.6175 31.6462 14.5189C31.7416 14.4203 31.8171 14.3031 31.8684 14.1742C31.9198 14.0452 31.946 13.9071 31.9454 13.7676C31.9452 13.6287 31.9184 13.4911 31.8667 13.3629C31.815 13.2347 31.7394 13.1183 31.6441 13.0203C31.5488 12.9223 31.4358 12.8448 31.3116 12.792C31.1873 12.7393 31.0542 12.7125 30.9198 12.713H29.9461ZM5.10409 17.5195C4.96993 17.5201 4.83719 17.5479 4.71344 17.6016C4.58969 17.6552 4.47737 17.7334 4.38287 17.8319C4.28838 17.9304 4.21356 18.0472 4.16271 18.1756C4.11185 18.304 4.08595 18.4416 4.08647 18.5803C4.08752 18.8591 4.19507 19.1262 4.38569 19.3234C4.5763 19.5205 4.83453 19.6318 5.10409 19.6328H15.6854C15.955 19.6318 16.2132 19.5205 16.4038 19.3234C16.5944 19.1262 16.702 18.8591 16.703 18.5803C16.7035 18.4416 16.6776 18.304 16.6268 18.1756C16.5759 18.0472 16.5011 17.9304 16.4066 17.8319C16.3121 17.7334 16.1998 17.6552 16.076 17.6016C15.9523 17.5479 15.8196 17.5201 15.6854 17.5195H5.10409ZM27.434 18.9848C27.1657 18.9854 26.9084 19.0951 26.7176 19.2903C26.6225 19.3884 26.547 19.505 26.4955 19.6334C26.444 19.7618 26.4175 19.8994 26.4175 20.0384C26.4175 20.1774 26.444 20.315 26.4955 20.4434C26.547 20.5717 26.6225 20.6883 26.7176 20.7865L27.404 21.4964C27.5955 21.6933 27.8544 21.8038 28.1244 21.8038C28.3943 21.8038 28.6533 21.6933 28.8447 21.4964C28.9401 21.3982 29.0159 21.2815 29.0675 21.1529C29.1192 21.0244 29.1458 20.8865 29.1458 20.7473C29.1458 20.608 29.1192 20.4702 29.0675 20.3416C29.0159 20.2131 28.9401 20.0963 28.8447 19.9981L28.1583 19.2903C28.0629 19.1926 27.9498 19.1154 27.8255 19.063C27.7012 19.0106 27.5682 18.984 27.434 18.9848ZM21.3801 21.5749C21.2453 21.5743 21.1117 21.6014 20.987 21.6545C20.8623 21.7076 20.7491 21.7857 20.6537 21.8843C20.5584 21.9829 20.4828 22.1001 20.4315 22.2291C20.3801 22.358 20.354 22.4962 20.3545 22.6356V23.6428C20.355 23.7815 20.382 23.9188 20.4338 24.0468C20.4856 24.1748 20.5613 24.291 20.6565 24.3887C20.7518 24.4865 20.8647 24.5638 20.9888 24.6164C21.113 24.669 21.2459 24.6958 21.3801 24.6953C21.6497 24.6942 21.9079 24.583 22.0985 24.3858C22.2891 24.1887 22.3967 23.9216 22.3977 23.6428V22.6356C22.3983 22.4969 22.3723 22.3594 22.3215 22.231C22.2706 22.1026 22.1958 21.9858 22.1013 21.8873C22.0068 21.7888 21.8945 21.7105 21.7708 21.6569C21.647 21.6033 21.5143 21.5754 21.3801 21.5749Z" fill="white"/>
</svg>
