<svg width="35" height="28" viewBox="0 0 35 28" fill="none" xmlns="http://www.w3.org/2000/svg">
<path d="M16.1813 4.43079C14.6424 4.17637 12.8952 3.99748 10.99 3.98096V8.82787H16.7112C16.6917 7.2143 16.4809 5.73436 16.1813 4.43079Z" fill="white"/>
<path d="M14.9762 0.751791C13.7492 0.297228 12.4034 0.031688 10.99 0V3.48967C12.8389 3.50539 14.5417 3.6712 16.0549 3.91064C15.7352 2.664 15.3421 1.59748 14.9762 0.751791Z" fill="white"/>
<path d="M16.0549 14.2363C14.5417 14.4758 12.8389 14.6416 10.99 14.6574V18.147C12.4034 18.1153 13.7492 17.8498 14.9762 17.3952C15.3422 16.5495 15.7353 15.483 16.0549 14.2363Z" fill="white"/>
<path d="M16.7112 9.31909H10.99V14.166C12.8952 14.1495 14.6424 13.9706 16.1813 13.7162C16.4809 12.4125 16.6916 10.9327 16.7112 9.31909Z" fill="white"/>
<path d="M20.1616 4.82433C19.1563 3.22262 17.6017 1.90511 15.7119 1.05347C16.0462 1.88067 16.3878 2.87718 16.6672 4.01328C18.0087 4.25051 19.1852 4.54056 20.1616 4.82433Z" fill="white"/>
<path d="M10.4161 3.48967V0C9.00262 0.031688 7.65682 0.297228 6.42984 0.751791C6.06379 1.59748 5.67077 2.664 5.35107 3.9107C6.86433 3.6712 8.5672 3.50539 10.4161 3.48967Z" fill="white"/>
<path d="M31.4098 7.03194V8.41601H32.7578V6.19116H29.8083V6.78629H31.1229C31.2814 6.78629 31.4098 6.89628 31.4098 7.03194Z" fill="white"/>
<path d="M15.7119 17.0937C17.6017 16.242 19.1563 14.9245 20.1616 13.3228C19.1852 13.6065 18.0087 13.8966 16.6672 14.1338C16.3878 15.2699 16.0462 16.2665 15.7119 17.0937Z" fill="white"/>
<path d="M29.2346 6.19116H28.5273V6.76038V8.41601H29.2346V6.19116Z" fill="white"/>
<path d="M21.4057 9.31909H17.285C17.2664 10.8852 17.0711 12.3278 16.7891 13.6099C18.2618 13.3386 19.5215 13.0048 20.52 12.694C21.0553 11.6551 21.368 10.5157 21.4057 9.31909Z" fill="white"/>
<path d="M17.2852 8.82776H21.4059C21.3682 7.63111 21.0554 6.49175 20.5203 5.45281C19.5217 5.14201 18.262 4.80818 16.7893 4.53687C17.0713 5.819 17.2666 7.26166 17.2852 8.82776Z" fill="white"/>
<path d="M30.836 7.27783H29.8083V8.41627H30.836V7.27783Z" fill="white"/>
<path d="M10.4162 3.98096C8.51096 3.99748 6.76367 4.17637 5.22488 4.43079C4.9252 5.73436 4.71448 7.21424 4.69482 8.82787H10.4162V3.98096Z" fill="white"/>
<path d="M24.1183 9.4753V21.5754C24.1183 24.5771 21.2395 27.0193 17.7011 27.0193C14.1626 27.0193 11.2838 24.5771 11.2838 21.5754V18.629C11.0914 18.6373 10.8978 18.6415 10.7029 18.6415C10.508 18.6415 10.3143 18.6373 10.1218 18.629V21.5754C10.1218 25.1179 13.5218 27.9999 17.7011 27.9999C21.8802 27.9999 25.2802 25.1179 25.2802 21.5754V9.4753C25.2802 9.02971 25.5745 8.6384 26.0312 8.45128V7.41577C24.921 7.64109 24.1183 8.48309 24.1183 9.4753Z" fill="white"/>
<path d="M10.4162 14.6575C8.56737 14.6418 6.8645 14.476 5.35132 14.2366C5.67094 15.4833 6.06404 16.5498 6.43008 17.3955C7.65707 17.85 9.00279 18.1156 10.4163 18.1473V14.6575H10.4162Z" fill="white"/>
<path d="M28.5273 8.90723V8.9332V9.50242H35.0002V8.90723H29.5216H28.5273Z" fill="white"/>
<path d="M34.9998 6.19116H33.3315V7.05791H34.9998V6.19116Z" fill="white"/>
<path d="M34.9998 7.54932H33.3315V8.41613H34.9998V7.54932Z" fill="white"/>
<path d="M27.9532 7.0061H26.6052V8.68771H27.9532V7.0061Z" fill="white"/>
<path d="M5.22481 13.7162C6.76367 13.9706 8.51096 14.1495 10.4161 14.166V9.31909H4.69482C4.71441 10.9327 4.92513 12.4126 5.22481 13.7162Z" fill="white"/>
<path d="M5.6941 1.05347C3.80433 1.90511 2.24968 3.22262 1.24438 4.82433C2.22069 4.54056 3.39725 4.25051 4.73881 4.01328C5.01826 2.87718 5.35984 1.88067 5.6941 1.05347Z" fill="white"/>
<path d="M1.24414 13.3228C2.24944 14.9245 3.80408 16.242 5.69385 17.0937C5.35959 16.2665 5.01801 15.2699 4.73857 14.1338C3.39707 13.8966 2.22052 13.6065 1.24414 13.3228Z" fill="white"/>
<path d="M4.61667 4.53687C3.14388 4.80818 1.88417 5.14201 0.885624 5.45287C0.350476 6.49175 0.0376663 7.63111 0 8.82776H4.12076C4.13942 7.26166 4.33471 5.819 4.61667 4.53687Z" fill="white"/>
<path d="M4.12076 9.31909H0C0.0376663 10.5157 0.350476 11.6551 0.885624 12.694C1.88417 13.0048 3.14388 13.3386 4.61667 13.6099C4.33471 12.3278 4.13942 10.8852 4.12076 9.31909Z" fill="white"/>
</svg>
