<svg width="355" height="140" viewBox="0 0 355 140" fill="none" xmlns="http://www.w3.org/2000/svg">
<path d="M5 51.346V70.12L55.646 64.549V44.229L5 51.346ZM21.162 71.262V135.595H39.704V69.367L21.162 71.262ZM62.486 43.268V135.595H82.024V40.521L62.486 43.268ZM85.664 40.009V61.248L113.877 58.144V36.045L85.664 40.009ZM85.664 77.056V98.682L104.184 97.672V75.462L85.664 77.056ZM85.664 114.27V135.595H113.877V113.419L85.664 114.27ZM186.839 25.758V135.595H212.452V22.158L186.839 25.758ZM217.235 21.485V46.75L254.561 42.646V16.238L217.235 21.485ZM217.235 65.751V91.484L241.7 90.148V63.656L217.235 65.751ZM217.235 110.293V135.595H254.561V109.166L217.235 110.293ZM121.342 34.994V135.595H143.598V31.865L121.342 34.994ZM147.752 112.397V135.594H180.058V111.422L147.752 112.397ZM338.244 14.996C330.149 7.34802 318.28 4.21102 305.298 6.07602V34.098C310.555 33.806 314.815 35.757 316.713 39.685C319.71 45.878 316.618 55.17 309.324 63.779C298.066 77.064 268.129 104.256 268.129 104.256L311.105 102.843C337.364 77.189 346.794 61.617 348.486 42.182C349.375 31.9 345.643 21.993 338.244 14.996ZM350 135.595V106.274L262.832 108.9M262.832 108.9L262.841 135.594H350M300.287 6.70502C274.964 12.098 262.529 30.728 263.964 61.127L290.964 58.731C289.734 41.557 294.987 37.483 300.3 35.243L300.287 6.70502Z" fill="#141414"/>
</svg>
