<svg width="402" height="263" viewBox="0 0 402 263" fill="none" xmlns="http://www.w3.org/2000/svg">
<g clip-path="url(#clip0_505_1051)">
<path d="M0 0.000638415V39.416H19.9432V96.3608H47.4507V39.416H67.3906V0.000638415H0Z" fill="#D93327"/>
<path d="M85.1768 0.000638415V39.416H105.124V96.3608H132.627V39.416H152.571V0.000638415H85.1768Z" fill="#D93327"/>
<path d="M220.634 0.324006L197.536 38.5149V0.324006H169.935V96.6953H197.536V54.301L220.634 96.6953H252.566L223.822 46.41L252.566 0.324006H220.634Z" fill="#D93327"/>
<path d="M0 144.954V154.794H11.7461V197.934H19.5893V154.794H31.3403V144.954H0Z" fill="#1A1B1B"/>
<path d="M37.1064 158.195H42.4046L43.3022 163.123H43.9353C45.0341 161.105 46.2982 159.584 47.7477 158.581C49.1971 157.573 50.8869 157.063 52.8291 157.063C56.568 157.063 59.3775 158.663 61.251 161.873C63.1196 165.072 64.0507 170.16 64.0507 177.123C64.0507 180.452 63.7511 183.468 63.1515 186.17C62.5523 188.867 61.6702 191.191 60.5081 193.128C59.3424 195.078 57.9027 196.571 56.192 197.599C54.4826 198.632 52.5152 199.152 50.2878 199.152C49.0902 199.152 48.0505 198.988 47.164 198.655C46.2872 198.336 45.399 197.889 44.519 197.337V213H37.1064V158.195ZM50.5555 165.918C48.8575 165.918 47.5517 166.467 46.6378 167.553C45.7149 168.633 45.0133 170.311 44.519 172.584V188.021C45.1186 188.728 45.788 189.287 46.5313 189.686C47.2693 190.094 48.2036 190.296 49.3404 190.296C51.7355 190.296 53.5197 189.223 54.6834 187.075C55.8459 184.934 56.4296 181.512 56.4296 176.82C56.4296 173.442 55.9814 170.778 55.0822 168.829C54.1814 166.887 52.6699 165.918 50.5555 165.918Z" fill="#1A1B1B"/>
<path d="M71.1458 160.927C72.7389 159.912 74.6855 159.082 76.9946 158.423C79.3048 157.769 81.6964 157.443 84.1662 157.443C86.1051 157.443 87.7411 157.769 89.066 158.423C90.3926 159.082 91.44 160.028 92.2163 161.266C92.9964 162.502 93.5478 163.993 93.8829 165.731C94.2209 167.47 94.3817 169.404 94.3817 171.521C94.3817 174.096 94.3148 176.647 94.1744 179.166C94.0327 181.694 93.9642 184.366 93.9642 187.191C93.9642 189.106 94.0503 190.98 94.2286 192.795C94.4042 194.61 94.6846 196.35 95.0736 198.018H89.0403L87.8239 192.107H87.1876C86.2692 193.873 85.1006 195.394 83.6944 196.653C82.2817 197.916 80.4608 198.545 78.2411 198.545C76.897 198.545 75.6708 198.269 74.5614 197.711C73.4516 197.159 72.4964 196.361 71.7025 195.328C70.9037 194.295 70.2882 193.071 69.8482 191.657C69.4082 190.237 69.1865 188.705 69.1865 187.034C69.1865 182.545 70.2404 179.155 72.3368 176.854C74.4402 174.563 77.6227 173.412 81.8939 173.412C82.8842 173.412 83.8695 173.53 84.8548 173.756C85.8484 173.984 86.5341 174.141 86.9231 174.246C87.0284 173.183 87.0823 172.28 87.0823 171.521C87.0823 169.602 86.7427 168.188 86.0733 167.286C85.4083 166.373 84.1536 165.917 82.3152 165.917C80.62 165.917 78.9746 166.212 77.366 166.788C75.7619 167.37 74.3426 168.088 73.1038 168.945L71.1458 160.927ZM80.8355 190.071C82.4935 190.071 83.8152 189.508 84.8038 188.404C85.7908 187.291 86.5182 186.131 86.9741 184.918V180.379C86.7953 180.276 86.5259 180.179 86.1561 180.078C85.783 179.978 85.3794 179.873 84.9332 179.772C84.4961 179.67 84.056 179.593 83.6111 179.54C83.1711 179.494 82.7744 179.465 82.4201 179.465C80.5163 179.465 79.1052 179.961 78.1868 180.947C77.2684 181.934 76.8109 183.153 76.8109 184.617C76.8109 186.432 77.1746 187.793 77.8983 188.705C78.6191 189.608 79.5996 190.071 80.8355 190.071Z" fill="#1A1B1B"/>
<path d="M121.334 182.567H110.8V197.938H103.388V158.195H110.8V172.962H121.334V158.195H128.744V197.938H121.334V182.567Z" fill="#1A1B1B"/>
<path d="M158.652 195.519C157.452 196.682 156.011 197.562 154.337 198.164C152.66 198.77 150.921 199.071 149.121 199.071C146.721 199.071 144.7 198.569 143.059 197.562C141.418 196.552 140.076 195.111 139.035 193.246C137.998 191.381 137.247 189.174 136.79 186.623C136.325 184.078 136.099 181.238 136.099 178.103C136.099 171.496 137.239 166.336 139.512 162.624C141.79 158.918 145.096 157.069 149.439 157.069C151.558 157.069 153.292 157.301 154.652 157.784C156.011 158.263 157.219 158.883 158.28 159.635L156.48 168.11C155.562 167.56 154.652 167.141 153.754 166.865C152.851 166.584 151.802 166.446 150.607 166.446C148.378 166.446 146.68 167.369 145.496 169.213C144.316 171.058 143.725 174.015 143.725 178.103C143.725 179.724 143.859 181.226 144.145 182.608C144.431 184.001 144.868 185.216 145.468 186.279C146.068 187.341 146.827 188.171 147.745 188.784C148.664 189.386 149.737 189.683 150.974 189.683C152.456 189.683 153.631 189.502 154.496 189.119C155.358 188.741 156.178 188.224 156.958 187.569L158.652 195.519Z" fill="#1A1B1B"/>
<path d="M193.647 154.792H181.895V197.934H174.054V154.792H162.307V144.949H193.647V154.792Z" fill="#1A1B1B"/>
<path d="M223.181 194.307C221.981 195.615 220.348 196.741 218.287 197.669C216.218 198.609 214.005 199.074 211.642 199.074C206.879 199.074 203.376 197.209 201.156 193.472C198.931 189.736 197.825 184.617 197.825 178.106C197.825 171.2 199.074 165.954 201.585 162.397C204.083 158.838 207.613 157.065 212.169 157.065C213.654 157.065 215.116 157.327 216.561 157.858C218.006 158.389 219.299 159.271 220.43 160.507C221.557 161.745 222.467 163.409 223.153 165.505C223.842 167.593 224.185 170.185 224.185 173.261C224.185 174.323 224.136 175.484 224.059 176.745C223.965 178.005 223.814 179.321 223.602 180.68H205.074C205.246 184.111 205.944 186.655 207.168 188.288C208.385 189.93 210.364 190.748 213.124 190.748C214.777 190.748 216.275 190.408 217.597 189.724C218.924 189.049 219.936 188.354 220.642 187.643L223.181 194.307ZM212.058 165.393C209.879 165.393 208.254 166.239 207.193 167.926C206.136 169.62 205.519 171.779 205.34 174.398H217.299C217.446 171.619 217.095 169.43 216.246 167.81C215.397 166.198 214.005 165.393 212.058 165.393Z" fill="#1A1B1B"/>
<path d="M248.857 167.584H242.342C242.244 171.823 242.02 175.808 241.681 179.545C241.35 183.284 240.811 186.549 240.069 189.348C239.33 192.15 238.35 194.359 237.134 195.976C235.909 197.59 234.354 198.391 232.444 198.391C230.223 198.391 228.652 198.042 227.733 197.335L228.795 187.944C229.395 188.202 229.942 188.329 230.436 188.329C231.28 188.329 232.023 187.896 232.66 187.032C233.289 186.179 233.823 184.629 234.244 182.388C234.672 180.14 235.015 177.069 235.281 173.186C235.542 169.301 235.746 164.31 235.889 158.194H256.265V197.934H248.857V167.584Z" fill="#1A1B1B"/>
<path d="M288.98 194.307C287.78 195.615 286.155 196.741 284.09 197.669C282.021 198.609 279.808 199.074 277.441 199.074C272.677 199.074 269.183 197.209 266.959 193.472C264.738 189.736 263.624 184.617 263.624 178.106C263.624 171.2 264.881 165.954 267.383 162.397C269.885 158.838 273.42 157.065 277.971 157.065C279.453 157.065 280.919 157.327 282.363 157.858C283.808 158.389 285.102 159.271 286.229 160.507C287.364 161.745 288.266 163.409 288.956 165.505C289.641 167.593 289.984 170.185 289.984 173.261C289.984 174.323 289.939 175.484 289.858 176.745C289.768 178.005 289.617 179.321 289.405 180.68H270.877C271.049 184.111 271.747 186.655 272.967 188.288C274.184 189.93 276.167 190.748 278.923 190.748C280.58 190.748 282.078 190.408 283.4 189.724C284.723 189.049 285.735 188.354 286.441 187.643L288.98 194.307ZM277.865 165.393C275.678 165.393 274.057 166.239 272.992 167.926C271.935 169.62 271.318 171.779 271.139 174.398H283.106C283.249 171.619 282.898 169.43 282.049 167.81C281.2 166.198 279.808 165.393 277.865 165.393Z" fill="#1A1B1B"/>
<path d="M307.512 175.534H305.446V197.934H297.613V144.949H305.446V168.268L307.299 167.131L318.418 144.949H327.365L315.606 167.131L312.536 170.008L315.716 173.035L329.165 197.934H319.475L307.512 175.534Z" fill="#1A1B1B"/>
<path d="M333.234 178.106C333.234 171.544 334.459 166.401 336.888 162.669C339.32 158.932 342.802 157.065 347.321 157.065C349.68 157.065 351.745 157.596 353.517 158.654C355.276 159.711 356.745 161.191 357.905 163.085C359.068 164.974 359.941 167.196 360.525 169.741C361.109 172.285 361.399 175.075 361.399 178.106C361.399 181.339 361.08 184.25 360.444 186.849C359.815 189.446 358.892 191.657 357.692 193.472C356.492 195.287 355.023 196.675 353.272 197.633C351.525 198.59 349.541 199.074 347.321 199.074C344.916 199.074 342.835 198.545 341.076 197.483C339.304 196.424 337.847 194.947 336.684 193.06C335.512 191.16 334.647 188.944 334.083 186.4C333.52 183.849 333.234 181.085 333.234 178.106ZM340.859 178.106C340.859 179.772 340.986 181.339 341.227 182.802C341.476 184.262 341.855 185.54 342.365 186.625C342.88 187.706 343.541 188.575 344.353 189.234C345.165 189.895 346.157 190.221 347.321 190.221C351.627 190.221 353.778 186.184 353.778 178.106C353.778 176.341 353.668 174.713 353.431 173.226C353.198 171.736 352.835 170.448 352.325 169.367C351.815 168.282 351.141 167.435 350.309 166.829C349.476 166.22 348.484 165.917 347.321 165.917C345.308 165.917 343.725 166.875 342.578 168.795C341.435 170.717 340.859 173.819 340.859 178.106Z" fill="#1A1B1B"/>
<path d="M394.225 158.194L387.764 172.885V172.81L385.906 178.026H385.327L383.478 172.962V173.031L376.539 158.194H368.759V197.934H375.326V180.228L374.53 171.67H375.273L377.755 178.487V178.414L383.951 190.746H386.547L392.16 178.414V178.487L394.645 171.67H395.494L394.968 180.304V197.934H402.001V158.194H394.225Z" fill="#1A1B1B"/>
<path d="M282.091 84.5966C282.091 91.322 278.275 96.771 273.577 96.771C268.875 96.771 265.07 91.322 265.07 84.5966C265.07 77.8799 268.875 72.4262 273.577 72.4262C278.275 72.4262 282.091 77.8799 282.091 84.5966Z" fill="#DD2538"/>
<path d="M0 0.0665017V39.4836H19.9432V96.4331H47.4507V39.4836H67.3906V0.0665017H0Z" fill="#DD2538"/>
<path d="M85.1768 0.0665017V39.4836H105.124V96.4331H132.627V39.4836H152.571V0.0665017H85.1768Z" fill="#DD2538"/>
<path d="M220.634 0.398778L197.536 38.5873V0.398778H169.935V96.7637H197.536V54.3664L220.634 96.7637H252.566L223.822 46.4847L252.566 0.398778H220.634Z" fill="#DD2538"/>
</g>
<defs>
<clipPath id="clip0_505_1051">
<rect width="402" height="263" fill="white"/>
</clipPath>
</defs>
</svg>
