<svg width="28" height="28" viewBox="0 0 28 28" fill="none" xmlns="http://www.w3.org/2000/svg">
<path d="M25 4.99958H16.08L18.78 1.61958C19.13 1.18958 19.06 0.559579 18.62 0.219579C18.19 -0.130421 17.56 -0.0604211 17.22 0.379579L13.92 4.49958L11.71 2.28958C11.32 1.89958 10.68 1.89958 10.29 2.28958C9.9 2.67958 9.9 3.31958 10.29 3.70958L11.59 4.99958H3C1.35 4.99958 0 6.34958 0 7.99958V24.9996C0 26.6496 1.35 27.9996 3 27.9996H25C26.65 27.9996 28 26.6496 28 24.9996V7.99958C28 6.34958 26.65 4.99958 25 4.99958ZM19.71 14.7096L15.71 18.7096C15.5 18.9196 15.21 19.0296 14.9 18.9996C14.6 18.9696 14.33 18.7996 14.17 18.5496L12.84 16.5696L9.71 19.7096C9.51 19.8996 9.26 19.9996 9 19.9996C8.74 19.9996 8.49 19.8996 8.29 19.7096C7.9 19.3196 7.9 18.6796 8.29 18.2896L12.29 14.2896C12.5 14.0796 12.8 13.9796 13.1 13.9996C13.4 14.0296 13.67 14.1996 13.83 14.4496L15.16 16.4296L18.29 13.2896C18.68 12.8996 19.32 12.8996 19.71 13.2896C20.1 13.6796 20.1 14.3196 19.71 14.7096Z" fill="white"/>
</svg>
