<svg width="32" height="21" viewBox="0 0 32 21" fill="none" xmlns="http://www.w3.org/2000/svg">
<path d="M28.9579 3.05184C27.6309 1.08421 25.8527 0 23.9683 0C22.0773 0 20.3058 1.08421 18.9788 3.05184L16.9086 6.06353C16.8025 6.22415 16.8025 6.48516 16.9086 6.63575L18.1958 8.55319C18.2954 8.70377 18.4612 8.70377 18.5674 8.55319L20.6243 5.53146C21.52 4.21636 22.701 3.49356 23.9617 3.49356C25.2223 3.49356 26.4034 4.21636 27.2991 5.53146C28.1882 6.84657 28.6726 8.59334 28.6726 10.4505C28.6726 12.2977 28.1816 14.0445 27.2991 15.3395C26.4034 16.6546 25.2223 17.3774 23.9617 17.3774C22.701 17.3774 21.52 16.6546 20.6243 15.3395L12.2907 3.05184C10.9504 1.08421 9.17884 0 7.30112 0C5.41014 0 3.63859 1.08421 2.31158 3.05184C0.977943 5.01947 0.241455 7.63964 0.241455 10.4405C0.241455 13.2313 0.977943 15.8615 2.31158 17.8292C3.63859 19.7968 5.41678 20.881 7.30112 20.881C9.19211 20.881 10.9637 19.7968 12.2907 17.8292L14.3475 14.8175C14.4537 14.6569 14.4537 14.3959 14.3475 14.2453L13.0603 12.3479C12.9608 12.1973 12.7949 12.1973 12.6888 12.3479L10.6319 15.3496C9.73618 16.6647 8.55515 17.3875 7.29449 17.3875C6.03384 17.3875 4.8528 16.6647 3.95707 15.3496C3.06798 14.0345 2.58362 12.2877 2.58362 10.4305C2.58362 8.5833 3.07461 6.84656 3.95707 5.5415C4.8528 4.2264 6.03384 3.50359 7.29449 3.50359C8.55515 3.50359 9.73618 4.2264 10.6319 5.5415L18.9589 17.8392C20.2991 19.8069 22.0707 20.8911 23.9484 20.8911C25.8394 20.8911 27.6109 19.8069 28.938 17.8392C30.2782 15.8716 31.0147 13.2514 31.0147 10.4505C31.028 7.64968 30.2915 5.01947 28.9579 3.05184Z" fill="white"/>
</svg>
