<svg width="428" height="438" viewBox="0 0 428 438" fill="none" xmlns="http://www.w3.org/2000/svg">
<g clip-path="url(#clip0_504_182)">
<path d="M428 0H0V438H428V0Z" fill="#00AEEF"/>
<path d="M187.714 290.247C178.764 290.247 170.963 293.108 165.899 297.852C160.834 302.597 158.412 308.954 158.412 315.939C158.412 322.924 160.834 329.28 165.899 334.025C170.964 338.77 178.764 341.631 187.714 341.631C196.665 341.631 204.465 338.77 209.53 334.025C214.595 329.28 217.017 322.924 217.017 315.939C217.017 308.954 214.595 302.598 209.53 297.852C204.465 293.107 196.665 290.247 187.714 290.247ZM296.224 290.911C296.213 290.912 296.202 290.912 296.191 290.913C296.186 290.913 296.18 290.913 296.175 290.913C296.152 290.914 296.129 290.915 296.105 290.917C294.881 290.942 293.7 291.271 292.738 291.854C291.776 292.438 291.085 293.244 290.767 294.154L269.019 334.708C268.723 335.24 268.567 335.813 268.56 336.393C268.553 336.972 268.697 337.547 268.981 338.084C269.266 338.62 269.686 339.108 270.218 339.518C270.75 339.929 271.383 340.254 272.079 340.475C272.776 340.696 273.523 340.808 274.276 340.806C275.029 340.803 275.775 340.685 276.468 340.458C277.162 340.232 277.79 339.902 278.317 339.487C278.843 339.073 279.257 338.582 279.535 338.043L284.059 329.606H308.511L308.88 330.295L313.035 338.043C313.313 338.582 313.727 339.073 314.253 339.487C314.78 339.902 315.408 340.232 316.102 340.458C316.795 340.684 317.541 340.802 318.294 340.805C319.048 340.808 319.794 340.696 320.491 340.475C321.187 340.254 321.82 339.929 322.352 339.518C322.884 339.108 323.304 338.62 323.589 338.083C323.873 337.547 324.017 336.972 324.01 336.392C324.004 335.813 323.847 335.24 323.551 334.708L319.395 326.959L301.79 294.127C301.462 293.213 300.756 292.405 299.779 291.825C298.802 291.246 297.607 290.927 296.374 290.916C296.324 290.914 296.274 290.912 296.224 290.911L296.224 290.911ZM147.029 290.984C146.009 290.974 145.004 291.176 144.12 291.568C143.236 291.96 142.506 292.527 142.005 293.211L127.59 312.251L113.187 293.225C112.671 292.521 111.913 291.941 110.996 291.549C110.079 291.156 109.039 290.967 107.99 291.001C107.004 291.033 106.047 291.262 105.211 291.665C104.375 292.068 103.69 292.632 103.222 293.3C102.755 293.968 102.522 294.718 102.546 295.477C102.569 296.236 102.849 296.976 103.357 297.627L121.905 322.128V336.553C121.901 337.693 122.477 338.79 123.509 339.609C124.541 340.428 125.948 340.905 127.43 340.937C128.913 340.97 130.353 340.556 131.444 339.783C132.536 339.011 133.192 337.941 133.272 336.802C133.28 336.715 133.285 336.627 133.286 336.539V322.113L151.834 297.612C152.35 296.952 152.63 296.2 152.647 295.43C152.663 294.66 152.415 293.9 151.928 293.228C151.44 292.555 150.73 291.993 149.87 291.599C149.01 291.205 148.03 290.993 147.029 290.984ZM226.876 291.099C226.122 291.09 225.374 291.197 224.674 291.414C223.975 291.63 223.338 291.951 222.802 292.358C222.265 292.765 221.838 293.25 221.548 293.784C221.257 294.319 221.107 294.893 221.107 295.473C221.107 296.053 221.257 296.627 221.548 297.162C221.838 297.697 222.265 298.182 222.802 298.589C223.338 298.996 223.975 299.317 224.674 299.533C225.374 299.749 226.122 299.856 226.876 299.848H240.268L240.319 336.258C240.309 336.838 240.449 337.413 240.731 337.951C241.012 338.489 241.43 338.978 241.96 339.391C242.49 339.803 243.121 340.131 243.816 340.354C244.512 340.577 245.258 340.692 246.012 340.691C246.766 340.691 247.512 340.575 248.207 340.35C248.902 340.126 249.532 339.798 250.061 339.384C250.59 338.971 251.006 338.481 251.287 337.943C251.567 337.405 251.705 336.829 251.694 336.249L251.642 299.848H265.228C265.982 299.856 266.73 299.749 267.43 299.533C268.129 299.317 268.766 298.996 269.303 298.589C269.84 298.182 270.266 297.697 270.557 297.162C270.848 296.627 270.998 296.053 270.998 295.473C270.998 294.894 270.848 294.32 270.557 293.785C270.266 293.25 269.84 292.765 269.303 292.358C268.766 291.951 268.129 291.63 267.43 291.414C266.73 291.198 265.982 291.091 265.228 291.099L226.876 291.099ZM187.712 298.995C193.728 298.995 197.736 300.592 200.737 303.404C203.738 306.216 205.64 310.518 205.64 315.939C205.64 321.361 203.738 325.662 200.737 328.475C197.735 331.287 193.727 332.884 187.712 332.884C181.697 332.884 177.689 331.287 174.688 328.475C171.686 325.662 169.785 321.361 169.785 315.939C169.785 310.518 171.686 306.216 174.688 303.404C177.689 300.592 181.697 298.995 187.712 298.995ZM296.287 306.806L303.822 320.858H288.752L296.287 306.806Z" fill="white"/>
<path d="M257.929 150.302C269.122 141.55 276.031 129.41 276.022 116.136V106.769C276.022 100.889 269.827 96.1218 262.182 96.1218C254.523 96.1218 248.333 100.889 248.333 106.769V116.136C248.329 123.712 244.439 130.451 238.171 135.373C231.879 140.281 223.414 143.243 213.951 143.246C204.484 143.243 196.029 140.281 189.728 135.373C183.468 130.451 179.575 123.712 179.575 116.136V106.769C179.575 100.889 173.375 96.1218 165.73 96.1218C158.086 96.1218 151.881 100.889 151.881 106.769V116.136C151.876 129.41 158.785 141.55 169.973 150.302C178.041 156.638 188.461 161.258 200.102 163.333V185.749C188.461 187.823 178.041 192.447 169.973 198.787C158.784 207.538 151.876 219.671 151.881 232.953V242.317C151.881 248.193 158.085 252.961 165.73 252.961C173.374 252.961 179.575 248.192 179.575 242.317V232.953C179.575 225.376 183.468 218.629 189.728 213.712C196.029 208.802 204.484 205.842 213.951 205.835C223.414 205.842 231.879 208.802 238.171 213.712C244.439 218.629 248.329 225.376 248.333 232.953V242.317C248.333 248.193 254.523 252.961 262.182 252.961C269.827 252.961 276.022 248.192 276.022 242.317V232.953C276.031 219.671 269.122 207.538 257.929 198.787C249.861 192.447 239.441 187.823 227.801 185.749V163.333C239.441 161.258 249.861 156.638 257.929 150.302Z" fill="#FFFFF7"/>
<path d="M213.955 250.719C227.197 250.719 237.93 242.472 237.93 232.283C237.93 222.094 227.197 213.839 213.955 213.839C200.713 213.839 189.98 222.094 189.98 232.283C189.98 242.472 200.713 250.719 213.955 250.719Z" fill="#FFFFF7"/>
</g>
<defs>
<clipPath id="clip0_504_182">
<rect width="428" height="438" fill="white"/>
</clipPath>
</defs>
</svg>
