<svg width="41" height="47" viewBox="0 0 41 47" fill="none" xmlns="http://www.w3.org/2000/svg">
<path d="M20.7969 0C10.7246 0 2.55957 5.45298 2.55957 12.1794C2.55957 18.9059 10.7246 24.3593 20.7969 24.3593C30.8692 24.3593 39.0342 18.9059 39.0342 12.1794C39.0342 5.45298 30.8692 0 20.7969 0ZM20.7969 17.2144C16.6334 17.2144 13.258 14.9601 13.258 12.1795C13.258 9.39902 16.6334 7.14486 20.7969 7.14486C24.9604 7.14486 28.3358 9.39902 28.3358 12.1795C28.3358 14.9601 24.9604 17.2144 20.7969 17.2144Z" fill="#BEB931"/>
<path d="M27.2355 34.0504C34.5366 33.0571 38.9118 30.7481 39.1433 30.6242C41.2798 29.4799 41.623 27.3957 39.9096 25.9687C38.1964 24.542 35.0758 24.3128 32.9388 25.4568C32.8937 25.4812 28.2272 27.8719 20.5492 27.8754C12.8714 27.8719 8.10632 25.4812 8.06117 25.4568C5.9242 24.3128 2.80356 24.542 1.09043 25.9687C-0.622953 27.3957 -0.279752 29.4799 1.8567 30.6242C2.09133 30.7498 6.64714 33.119 14.1529 34.089L3.69223 41.3898C1.79119 42.7064 1.84835 44.8029 3.81985 46.0724C4.78211 46.692 6.02233 47 7.2615 47C8.5607 47 9.8586 46.661 10.8316 45.987L20.5495 39.0736L31.2489 46.0318C33.1875 47.3244 36.3267 47.3223 38.2617 46.0282C40.1967 44.7338 40.1943 42.6371 38.2562 41.3449L27.2355 34.0504Z" fill="#BEB931"/>
</svg>
