<svg width="65" height="51" viewBox="0 0 65 51" fill="none" xmlns="http://www.w3.org/2000/svg">
<path fill-rule="evenodd" clip-rule="evenodd" d="M4.46841 21.9552C21.9167 14.7579 33.5516 10.013 39.3731 7.72051C55.9949 1.175 59.4487 0.0379455 61.6999 0.000400304C62.195 -0.00785734 63.3021 0.10832 64.0192 0.659226C64.6247 1.1244 64.7913 1.75279 64.871 2.19383C64.9507 2.63487 65.05 3.63957 64.9711 4.42461C64.0704 13.3849 60.1729 35.1294 58.1901 45.1651C57.3511 49.4115 55.6991 50.8354 54.0997 50.9747C50.624 51.2775 47.9846 48.8 44.6182 46.7107C39.3504 43.4414 36.3744 41.4062 31.2611 38.216C25.3517 34.5292 29.1825 32.5027 32.5502 29.1911C33.4316 28.3244 48.7458 15.1364 49.0422 13.94C49.0793 13.7904 49.1137 13.2327 48.7637 12.9382C48.4138 12.6437 47.8972 12.7444 47.5245 12.8245C46.9962 12.938 38.5808 18.2042 22.2783 28.623C19.8896 30.176 17.726 30.9326 15.7875 30.893C13.6505 30.8493 9.53965 29.749 6.48367 28.8085C2.73539 27.6549 -0.243662 27.045 0.0157469 25.0859C0.150863 24.0655 1.63508 23.0219 4.46841 21.9552Z" fill="#BEB931"/>
</svg>
